<?xml version="1.0" standalone="no"?>
<!DOCTYPE svg PUBLIC "-//W3C//DTD SVG 1.1//EN" "http://www.w3.org/Graphics/SVG/1.1/DTD/svg11.dtd" >
<svg>
<metadata>
Created by FontForge 20090622 at Wed Sep  5 14:37:13 2018
 By deploy user
Copyright &#194;&#169; 2008 - 2009 Linotype GmbH, www.linotype.com. All rights reserved. This font software may not be reproduced, modified, disclosed or transferred without the express written approval of Linotype GmbH.
</metadata>
<defs>
<font id="DINNextLTPro-Black" horiz-adv-x="570" >
  <font-face 
    font-family="DIN Next LT Pro Black"
    font-weight="900"
    font-stretch="normal"
    units-per-em="1000"
    panose-1="2 11 10 3 2 2 3 5 2 3"
    ascent="750"
    descent="-250"
    x-height="490"
    cap-height="680"
    bbox="-180.25 -259 1185 938"
    underline-thickness="50"
    underline-position="-50"
    unicode-range="U+0020-U+FB04"
  />
<missing-glyph horiz-adv-x="558" 
d="M0 10v660q0 10 10 10h538q10 0 10 -10v-660q0 -10 -10 -10h-538q-10 0 -10 10zM90 92q0 -6 6 -6h366q6 0 6 6v496q0 6 -6 6h-366q-6 0 -6 -6v-496zM230 257q-10 0 -10 10v23q0 31 22 54l31 32q32 33 32 51q0 29 -28 29q-26 0 -34 -28q-3 -10 -12 -9l-91 12q-10 0 -8 11
q7 55 47.5 88t103.5 33q67 0 106.5 -35.5t39.5 -88.5q0 -30 -11 -52.5t-38 -50.5l-31 -32q-12 -13 -12 -32v-5q0 -10 -10 -10h-97zM220 123v84q0 10 10 10h97q10 0 10 -10v-84q0 -10 -10 -10h-97q-10 0 -10 10z" />
    <glyph glyph-name="IJ" unicode="IJ" horiz-adv-x="848" 
d="M44 10v660q0 10 10 10h190q10 0 10 -10v-660q0 -10 -10 -10h-190q-10 0 -10 10zM313 86q-5 8 1 14l132 108q7 5 13 -1q28 -33 66 -33q70 0 70 80v416q0 10 10 10h190q10 0 10 -10v-393q0 -289 -274 -289q-70 0 -129.5 27t-88.5 71z" />
    <glyph glyph-name="ij" unicode="ij" horiz-adv-x="568" 
d="M232 536h-180q-10 0 -10 10v124q0 10 10 10h180q10 0 10 -10v-124q0 -10 -10 -10zM232 0h-180q-10 0 -10 10v470q0 10 10 10h180q10 0 10 -10v-470q0 -10 -10 -10zM516 536h-180q-10 0 -10 10v124q0 10 10 10h180q10 0 10 -10v-124q0 -10 -10 -10zM305 -180h-43
q-10 0 -10 10v140q0 10 10 10h10q31 0 42.5 10.5t11.5 43.5v446q0 10 10 10h180q10 0 10 -10v-447q0 -112 -55.5 -162.5t-165.5 -50.5z" />
    <glyph glyph-name="napostrophe" unicode="&#x22;n" horiz-adv-x="564" 
d="M514 0h-180q-10 0 -10 10v278q0 50 -41 50t-41 -50v-278q0 -10 -10 -10h-180q-10 0 -10 10v470q0 10 10 10h180q10 0 10 -10v-36h1q39 58 124 58q157 0 157 -183v-309q0 -10 -10 -10zM-49 455q-12 0 -12 13v202q0 10 10 10h124q10 0 10 -10v-107q0 -13 -10 -22l-104 -78
q-11 -8 -18 -8z" />
    <glyph glyph-name="f_f" unicode="ff" horiz-adv-x="728" 
d="M254 0h-178q-10 0 -10 10v334q0 6 -6 6h-26q-10 0 -10 10v120q0 10 10 10h26q6 0 6 6v4q0 99 43.5 139.5t148.5 40.5h78q10 0 10 -10v-124q0 -10 -10 -10h-28q-25 0 -34.5 -8.5t-9.5 -27.5v-4q0 -6 6 -6h64q10 0 10 -10v-120q0 -10 -10 -10h-64q-6 0 -6 -6v-334
q0 -10 -10 -10zM618 0h-178q-10 0 -10 10v334q0 6 -6 6h-26q-10 0 -10 10v120q0 10 10 10h26q6 0 6 6v4q0 99 43.5 139.5t148.5 40.5h78q10 0 10 -10v-124q0 -10 -10 -10h-28q-25 0 -34.5 -8.5t-9.5 -27.5v-4q0 -6 6 -6h64q10 0 10 -10v-120q0 -10 -10 -10h-64q-6 0 -6 -6
v-334q0 -10 -10 -10z" />
    <glyph glyph-name="fi" unicode="fi" horiz-adv-x="648" 
d="M254 0h-178q-10 0 -10 10v334q0 6 -6 6h-26q-10 0 -10 10v120q0 10 10 10h26q6 0 6 6v4q0 99 43.5 139.5t148.5 40.5h78q10 0 10 -10v-124q0 -10 -10 -10h-28q-25 0 -34.5 -8.5t-9.5 -27.5v-4q0 -6 6 -6h64q10 0 10 -10v-120q0 -10 -10 -10h-64q-6 0 -6 -6v-334
q0 -10 -10 -10zM596 536h-180q-10 0 -10 10v124q0 10 10 10h180q10 0 10 -10v-124q0 -10 -10 -10zM596 0h-180q-10 0 -10 10v470q0 10 10 10h180q10 0 10 -10v-470q0 -10 -10 -10z" />
    <glyph glyph-name="fl" unicode="fl" horiz-adv-x="693" 
d="M254 0h-178q-10 0 -10 10v334q0 6 -6 6h-26q-10 0 -10 10v120q0 10 10 10h26q6 0 6 6v4q0 99 43.5 139.5t148.5 40.5h78q10 0 10 -10v-124q0 -10 -10 -10h-28q-25 0 -34.5 -8.5t-9.5 -27.5v-4q0 -6 6 -6h64q10 0 10 -10v-120q0 -10 -10 -10h-64q-6 0 -6 -6v-334
q0 -10 -10 -10zM664 -6h-71q-102 0 -145.5 43t-43.5 147v486q0 10 10 10h180q10 0 10 -10v-462q0 -50 41 -50h19q10 0 10 -10v-144q0 -10 -10 -10z" />
    <glyph glyph-name="f_f_i" unicode="ffi" horiz-adv-x="1012" 
d="M254 0h-178q-10 0 -10 10v334q0 6 -6 6h-26q-10 0 -10 10v120q0 10 10 10h26q6 0 6 6v4q0 99 43.5 139.5t148.5 40.5h78q10 0 10 -10v-124q0 -10 -10 -10h-28q-25 0 -34.5 -8.5t-9.5 -27.5v-4q0 -6 6 -6h64q10 0 10 -10v-120q0 -10 -10 -10h-64q-6 0 -6 -6v-334
q0 -10 -10 -10zM618 0h-178q-10 0 -10 10v334q0 6 -6 6h-26q-10 0 -10 10v120q0 10 10 10h26q6 0 6 6v4q0 99 43.5 139.5t148.5 40.5h78q10 0 10 -10v-124q0 -10 -10 -10h-28q-25 0 -34.5 -8.5t-9.5 -27.5v-4q0 -6 6 -6h64q10 0 10 -10v-120q0 -10 -10 -10h-64q-6 0 -6 -6
v-334q0 -10 -10 -10zM960 536h-180q-10 0 -10 10v124q0 10 10 10h180q10 0 10 -10v-124q0 -10 -10 -10zM960 0h-180q-10 0 -10 10v470q0 10 10 10h180q10 0 10 -10v-470q0 -10 -10 -10z" />
    <glyph glyph-name="f_f_l" unicode="ffl" horiz-adv-x="1057" 
d="M254 0h-178q-10 0 -10 10v334q0 6 -6 6h-26q-10 0 -10 10v120q0 10 10 10h26q6 0 6 6v4q0 99 43.5 139.5t148.5 40.5h78q10 0 10 -10v-124q0 -10 -10 -10h-28q-25 0 -34.5 -8.5t-9.5 -27.5v-4q0 -6 6 -6h64q10 0 10 -10v-120q0 -10 -10 -10h-64q-6 0 -6 -6v-334
q0 -10 -10 -10zM618 0h-178q-10 0 -10 10v334q0 6 -6 6h-26q-10 0 -10 10v120q0 10 10 10h26q6 0 6 6v4q0 99 43.5 139.5t148.5 40.5h78q10 0 10 -10v-124q0 -10 -10 -10h-28q-25 0 -34.5 -8.5t-9.5 -27.5v-4q0 -6 6 -6h64q10 0 10 -10v-120q0 -10 -10 -10h-64q-6 0 -6 -6
v-334q0 -10 -10 -10zM1028 -6h-71q-102 0 -145.5 43t-43.5 147v486q0 10 10 10h180q10 0 10 -10v-462q0 -50 41 -50h19q10 0 10 -10v-144q0 -10 -10 -10z" />
    <glyph glyph-name=".notdef" horiz-adv-x="558" 
d="M0 10v660q0 10 10 10h538q10 0 10 -10v-660q0 -10 -10 -10h-538q-10 0 -10 10zM90 92q0 -6 6 -6h366q6 0 6 6v496q0 6 -6 6h-366q-6 0 -6 -6v-496zM230 257q-10 0 -10 10v23q0 31 22 54l31 32q32 33 32 51q0 29 -28 29q-26 0 -34 -28q-3 -10 -12 -9l-91 12q-10 0 -8 11
q7 55 47.5 88t103.5 33q67 0 106.5 -35.5t39.5 -88.5q0 -30 -11 -52.5t-38 -50.5l-31 -32q-12 -13 -12 -32v-5q0 -10 -10 -10h-97zM220 123v84q0 10 10 10h97q10 0 10 -10v-84q0 -10 -10 -10h-97q-10 0 -10 10z" />
    <glyph glyph-name=".null" horiz-adv-x="500" 
 />
    <glyph glyph-name="nonmarkingreturn" horiz-adv-x="333" 
 />
    <glyph glyph-name="space" unicode=" " horiz-adv-x="240" 
 />
    <glyph glyph-name="exclam" unicode="!" horiz-adv-x="320" 
d="M94 222q-10 0 -10 10l-24 438q0 10 10 10h180q10 0 10 -10l-24 -438q0 -10 -10 -10h-132zM70 10v140q0 10 10 10h160q10 0 10 -10v-140q0 -10 -10 -10h-160q-10 0 -10 10z" />
    <glyph glyph-name="quotedbl" unicode="&#x22;" horiz-adv-x="442" 
d="M261 436q-10 0 -10 10v224q0 10 10 10h117q10 0 10 -10v-224q0 -10 -10 -10h-117zM64 436q-10 0 -10 10v224q0 10 10 10h117q10 0 10 -10v-224q0 -10 -10 -10h-117z" />
    <glyph glyph-name="numbersign" unicode="#" horiz-adv-x="652" 
d="M73 10l20 151h-59q-10 0 -10 10v125q0 10 10 10h79l10 74h-63q-10 0 -10 10v125q0 10 10 10h83l20 145q2 10 11 10h147q11 0 9 -10l-20 -145h80l20 145q2 10 11 10h147q11 0 9 -10l-20 -145h61q10 0 10 -10v-125q0 -10 -10 -10h-81l-10 -74h65q10 0 10 -10v-125
q0 -10 -10 -10h-85l-20 -151q-2 -10 -11 -10h-147q-11 0 -9 10l21 151h-80l-21 -151q-2 -10 -11 -10h-147q-11 0 -9 10zM280 306h80l10 74h-80z" />
    <glyph glyph-name="dollar" unicode="$" 
d="M34 67q-9 8 -2 17l99 120q6 8 13 2q57 -46 116 -46q31 0 48.5 12.5t17.5 36.5q0 33 -49 39l-18 2q-100 11 -155.5 66t-55.5 144q0 83 46.5 144t128.5 80v81q0 10 10 10h106q10 0 10 -10v-77q82 -12 150 -56q10 -6 2 -17l-85 -120q-6 -8 -14 -3q-45 28 -91 28
q-27 0 -44 -11.5t-17 -30.5q0 -30 50 -37l24 -3q204 -25 204 -211q0 -87 -47.5 -148.5t-131.5 -81.5v-82q0 -10 -10 -10h-106q-10 0 -10 10v76q-114 13 -189 76z" />
    <glyph glyph-name="percent" unicode="%" horiz-adv-x="891" 
d="M177 -2l395 684q6 10 16 10h122q10 0 4 -10l-395 -684q-6 -10 -16 -10h-122q-10 0 -4 10zM215 330q-115 0 -143 88q-12 36 -12 91t12 91q28 88 143 88t143 -88q12 -36 12 -91t-12 -91q-28 -88 -143 -88zM215 423q15 0 19 13q3 10 3 73t-3 73q-4 13 -19 13t-19 -13
q-3 -10 -3 -73t3 -73q4 -13 19 -13zM533 80q-12 36 -12 91t12 91q28 88 143 88t143 -88q12 -36 12 -91t-12 -91q-28 -88 -143 -88t-143 88zM657 98q4 -13 19 -13t19 13q3 10 3 73t-3 73q-4 13 -19 13t-19 -13q-3 -10 -3 -73t3 -73z" />
    <glyph glyph-name="ampersand" unicode="&#x26;" horiz-adv-x="647" 
d="M34 176q0 54 28 98t92 95q-67 84 -67 151q0 75 58 123.5t145 48.5q91 0 146.5 -48t55.5 -125q0 -45 -24.5 -82.5t-84.5 -85.5l52 -63l66 71q7 7 14 1l96 -85q7 -6 1 -14l-79 -91l3 -3q14 -18 37 -18h15q10 0 10 -10v-129q0 -10 -10 -10h-62q-38 0 -63.5 11t-49.5 38
q-77 -61 -174 -61t-151 50.5t-54 137.5zM288 468q37 31 37 57q0 18 -9 28.5t-24 10.5t-24 -11t-9 -28q0 -19 29 -57zM214 192q0 -19 12 -32t33 -14q28 -1 58 22l-67 84q-36 -31 -36 -60z" />
    <glyph glyph-name="quotesingle" unicode="'" horiz-adv-x="245" 
d="M64 436q-10 0 -10 10v224q0 10 10 10h117q10 0 10 -10v-224q0 -10 -10 -10h-117z" />
    <glyph glyph-name="parenleft" unicode="(" horiz-adv-x="351" 
d="M183 -74q-129 178 -129 402t129 402q7 10 13 10h124q12 0 7 -10q-86 -188 -86 -402t86 -402q5 -10 -7 -10h-124q-6 0 -13 10z" />
    <glyph glyph-name="parenright" unicode=")" horiz-adv-x="351" 
d="M24 -74q86 188 86 402t-86 402q-5 10 7 10h124q6 0 13 -10q129 -178 129 -402t-129 -402q-7 -10 -13 -10h-124q-12 0 -7 10z" />
    <glyph glyph-name="asterisk" unicode="*" horiz-adv-x="444" 
d="M181 332q-10 0 -10 10l1 78l-67 -40q-8 -5 -13 3l-41 72q-5 8 3 13l68 38l-68 38q-9 5 -4 13l42 72q5 8 13 3l67 -40l-1 78q0 10 10 10h82q10 0 10 -10l-1 -78l67 40q8 5 13 -3l41 -72q5 -8 -3 -13l-69 -38l69 -38q9 -5 4 -13l-42 -72q-5 -8 -13 -3l-67 40l1 -78
q0 -10 -10 -10h-82z" />
    <glyph glyph-name="plus" unicode="+" 
d="M52 194q-10 0 -10 10v144q0 10 10 10h143q6 0 6 6v145q0 10 10 10h148q10 0 10 -10v-145q0 -6 6 -6h143q10 0 10 -10v-144q0 -10 -10 -10h-143q-6 0 -6 -6v-145q0 -10 -10 -10h-148q-10 0 -10 10v145q0 6 -6 6h-143z" />
    <glyph glyph-name="comma" unicode="," horiz-adv-x="260" 
d="M44 -89v259q0 10 10 10h152q10 0 10 -10v-145q0 -11 -10 -20l-132 -99q-11 -8 -18 -8q-12 0 -12 13z" />
    <glyph glyph-name="hyphen" unicode="-" horiz-adv-x="408" 
d="M46 179q-10 0 -10 10v152q0 10 10 10h316q10 0 10 -10v-152q0 -10 -10 -10h-316z" />
    <glyph glyph-name="period" unicode="." horiz-adv-x="268" 
d="M44 10v160q0 10 10 10h160q10 0 10 -10v-160q0 -10 -10 -10h-160q-10 0 -10 10z" />
    <glyph glyph-name="slash" unicode="/" horiz-adv-x="459" 
d="M25 -2l206 684q3 10 13 10h183q10 0 7 -10l-206 -684q-3 -10 -13 -10h-183q-10 0 -7 10z" />
    <glyph glyph-name="zero" unicode="0" 
d="M54 141q-17 51 -17 199t17 199q24 73 83.5 113t147.5 40t147.5 -40t83.5 -113q17 -51 17 -199t-17 -199q-24 -73 -83.5 -113t-147.5 -40t-147.5 40t-83.5 113zM245 175q9 -27 40 -27t40 27q6 18 6 165t-6 165q-9 27 -40 27t-40 -27q-6 -18 -6 -165t6 -165z" />
    <glyph glyph-name="one" unicode="1" 
d="M218 10v460h-2l-121 -79q-5 -3 -9 -1.5t-4 7.5v173q0 8 7 14l130 90q9 6 19 6h170q10 0 10 -10v-660q0 -10 -10 -10h-180q-10 0 -10 10z" />
    <glyph glyph-name="two" unicode="2" 
d="M48 10v134q0 8 5 14l239 249q34 35 34 73q0 52 -46 52q-49 0 -54 -71q0 -11 -11 -9l-157 21q-9 1 -9 11q4 93 71.5 150.5t169.5 57.5q100 0 165 -57t65 -146q0 -97 -81 -180l-140 -143v-2h211q10 0 10 -10v-144q0 -10 -10 -10h-452q-10 0 -10 10z" />
    <glyph glyph-name="three" unicode="3" 
d="M45 169q-2 10 8 12l159 22q10 1 12 -9q12 -46 58 -46q25 0 39.5 15.5t14.5 44.5q0 30 -16.5 45.5t-46.5 15.5h-27q-10 0 -10 10v137q0 10 10 10h25q25 0 39.5 14t14.5 40q0 24 -13.5 38t-35.5 14q-40 0 -50 -46q-2 -10 -11 -8l-159 21q-10 2 -8 11q14 83 75.5 132.5
t164.5 49.5q107 0 169 -53.5t62 -134.5q0 -88 -77 -139v-2q88 -49 88 -163q0 -94 -66.5 -153t-174.5 -59q-103 0 -168 49t-76 132z" />
    <glyph glyph-name="four" unicode="4" 
d="M40 90q-10 0 -10 10v158q0 7 2 11l167 403q3 8 15 8h192q12 0 7 -11l-172 -406v-3h61q6 0 6 6v90q0 10 10 10h168q10 0 10 -10v-90q0 -6 5 -6h33q10 0 10 -10v-150q0 -10 -10 -10h-32q-6 0 -6 -6v-74q0 -10 -10 -10h-168q-10 0 -10 10v74q0 6 -6 6h-262z" />
    <glyph glyph-name="five" unicode="5" 
d="M55 162q0 10 9 11l157 21q10 1 13 -9q13 -37 50 -37q32 0 42 28q6 16 6 48t-6 48q-10 28 -42 28q-28 0 -40 -23q-5 -10 -14 -10h-154q-10 0 -10 10v393q0 10 10 10h415q10 0 10 -10v-144q0 -10 -10 -10h-255q-6 0 -6 -6v-92h2q36 40 108 40q135 0 172 -114
q14 -42 14 -121q0 -52 -15 -99q-44 -136 -225 -136q-103 0 -164 48.5t-67 125.5z" />
    <glyph glyph-name="six" unicode="6" 
d="M34 212q0 48 13.5 91.5t46.5 107.5l134 261q4 8 13 8h193q12 0 7 -11l-127 -244l1 -1q9 3 24 3q87 0 142 -60.5t55 -154.5q0 -99 -69.5 -161.5t-181.5 -62.5t-181.5 62.5t-69.5 161.5zM222 212q0 -28 17.5 -46t45.5 -18t45.5 18t17.5 46t-17.5 46t-45.5 18t-45.5 -18
t-17.5 -46z" />
    <glyph glyph-name="seven" unicode="7" 
d="M122 11l203 494v3h-88q-6 0 -6 -6v-55q0 -10 -10 -10h-165q-10 0 -10 10v223q0 10 10 10h464q10 0 10 -10v-161q0 -4 -2 -10l-196 -489q-4 -10 -14 -10h-188q-5 0 -7 3.5t-1 7.5z" />
    <glyph glyph-name="eight" unicode="8" 
d="M33 202q0 95 74 149v2q-59 49 -59 132q0 87 64.5 147t172.5 60t172.5 -60t64.5 -147q0 -83 -59 -132v-2q74 -54 74 -149q0 -98 -72 -156t-180 -58t-180 58t-72 156zM285 428q23 0 38 14.5t15 37.5t-15 37.5t-38 14.5t-38 -14.5t-15 -37.5t15 -37.5t38 -14.5zM221 210
q0 -27 18.5 -44.5t45.5 -17.5t45.5 17.5t18.5 44.5t-18.5 44.5t-45.5 17.5t-45.5 -17.5t-18.5 -44.5z" />
    <glyph glyph-name="nine" unicode="9" 
d="M129 11l127 244l-1 1q-9 -3 -24 -3q-87 0 -142 60.5t-55 154.5q0 99 69.5 161.5t181.5 62.5t181.5 -62.5t69.5 -161.5q0 -48 -13.5 -91.5t-46.5 -107.5l-134 -261q-4 -8 -13 -8h-193q-12 0 -7 11zM285 404q28 0 45.5 18t17.5 46t-17.5 46t-45.5 18t-45.5 -18t-17.5 -46
t17.5 -46t45.5 -18z" />
    <glyph glyph-name="colon" unicode=":" horiz-adv-x="288" 
d="M64 310q-10 0 -10 10v160q0 10 10 10h160q10 0 10 -10v-160q0 -10 -10 -10h-160zM54 10v160q0 10 10 10h160q10 0 10 -10v-160q0 -10 -10 -10h-160q-10 0 -10 10z" />
    <glyph glyph-name="semicolon" unicode=";" horiz-adv-x="288" 
d="M64 310q-10 0 -10 10v160q0 10 10 10h160q10 0 10 -10v-160q0 -10 -10 -10h-160zM58 -89v259q0 10 10 10h152q10 0 10 -10v-145q0 -11 -10 -20l-132 -99q-11 -8 -18 -8q-12 0 -12 13z" />
    <glyph glyph-name="less" unicode="&#x3c;" 
d="M52 200q-10 3 -10 14v124q0 11 10 14l466 164q10 3 10 -7v-153q0 -9 -10 -13l-220 -66v-2l220 -66q10 -4 10 -13v-153q0 -10 -10 -7z" />
    <glyph glyph-name="equal" unicode="=" 
d="M52 310q-10 0 -10 10v144q0 10 10 10h466q10 0 10 -10v-144q0 -10 -10 -10h-466zM52 78q-10 0 -10 10v144q0 10 10 10h466q10 0 10 -10v-144q0 -10 -10 -10h-466z" />
    <glyph glyph-name="greater" unicode="&#x3e;" 
d="M42 43v153q0 9 10 13l220 66v2l-220 66q-10 4 -10 13v153q0 10 10 7l466 -164q10 -3 10 -14v-124q0 -11 -10 -14l-466 -164q-10 -3 -10 7z" />
    <glyph glyph-name="question" unicode="?" horiz-adv-x="494" 
d="M159 222q-10 0 -10 10v40q0 50 34 84l48 48q29 28 39.5 45t10.5 34q0 20 -12 32.5t-32 12.5q-42 0 -53 -49q-2 -11 -11 -9l-152 21q-10 2 -8 11q10 85 71 137.5t157 52.5q103 0 167 -57.5t64 -138.5q0 -49 -20 -84t-64 -79l-37 -36q-22 -22 -22 -55v-10q0 -10 -10 -10
h-160zM150 10v140q0 10 10 10h160q10 0 10 -10v-140q0 -10 -10 -10h-160q-10 0 -10 10z" />
    <glyph glyph-name="at" unicode="@" horiz-adv-x="956" 
d="M38 259q0 197 121.5 315t319.5 118t319.5 -116.5t121.5 -308.5q0 -103 -61 -160t-148 -57q-53 0 -92.5 18.5t-56.5 49.5h-1q-19 -35 -50 -51.5t-89 -16.5q-111 0 -140 91q-14 43 -14 125t14 125q29 91 125 91q78 0 106 -49h1v30q0 9 9 9h143q8 0 8 -9v-232q0 -23 12 -36
t32 -13q50 0 50 84q0 135 -78 214.5t-211 79.5t-211 -81t-78 -220q0 -132 78 -211.5t211 -79.5q99 0 189 53q9 6 14 -2l67 -87q6 -8 -2 -14q-107 -82 -268 -82q-198 0 -319.5 116.5t-121.5 306.5zM432 209q9 -27 39 -27t39 27q4 12 4 57t-4 57q-9 27 -39 27t-39 -27
q-4 -12 -4 -57t4 -57z" />
    <glyph glyph-name="A" unicode="A" horiz-adv-x="708" 
d="M6 10l236 660q3 10 13 10h204q10 0 13 -10l230 -660q3 -10 -7 -10h-203q-10 0 -13 10l-25 89h-200l-25 -89q-3 -10 -13 -10h-203q-10 0 -7 10zM302 270h105l-50 181h-3z" />
    <glyph glyph-name="B" unicode="B" horiz-adv-x="618" 
d="M44 10v660q0 10 10 10h291q113 0 170 -48.5t57 -132.5q0 -102 -86 -147v-2q43 -16 70.5 -58.5t27.5 -98.5q0 -95 -65 -144t-174 -49h-291q-10 0 -10 10zM259 413h33q38 0 55 13.5t17 45.5q0 33 -16.5 46t-55.5 13h-33q-6 0 -6 -6v-106q0 -6 6 -6zM253 156q0 -6 6 -6h44
q37 0 54 16t17 51q0 66 -71 66h-44q-6 0 -6 -6v-121z" />
    <glyph glyph-name="C" unicode="C" horiz-adv-x="572" 
d="M51 156q-21 63 -21 184t21 184q27 83 92 125.5t160 42.5t160 -41.5t93 -118.5q4 -10 -5 -14l-161 -69q-11 -5 -15 7q-22 50 -67 50t-58 -41q-8 -26 -8 -125t8 -125q13 -41 58 -41t67 50q4 12 15 7l161 -69q9 -4 5 -14q-28 -77 -93 -118.5t-160 -41.5t-160 42.5t-92 125.5
z" />
    <glyph glyph-name="D" unicode="D" horiz-adv-x="635" 
d="M44 10v660q0 10 10 10h273q200 0 252 -158q21 -64 21 -182t-21 -182q-52 -158 -252 -158h-273q-10 0 -10 10zM254 192q0 -6 6 -6h24q42 0 64 11.5t31 40.5q9 27 9 102t-9 102q-9 29 -31 40.5t-64 11.5h-24q-6 0 -6 -6v-296z" />
    <glyph glyph-name="E" unicode="E" horiz-adv-x="549" 
d="M44 10v660q0 10 10 10h455q10 0 10 -10v-154q0 -10 -10 -10h-251q-6 0 -6 -6v-66q0 -6 6 -6h201q10 0 10 -10v-150q0 -10 -10 -10h-201q-6 0 -6 -6v-72q0 -6 6 -6h251q10 0 10 -10v-154q0 -10 -10 -10h-455q-10 0 -10 10z" />
    <glyph glyph-name="F" unicode="F" horiz-adv-x="546" 
d="M44 10v660q0 10 10 10h455q10 0 10 -10v-154q0 -10 -10 -10h-251q-6 0 -6 -6v-76q0 -6 6 -6h201q10 0 10 -10v-150q0 -10 -10 -10h-201q-6 0 -6 -6v-232q0 -10 -10 -10h-188q-10 0 -10 10z" />
    <glyph glyph-name="G" unicode="G" horiz-adv-x="628" 
d="M51 157q-21 67 -21 183t21 183q27 83 97.5 126t165.5 43q184 0 252 -145q6 -12 -5 -17l-156 -66q-11 -5 -17 4q-25 38 -73 38q-51 0 -65 -44q-8 -25 -8 -122q0 -95 9 -123q14 -43 71 -43t68 36q3 9 3 18q0 7 -6 7h-52q-10 0 -10 10v131q0 10 10 10h253q10 0 10 -10v-47
q0 -105 -19 -163q-28 -86 -97.5 -132t-167.5 -46q-95 0 -165.5 43t-97.5 126z" />
    <glyph glyph-name="H" unicode="H" horiz-adv-x="661" 
d="M44 10v660q0 10 10 10h190q10 0 10 -10v-225q0 -6 6 -6h141q6 0 6 6v225q0 10 10 10h190q10 0 10 -10v-660q0 -10 -10 -10h-190q-10 0 -10 10v237q0 6 -6 6h-141q-6 0 -6 -6v-237q0 -10 -10 -10h-190q-10 0 -10 10z" />
    <glyph glyph-name="I" unicode="I" horiz-adv-x="298" 
d="M44 10v660q0 10 10 10h190q10 0 10 -10v-660q0 -10 -10 -10h-190q-10 0 -10 10z" />
    <glyph glyph-name="J" unicode="J" horiz-adv-x="550" 
d="M15 86q-5 8 1 14l132 108q7 5 13 -1q28 -33 66 -33q70 0 70 80v416q0 10 10 10h190q10 0 10 -10v-393q0 -289 -274 -289q-70 0 -129.5 27t-88.5 71z" />
    <glyph glyph-name="K" unicode="K" horiz-adv-x="670" 
d="M44 10v660q0 10 10 10h190q10 0 10 -10v-228l158 228q7 10 18 10h212q6 0 8 -4t-1 -9l-200 -268l204 -388q2 -4 0.5 -7.5t-6.5 -3.5h-218q-13 0 -17 10l-105 218l-53 -75v-143q0 -10 -10 -10h-190q-10 0 -10 10z" />
    <glyph glyph-name="L" unicode="L" horiz-adv-x="559" 
d="M44 10v660q0 10 10 10h190q10 0 10 -10v-478q0 -6 6 -6h273q10 0 10 -10v-166q0 -10 -10 -10h-479q-10 0 -10 10z" />
    <glyph glyph-name="M" unicode="M" horiz-adv-x="782" 
d="M44 10v660q0 10 10 10h181q13 0 17 -10l140 -317h4l136 317q4 10 17 10h179q10 0 10 -10v-660q0 -10 -10 -10h-169q-10 0 -10 10v312h-5l-90 -216q-6 -13 -19 -13h-88q-11 0 -19 13l-90 216h-5v-312q0 -10 -10 -10h-169q-10 0 -10 10z" />
    <glyph glyph-name="N" unicode="N" horiz-adv-x="650" 
d="M44 10v660q0 10 10 10h179q13 0 17 -10l162 -335h5v335q0 10 10 10h169q10 0 10 -10v-660q0 -10 -10 -10h-179q-13 0 -17 10l-161 335h-6v-335q0 -10 -10 -10h-169q-10 0 -10 10z" />
    <glyph glyph-name="O" unicode="O" horiz-adv-x="628" 
d="M314 -12q-95 0 -165.5 43t-97.5 126q-21 67 -21 183t21 183q27 83 97.5 126t165.5 43t165.5 -43t97.5 -126q21 -66 21 -183q0 -116 -21 -183q-27 -83 -97.5 -126t-165.5 -43zM314 174q50 0 64 43q8 25 8 123t-8 123q-14 43 -64 43t-64 -43q-8 -25 -8 -123t8 -123
q14 -43 64 -43z" />
    <glyph glyph-name="P" unicode="P" horiz-adv-x="620" 
d="M243 0h-189q-10 0 -10 10v660q0 10 10 10h281q135 0 202 -64t67 -171q0 -104 -68.5 -169.5t-200.5 -65.5h-76q-6 0 -6 -6v-194q0 -10 -10 -10zM324 384q70 0 70 61t-70 61h-65q-6 0 -6 -6v-110q0 -6 6 -6h65z" />
    <glyph glyph-name="Q" unicode="Q" horiz-adv-x="636" 
d="M654 60l-129 -118q-7 -8 -15 0l-63 71q-61 -25 -130 -25q-95 0 -165.5 43t-97.5 126q-21 67 -21 183t21 183q27 83 97.5 126t165.5 43t165.5 -43t97.5 -126q21 -66 21 -183t-21 -182l75 -83q8 -8 -1 -15zM317 174q50 0 64 43q8 25 8 123t-8 123q-14 43 -64 43t-64 -43
q-8 -25 -8 -123t8 -123q14 -43 64 -43z" />
    <glyph glyph-name="R" unicode="R" horiz-adv-x="635" 
d="M605 0h-209q-11 0 -15 10l-87 212h-35q-6 0 -6 -6v-206q0 -10 -10 -10h-189q-10 0 -10 10v660q0 10 10 10h284q127 0 194.5 -63t67.5 -166q0 -131 -102 -191l114 -249q4 -11 -7 -11zM322 390q68 0 68 58t-68 58h-63q-6 0 -6 -6v-104q0 -6 6 -6h63z" />
    <glyph glyph-name="S" unicode="S" horiz-adv-x="617" 
d="M306 -12q-85 0 -165 29.5t-121 70.5q-9 9 -1 18l106 125q6 8 13 1q31 -28 76 -47t90 -19q78 0 78 44q0 14 -13.5 22.5t-50.5 13.5l-36 5q-119 17 -179 71.5t-60 153.5q0 97 72 156.5t193 59.5q154 0 257 -78q10 -6 2 -17l-90 -128q-6 -8 -14 -3q-74 49 -147 49
q-58 0 -58 -37q0 -15 14.5 -23.5t50.5 -13.5l36 -5q122 -17 180 -71.5t58 -154.5t-76 -161t-215 -61z" />
    <glyph glyph-name="T" unicode="T" horiz-adv-x="576" 
d="M383 0h-190q-10 0 -10 10v478q0 6 -6 6h-161q-10 0 -10 10v166q0 10 10 10h544q10 0 10 -10v-166q0 -10 -10 -10h-161q-6 0 -6 -6v-478q0 -10 -10 -10z" />
    <glyph glyph-name="U" unicode="U" horiz-adv-x="650" 
d="M326 -12q-133 0 -208 73t-75 216v393q0 10 10 10h190q10 0 10 -10v-411q0 -85 72 -85t72 85v411q0 10 10 10h190q10 0 10 -10v-393q0 -143 -74.5 -216t-206.5 -73z" />
    <glyph glyph-name="V" unicode="V" horiz-adv-x="669" 
d="M430 0h-191q-11 0 -14 10l-218 658q-3 12 9 12h202q11 0 14 -10l104 -367h3l100 367q3 10 14 10h200q12 0 9 -12l-218 -658q-3 -10 -14 -10z" />
    <glyph glyph-name="W" unicode="W" horiz-adv-x="956" 
d="M741 0h-154q-11 0 -14 10l-94 329h-2l-94 -329q-3 -10 -14 -10h-154q-11 0 -14 10l-195 660q-3 10 7 10h206q11 0 13 -10l76 -360h2l94 360q3 10 14 10h121q11 0 14 -10l98 -360h2l73 360q2 10 13 10h204q10 0 7 -10l-195 -660q-3 -10 -14 -10z" />
    <glyph glyph-name="X" unicode="X" horiz-adv-x="642" 
d="M630 0h-202q-12 0 -18 10l-89 154h-3l-89 -154q-6 -10 -18 -10h-202q-12 0 -6 10l204 340l-192 320q-6 10 6 10h202q12 0 18 -10l77 -134h3l77 134q6 10 18 10h202q12 0 6 -10l-192 -320l204 -340q6 -10 -6 -10z" />
    <glyph glyph-name="Y" unicode="Y" horiz-adv-x="641" 
d="M416 0h-190q-10 0 -10 10v244l-211 415q-5 11 7 11h189q11 0 17 -10l104 -213h3l101 213q4 10 17 10h187q12 0 7 -11l-211 -415v-244q0 -10 -10 -10z" />
    <glyph glyph-name="Z" unicode="Z" horiz-adv-x="580" 
d="M540 0h-500q-10 0 -10 10v162q0 6 3 10l269 309v3h-251q-10 0 -10 10v166q0 10 10 10h489q10 0 10 -10v-162q0 -6 -3 -10l-270 -309v-3h263q10 0 10 -10v-166q0 -10 -10 -10z" />
    <glyph glyph-name="bracketleft" unicode="[" horiz-adv-x="331" 
d="M299 -84h-239q-10 0 -10 10v804q0 10 10 10h239q10 0 10 -10v-126q0 -10 -10 -10h-76q-6 0 -6 -6v-520q0 -6 6 -6h76q10 0 10 -10v-126q0 -10 -10 -10z" />
    <glyph glyph-name="backslash" unicode="\" horiz-adv-x="459" 
d="M427 -12h-183q-10 0 -13 10l-206 684q-3 10 7 10h183q10 0 13 -10l206 -684q3 -10 -7 -10z" />
    <glyph glyph-name="bracketright" unicode="]" horiz-adv-x="331" 
d="M271 -84h-239q-10 0 -10 10v126q0 10 10 10h76q6 0 6 6v520q0 6 -6 6h-76q-10 0 -10 10v126q0 10 10 10h239q10 0 10 -10v-804q0 -10 -10 -10z" />
    <glyph glyph-name="asciicircum" unicode="^" 
d="M524 232h-165q-10 0 -13 10l-60 196h-2l-60 -196q-3 -10 -13 -10h-165q-10 0 -7 10l162 428q5 10 14 10h140q9 0 14 -10l162 -428q3 -10 -7 -10z" />
    <glyph glyph-name="underscore" unicode="_" horiz-adv-x="584" 
d="M584 -190h-584v140h584v-140z" />
    <glyph glyph-name="grave" unicode="`" horiz-adv-x="530" 
d="M394 540h-143q-9 0 -16 10l-106 144q-1 2 -1 4.5t1.5 4t4.5 1.5h165q10 0 17 -10l83 -144q5 -10 -5 -10z" />
    <glyph glyph-name="a" unicode="a" horiz-adv-x="537" 
d="M488 0h-169q-10 0 -10 10v24h-1q-44 -46 -128 -46q-66 0 -111 38t-45 113q0 81 59.5 122.5t155.5 41.5h65q6 0 6 6v8q0 19 -17.5 26.5t-68.5 7.5q-61 0 -102 -25q-9 -5 -13 3l-60 108q-6 11 3 17q73 48 200 48q134 0 190 -45.5t56 -144.5v-302q0 -10 -10 -10zM253 124
q57 0 57 35v26q0 6 -6 6h-47q-47 0 -47 -35q0 -32 43 -32z" />
    <glyph glyph-name="b" unicode="b" horiz-adv-x="563" 
d="M366 -12q-88 0 -123 58h-1v-36q0 -10 -10 -10h-180q-10 0 -10 10v660q0 10 10 10h180q10 0 10 -10v-226h1q35 58 123 58q120 0 157 -117q17 -52 17 -140t-17 -140q-37 -117 -157 -117zM290 148q33 0 42 28q6 19 6 69q0 49 -6 69q-9 28 -42 28t-42 -28q-6 -20 -6 -69
t6 -69q9 -28 42 -28z" />
    <glyph glyph-name="c" unicode="c" horiz-adv-x="504" 
d="M264 -12q-84 0 -144.5 37.5t-83.5 110.5q-13 39 -13 109t13 109q23 73 83.5 110.5t144.5 37.5q82 0 142.5 -38.5t80.5 -96.5q3 -9 -5 -13l-141 -60q-13 -7 -17 4q-16 44 -52 44q-32 0 -42 -30q-5 -15 -5 -67t5 -67q10 -30 42 -30q36 0 52 44q4 11 17 4l141 -60
q8 -4 5 -13q-20 -58 -80.5 -96.5t-142.5 -38.5z" />
    <glyph glyph-name="d" unicode="d" horiz-adv-x="563" 
d="M511 0h-180q-10 0 -10 10v36h-1q-35 -58 -123 -58q-120 0 -157 117q-17 52 -17 140t17 140q37 117 157 117q88 0 123 -58h1v226q0 10 10 10h180q10 0 10 -10v-660q0 -10 -10 -10zM273 148q33 0 42 28q6 19 6 69q0 49 -6 69q-9 28 -42 28t-42 -28q-6 -20 -6 -69t6 -69
q9 -28 42 -28z" />
    <glyph glyph-name="e" unicode="e" horiz-adv-x="539" 
d="M281 -12q-95 0 -157 38.5t-86 109.5q-15 45 -15 109t15 109q23 71 82.5 109.5t147.5 38.5q186 0 233 -145q15 -47 15 -156q0 -10 -10 -10h-285q-6 0 -6 -6q0 -4 2 -10q14 -42 87 -42q55 0 107 36q8 5 14 -2l78 -86q7 -7 -2 -15q-89 -78 -220 -78zM221 303h100q6 0 6 6
q0 15 -3 24q-11 34 -53 34t-53 -34q-3 -9 -3 -24q0 -6 6 -6z" />
    <glyph glyph-name="f" unicode="f" horiz-adv-x="364" 
d="M254 0h-178q-10 0 -10 10v334q0 6 -6 6h-26q-10 0 -10 10v120q0 10 10 10h26q6 0 6 6v4q0 99 43.5 139.5t148.5 40.5h78q10 0 10 -10v-124q0 -10 -10 -10h-28q-25 0 -34.5 -8.5t-9.5 -27.5v-4q0 -6 6 -6h64q10 0 10 -10v-120q0 -10 -10 -10h-64q-6 0 -6 -6v-334
q0 -10 -10 -10z" />
    <glyph glyph-name="g" unicode="g" horiz-adv-x="559" 
d="M240 -192q-61 0 -118.5 23.5t-81.5 54.5q-6 8 1 15l98 102q7 7 15 1q46 -36 90 -36q39 0 56.5 21t17.5 69v32h-1q-35 -58 -123 -58q-120 0 -158 116q-16 51 -16 119t16 119q38 116 158 116q88 0 123 -58h1v36q0 10 10 10h180q10 0 10 -10v-378q0 -159 -68.5 -226.5
t-209.5 -67.5zM270 192q33 0 43 31q5 15 5 44t-5 44q-10 31 -43 31t-43 -31q-5 -15 -5 -44t5 -44q10 -31 43 -31z" />
    <glyph glyph-name="h" unicode="h" horiz-adv-x="564" 
d="M514 0h-180q-10 0 -10 10v278q0 50 -41 50t-41 -50v-278q0 -10 -10 -10h-180q-10 0 -10 10v660q0 10 10 10h180q10 0 10 -10v-226h1q39 58 124 58q157 0 157 -183v-309q0 -10 -10 -10z" />
    <glyph glyph-name="i" unicode="i" horiz-adv-x="284" 
d="M232 536h-180q-10 0 -10 10v124q0 10 10 10h180q10 0 10 -10v-124q0 -10 -10 -10zM232 0h-180q-10 0 -10 10v470q0 10 10 10h180q10 0 10 -10v-470q0 -10 -10 -10z" />
    <glyph glyph-name="j" unicode="j" horiz-adv-x="284" 
d="M232 536h-180q-10 0 -10 10v124q0 10 10 10h180q10 0 10 -10v-124q0 -10 -10 -10zM21 -180h-43q-10 0 -10 10v140q0 10 10 10h10q31 0 42.5 10.5t11.5 43.5v446q0 10 10 10h180q10 0 10 -10v-447q0 -112 -55.5 -162.5t-165.5 -50.5z" />
    <glyph glyph-name="k" unicode="k" horiz-adv-x="551" 
d="M544 0h-191q-10 0 -14 10l-80 178l-19 -29v-149q0 -10 -10 -10h-178q-10 0 -10 10v660q0 10 10 10h178q10 0 10 -10v-313l85 123q7 10 19 10h181q5 0 6.5 -3.5t-1.5 -6.5l-136 -160l155 -310q6 -10 -5 -10z" />
    <glyph glyph-name="l" unicode="l" horiz-adv-x="329" 
d="M300 -6h-71q-102 0 -145.5 43t-43.5 147v486q0 10 10 10h180q10 0 10 -10v-462q0 -50 41 -50h19q10 0 10 -10v-144q0 -10 -10 -10z" />
    <glyph glyph-name="m" unicode="m" horiz-adv-x="846" 
d="M796 0h-180q-10 0 -10 10v278q0 50 -41 50t-41 -50v-278q0 -10 -10 -10h-180q-10 0 -10 10v278q0 50 -41 50t-41 -50v-278q0 -10 -10 -10h-180q-10 0 -10 10v470q0 10 10 10h180q10 0 10 -10v-36h1q39 58 124 58q89 0 127 -58h1q49 58 145 58q166 0 166 -183v-309
q0 -10 -10 -10z" />
    <glyph glyph-name="n" unicode="n" horiz-adv-x="564" 
d="M514 0h-180q-10 0 -10 10v278q0 50 -41 50t-41 -50v-278q0 -10 -10 -10h-180q-10 0 -10 10v470q0 10 10 10h180q10 0 10 -10v-36h1q39 58 124 58q157 0 157 -183v-309q0 -10 -10 -10z" />
    <glyph glyph-name="o" unicode="o" horiz-adv-x="546" 
d="M273 -12q-87 0 -149.5 37t-85.5 109q-15 45 -15 111t15 111q23 72 85.5 109t149.5 37t149.5 -37t85.5 -109q15 -45 15 -111t-15 -111q-23 -72 -85.5 -109t-149.5 -37zM273 148q33 0 42 28q6 19 6 69q0 49 -6 69q-9 28 -42 28t-42 -28q-6 -20 -6 -69t6 -69q9 -28 42 -28z
" />
    <glyph glyph-name="p" unicode="p" horiz-adv-x="563" 
d="M232 -180h-180q-10 0 -10 10v650q0 10 10 10h180q10 0 10 -10v-36h1q35 58 123 58q120 0 157 -117q17 -52 17 -140t-17 -140q-37 -117 -157 -117q-88 0 -123 58h-1v-216q0 -10 -10 -10zM290 148q33 0 42 28q6 19 6 69q0 49 -6 69q-9 28 -42 28t-42 -28q-6 -20 -6 -69
t6 -69q9 -28 42 -28z" />
    <glyph glyph-name="q" unicode="q" horiz-adv-x="563" 
d="M511 -180h-180q-10 0 -10 10v216h-1q-35 -58 -123 -58q-120 0 -157 117q-17 52 -17 140t17 140q37 117 157 117q88 0 123 -58h1v36q0 10 10 10h180q10 0 10 -10v-650q0 -10 -10 -10zM273 148q33 0 42 28q6 19 6 69q0 49 -6 69q-9 28 -42 28t-42 -28q-6 -20 -6 -69t6 -69
q9 -28 42 -28z" />
    <glyph glyph-name="r" unicode="r" horiz-adv-x="431" 
d="M232 0h-180q-10 0 -10 10v470q0 10 10 10h180q10 0 10 -10v-44h1q31 66 127 66q29 0 46 -5q9 -2 6 -13l-58 -185q-5 -6 -14 -1q-42 24 -71 17q-37 -9 -37 -64v-241q0 -10 -10 -10z" />
    <glyph glyph-name="s" unicode="s" horiz-adv-x="520" 
d="M257 -12q-156 0 -247 74q-7 7 -1 14l79 100q6 6 14 2q88 -50 168 -50q47 0 47 22q0 8 -9.5 12t-40.5 8l-56 6q-86 9 -133 49.5t-47 111.5q0 75 60 120t165 45q142 0 226 -62q8 -6 1 -15l-70 -93q-6 -8 -15 -3q-67 37 -142 37q-40 0 -40 -19q0 -7 8 -11t35 -7l56 -6
q102 -11 145.5 -52.5t41.5 -109.5q-2 -79 -67 -126t-178 -47z" />
    <glyph glyph-name="t" unicode="t" horiz-adv-x="352" 
d="M322 -6h-61q-111 0 -157 47.5t-46 163.5v139q0 6 -6 6h-26q-10 0 -10 10v120q0 10 10 10h26q6 0 6 6v124q0 10 10 10h178q10 0 10 -10v-124q0 -6 6 -6h60q10 0 10 -10v-120q0 -10 -10 -10h-60q-6 0 -6 -6v-131q0 -32 9.5 -43.5t36.5 -11.5h20q10 0 10 -10v-144
q0 -10 -10 -10z" />
    <glyph glyph-name="u" unicode="u" horiz-adv-x="562" 
d="M510 0h-180q-10 0 -10 10v36h-1q-39 -58 -124 -58q-156 0 -156 183v309q0 10 10 10h180q10 0 10 -10v-278q0 -50 41 -50q40 0 40 50v278q0 10 10 10h180q10 0 10 -10v-470q0 -10 -10 -10z" />
    <glyph glyph-name="v" unicode="v" horiz-adv-x="559" 
d="M366 0h-173q-9 0 -12 10l-177 470q-3 10 8 10h186q12 0 15 -10l68 -229h2l64 229q3 10 15 10h185q11 0 8 -10l-177 -470q-3 -10 -12 -10z" />
    <glyph glyph-name="w" unicode="w" horiz-adv-x="784" 
d="M605 0h-135q-9 0 -12 10l-64 215h-2l-66 -215q-3 -10 -12 -10h-135q-9 0 -12 10l-161 469q-4 11 8 11h179q12 0 15 -10l52 -220h2l64 220q3 10 14 10h107q11 0 14 -10l65 -220h2l48 220q3 10 15 10h179q12 0 8 -11l-161 -469q-3 -10 -12 -10z" />
    <glyph glyph-name="x" unicode="x" horiz-adv-x="557" 
d="M544 0h-193q-10 0 -15 8l-58 97h-1l-58 -97q-5 -8 -15 -8h-192q-11 0 -5 10l164 244l-151 226q-6 10 6 10h193q10 0 15 -8l45 -77h1l46 77q5 8 15 8h190q12 0 6 -10l-151 -226l164 -244q2 -4 0 -7t-6 -3z" />
    <glyph glyph-name="y" unicode="y" horiz-adv-x="559" 
d="M140 -180h-41q-10 0 -10 10v140q0 10 10 10h30q42 0 54 32l9 25l-188 443q-4 10 7 10h189q10 0 13 -10l70 -201h2l64 201q3 10 13 10h186q11 0 7 -10l-229 -551q-26 -63 -67 -86t-119 -23z" />
    <glyph glyph-name="z" unicode="z" horiz-adv-x="499" 
d="M459 0h-417q-10 0 -10 10v129q0 5 3 10l199 184v3h-181q-10 0 -10 10v134q0 10 10 10h406q10 0 10 -10v-134q0 -6 -3 -10l-198 -179v-3h191q10 0 10 -10v-134q0 -10 -10 -10z" />
    <glyph glyph-name="braceleft" unicode="{" horiz-adv-x="378" 
d="M344 -84h-84q-140 0 -140 130v120q0 90 -70 90q-10 0 -10 10v126q0 10 10 10q36 0 53 21.5t17 67.5v119q0 130 140 130h84q10 0 10 -10v-126q0 -10 -10 -10h-20q-42 0 -42 -46v-86q0 -56 -16.5 -86t-55.5 -46v-2q39 -16 55.5 -46.5t16.5 -86.5v-87q0 -46 42 -46h20
q10 0 10 -10v-126q0 -10 -10 -10z" />
    <glyph glyph-name="bar" unicode="|" horiz-adv-x="336" 
d="M246 -84h-156q-10 0 -10 10v804q0 10 10 10h156q10 0 10 -10v-804q0 -10 -10 -10z" />
    <glyph glyph-name="braceright" unicode="}" horiz-adv-x="378" 
d="M118 -84h-84q-10 0 -10 10v126q0 10 10 10h20q42 0 42 46v87q0 56 16.5 86.5t55.5 46.5v2q-39 16 -55.5 46t-16.5 86v86q0 46 -42 46h-20q-10 0 -10 10v126q0 10 10 10h84q140 0 140 -130v-119q0 -46 17 -67.5t53 -21.5q10 0 10 -10v-126q0 -10 -10 -10q-70 0 -70 -90
v-120q0 -130 -140 -130z" />
    <glyph glyph-name="asciitilde" unicode="~" 
d="M376 172q-52 0 -100 31q-39 25 -62 25q-32 0 -58 -44q-5 -9 -14 -4l-98 63q-8 5 -4 14q24 53 64.5 86.5t89.5 33.5q52 0 100 -31q39 -25 62 -25q32 0 58 44q5 9 14 4l98 -63q8 -5 4 -14q-24 -53 -64.5 -86.5t-89.5 -33.5z" />
    <glyph glyph-name="uni00A0" unicode="&#xa0;" horiz-adv-x="240" 
 />
    <glyph glyph-name="exclamdown" unicode="&#xa1;" horiz-adv-x="320" 
d="M226 268q10 0 10 -10l24 -438q0 -10 -10 -10h-180q-10 0 -10 10l24 438q0 10 10 10h132zM250 480v-140q0 -10 -10 -10h-160q-10 0 -10 10v140q0 10 10 10h160q10 0 10 -10z" />
    <glyph glyph-name="cent" unicode="&#xa2;" 
d="M257 245q0 -49 6 -67q10 -30 45 -30q38 0 54 44q4 11 17 4l141 -60q8 -4 5 -13q-17 -48 -62 -83t-107 -46v-79q0 -10 -10 -10h-106q-10 0 -10 10v81q-124 26 -161 140q-14 42 -14 109t14 109q37 113 161 140v81q0 10 10 10h106q10 0 10 -10v-79q62 -12 107 -47t62 -82
q3 -9 -5 -13l-141 -60q-13 -7 -17 4q-16 44 -54 44q-35 0 -45 -30q-6 -18 -6 -67z" />
    <glyph glyph-name="sterling" unicode="&#xa3;" 
d="M512 0h-453q-10 0 -10 10v139q0 8 6 14q35 30 35 73v14q0 6 -6 6h-25q-10 0 -10 10v115q0 10 10 10h25q6 0 6 6v86q0 100 59.5 154.5t163.5 54.5q90 0 145.5 -45.5t63.5 -117.5q2 -10 -8 -12l-152 -30q-10 -2 -12 8q-7 37 -33 37q-29 0 -29 -42v-93q0 -6 6 -6h129
q10 0 10 -10v-115q0 -10 -10 -10h-129q-6 0 -6 -6v-9q0 -53 -33 -76v-2h257q10 0 10 -10v-143q0 -10 -10 -10z" />
    <glyph glyph-name="currency" unicode="&#xa4;" 
d="M544 105l-101 -102q-7 -7 -14 0l-63 62q-40 -16 -81 -16q-42 0 -82 16l-61 -61q-7 -7 -14 0l-101 102q-7 7 0 14l62 62q-15 36 -15 78t15 78l-63 63q-7 7 0 14l101 102q7 7 14 0l62 -63q39 17 82 17q42 0 81 -17l63 63q7 7 14 0l101 -102q7 -7 0 -14l-63 -63
q15 -40 15 -78t-15 -78l63 -63q7 -7 0 -14zM285 187q31 0 51.5 21t20.5 52t-20.5 52t-51.5 21t-51.5 -21t-20.5 -52t20.5 -52t51.5 -21z" />
    <glyph glyph-name="yen" unicode="&#xa5;" 
d="M375 0h-180q-10 0 -10 10v108q0 6 -6 6h-106q-10 0 -10 10v63q0 10 10 10h106q6 0 6 6v23q0 6 -6 6h-106q-10 0 -10 10v63q0 10 10 10h81v2l-142 343q-4 10 7 10h189q12 0 16 -10l62 -213h3l60 213q4 10 16 10h186q11 0 7 -10l-142 -343v-2h81q10 0 10 -10v-63
q0 -10 -10 -10h-106q-6 0 -6 -6v-23q0 -6 6 -6h106q10 0 10 -10v-63q0 -10 -10 -10h-106q-6 0 -6 -6v-108q0 -10 -10 -10z" />
    <glyph glyph-name="brokenbar" unicode="&#xa6;" horiz-adv-x="336" 
d="M246 388h-156q-10 0 -10 10v332q0 10 10 10h156q10 0 10 -10v-332q0 -10 -10 -10zM246 -84h-156q-10 0 -10 10v336q0 10 10 10h156q10 0 10 -10v-336q0 -10 -10 -10z" />
    <glyph glyph-name="section" unicode="&#xa7;" horiz-adv-x="500" 
d="M246 -196q-92 0 -148.5 45t-61.5 113q0 11 8 12l148 20q10 2 11 -8q5 -37 40 -37q38 0 38 33q0 21 -17.5 35.5t-67.5 29.5q-88 26 -129 73.5t-41 127.5q0 85 77 144v2q-57 47 -57 129q0 73 57 123t150 50q91 0 146 -46.5t62 -114.5q2 -11 -8 -12l-145 -19q-9 -2 -11 8
q-6 39 -40 39q-37 0 -37 -32q0 -37 84 -62q85 -26 127.5 -73.5t42.5 -127.5q0 -87 -77 -144v-2q58 -47 58 -133q0 -76 -56.5 -124.5t-152.5 -48.5zM250 196q23 0 36.5 15.5t13.5 40.5t-13.5 40.5t-36.5 15.5t-36.5 -15.5t-13.5 -40.5t13.5 -40.5t36.5 -15.5z" />
    <glyph glyph-name="dieresis" unicode="&#xa8;" horiz-adv-x="530" 
d="M433 536h-126q-10 0 -10 10v124q0 10 10 10h126q10 0 10 -10v-124q0 -10 -10 -10zM223 536h-126q-10 0 -10 10v124q0 10 10 10h126q10 0 10 -10v-124q0 -10 -10 -10z" />
    <glyph glyph-name="copyright" unicode="&#xa9;" horiz-adv-x="774" 
d="M387 -14q-152 0 -252.5 100t-100.5 253t100.5 253t252.5 100t252.5 -100t100.5 -253t-100.5 -253t-252.5 -100zM387 74q117 0 190.5 74.5t73.5 190.5t-73.5 190.5t-190.5 74.5t-190.5 -74.5t-73.5 -190.5t73.5 -190.5t190.5 -74.5zM392 146q-65 0 -113.5 29.5t-66.5 85.5
q-10 29 -10 80t10 80q18 56 66.5 85.5t113.5 29.5q64 0 111.5 -28.5t63.5 -71.5q4 -10 -6 -13l-109 -45q-9 -5 -13 5q-12 30 -41 30q-26 0 -34 -23q-4 -12 -4 -49t4 -49q8 -23 34 -23q29 0 41 30q4 10 13 5l109 -45q10 -3 6 -13q-16 -43 -63.5 -71.5t-111.5 -28.5z" />
    <glyph glyph-name="ordfeminine" unicode="&#xaa;" horiz-adv-x="383" 
d="M329 392h-101q-10 0 -10 10v14h-1q-24 -30 -79 -30q-44 0 -73 22t-29 67t35.5 70.5t97.5 25.5h43q6 0 6 6v4q0 22 -53 22q-39 0 -69 -19q-9 -6 -14 4l-33 56q-5 9 4 14q50 31 126 31q83 0 121.5 -26t38.5 -84v-177q0 -10 -10 -10zM178 464q40 0 40 23v11q0 6 -6 6h-34
q-27 0 -27 -20t27 -20z" />
    <glyph glyph-name="guillemotleft" unicode="&#xab;" horiz-adv-x="612" 
d="M550 6l-255 251q-7 7 0 14l255 251q3 3 6.5 1.5t3.5 -5.5v-162q0 -8 -10 -18l-71 -70q-4 -4 0 -8l71 -70q10 -10 10 -18v-162q0 -4 -3.5 -5.5t-6.5 1.5zM270 6l-255 251q-7 7 0 14l255 251q3 3 6.5 1.5t3.5 -5.5v-162q0 -8 -10 -18l-71 -70q-4 -4 0 -8l71 -70
q10 -10 10 -18v-162q0 -4 -3.5 -5.5t-6.5 1.5z" />
    <glyph glyph-name="logicalnot" unicode="&#xac;" 
d="M518 66h-148q-10 0 -10 10v112q0 6 -6 6h-302q-10 0 -10 10v144q0 10 10 10h466q10 0 10 -10v-272q0 -10 -10 -10z" />
    <glyph glyph-name="uni00AD" unicode="&#xad;" horiz-adv-x="408" 
d="M362 179h-316q-10 0 -10 10v152q0 10 10 10h316q10 0 10 -10v-152q0 -10 -10 -10z" />
    <glyph glyph-name="registered" unicode="&#xae;" horiz-adv-x="431" 
d="M216 301q-83 0 -139 55t-56 137t56 136.5t139 54.5t138.5 -54.5t55.5 -136.5t-55.5 -137t-138.5 -55zM216 343q65 0 106 41.5t41 108.5q0 66 -41 107.5t-106 41.5t-106.5 -41.5t-41.5 -107.5q0 -67 41.5 -108.5t106.5 -41.5zM193 388h-59q-7 0 -7 7v198q0 7 7 7h99
q41 0 63 -19.5t22 -52.5q0 -44 -35 -62l33 -71q2 -2 0.5 -4.5t-5.5 -2.5h-64q-7 0 -10 7l-26 60h-7q-4 0 -4 -4v-56q0 -7 -7 -7zM223 509q21 0 21 18t-21 18h-19q-4 0 -4 -4v-28q0 -4 4 -4h19z" />
    <glyph glyph-name="macron" unicode="&#xaf;" horiz-adv-x="530" 
d="M427 548h-324q-10 0 -10 10v108q0 10 10 10h324q10 0 10 -10v-108q0 -10 -10 -10z" />
    <glyph glyph-name="degree" unicode="&#xb0;" horiz-adv-x="370" 
d="M185 368q-71 0 -118 47t-47 117t47 117t118 47t118 -47t47 -117t-47 -117t-118 -47zM185 483q21 0 34.5 13.5t13.5 35.5t-13.5 35.5t-34.5 13.5t-34.5 -13.5t-13.5 -35.5t13.5 -35.5t34.5 -13.5z" />
    <glyph glyph-name="plusminus" unicode="&#xb1;" 
d="M359 200h-148q-10 0 -10 10v142q0 6 -6 6h-143q-10 0 -10 10v144q0 10 10 10h143q6 0 6 6v142q0 10 10 10h148q10 0 10 -10v-142q0 -6 6 -6h143q10 0 10 -10v-144q0 -10 -10 -10h-143q-6 0 -6 -6v-142q0 -10 -10 -10zM518 0h-466q-10 0 -10 10v144q0 10 10 10h466
q10 0 10 -10v-144q0 -10 -10 -10z" />
    <glyph glyph-name="twosuperior" unicode="&#xb2;" horiz-adv-x="376" 
d="M336 430h-296q-10 0 -10 10v87q0 13 10 21l147 125q21 18 21 38q0 24 -24 24q-27 0 -28 -32q0 -12 -11 -10l-106 12q-9 1 -9 11q2 57 46 92t118 35q65 0 108.5 -33.5t43.5 -96.5t-60 -111l-70 -56v-1h120q10 0 10 -10v-95q0 -10 -10 -10z" />
    <glyph glyph-name="threesuperior" unicode="&#xb3;" horiz-adv-x="376" 
d="M189 423q-68 0 -110.5 29.5t-50.5 80.5q-2 9 8 11l105 13q10 2 14 -7q8 -19 29 -19q27 0 27 26q0 27 -35 27h-10q-10 0 -10 10v84q0 10 10 10h12q27 0 27 23q0 24 -24 24q-21 0 -26 -19q-3 -10 -12 -9l-107 14q-10 2 -8 11q9 50 50.5 80.5t109.5 30.5q73 0 114 -32
t41 -82t-48 -80v-2q54 -26 54 -95q0 -58 -44 -93.5t-116 -35.5z" />
    <glyph glyph-name="acute" unicode="&#xb4;" horiz-adv-x="530" 
d="M279 540h-143q-10 0 -5 10l83 144q7 10 17 10h165q4 0 5.5 -3.5t-0.5 -6.5l-106 -144q-7 -10 -16 -10z" />
    <glyph glyph-name="mu" unicode="&#xb5;" horiz-adv-x="565" 
d="M513 0h-180q-10 0 -10 10v36h-1q-22 -34 -59 -45q-7 -2 -21 -4v-167q0 -10 -10 -10h-180q-10 0 -10 10v650q0 10 10 10h180q10 0 10 -10v-278q0 -50 41 -50q40 0 40 50v278q0 10 10 10h180q10 0 10 -10v-470q0 -10 -10 -10z" />
    <glyph glyph-name="mu" unicode="&#x3bc;" horiz-adv-x="565" 
d="M513 0h-180q-10 0 -10 10v36h-1q-22 -34 -59 -45q-7 -2 -21 -4v-167q0 -10 -10 -10h-180q-10 0 -10 10v650q0 10 10 10h180q10 0 10 -10v-278q0 -50 41 -50q40 0 40 50v278q0 10 10 10h180q10 0 10 -10v-470q0 -10 -10 -10z" />
    <glyph glyph-name="paragraph" unicode="&#xb6;" horiz-adv-x="702" 
d="M636 -180h-134q-10 0 -10 10v719q0 6 -6 6h-68q-6 0 -6 -6v-719q0 -10 -10 -10h-134q-10 0 -10 10v360q-96 7 -159 73.5t-63 171.5q0 110 70.5 177.5t188.5 67.5h341q10 0 10 -10v-840q0 -10 -10 -10z" />
    <glyph glyph-name="periodcentered" unicode="&#xb7;" horiz-adv-x="268" 
d="M214 175h-160q-10 0 -10 10v160q0 10 10 10h160q10 0 10 -10v-160q0 -10 -10 -10z" />
    <glyph glyph-name="cedilla" unicode="&#xb8;" horiz-adv-x="530" 
d="M308 -172h-138q-10 0 -7 10l64 162q4 10 16 10h120q10 0 7 -10l-47 -162q-3 -10 -15 -10z" />
    <glyph glyph-name="onesuperior" unicode="&#xb9;" horiz-adv-x="376" 
d="M272 430h-123q-10 0 -10 10v256h-2l-67 -37q-4 -2 -7 -0.5t-3 6.5v112q0 10 9 15l63 38q9 6 17 6h123q10 0 10 -10v-386q0 -10 -10 -10z" />
    <glyph glyph-name="ordmasculine" unicode="&#xba;" horiz-adv-x="406" 
d="M203 383q-61 0 -101 24t-54 67q-8 26 -8 62t8 62q14 43 54 67t101 24t101 -24t54 -67q8 -26 8 -62t-8 -62q-14 -43 -54 -67t-101 -24zM203 479q24 0 31 21q3 8 3 36t-3 36q-7 21 -31 21t-31 -21q-3 -8 -3 -36t3 -36q7 -21 31 -21z" />
    <glyph glyph-name="guillemotright" unicode="&#xbb;" horiz-adv-x="612" 
d="M342 6q-3 -3 -6.5 -1.5t-3.5 5.5v162q0 8 10 18l71 70q4 4 0 8l-71 70q-10 10 -10 18v162q0 4 3.5 5.5t6.5 -1.5l255 -251q7 -7 0 -14zM62 6q-3 -3 -6.5 -1.5t-3.5 5.5v162q0 8 10 18l71 70q4 4 0 8l-71 70q-10 10 -10 18v162q0 4 3.5 5.5t6.5 -1.5l255 -251q7 -7 0 -14z
" />
    <glyph glyph-name="onequarter" unicode="&#xbc;" horiz-adv-x="948" 
d="M316 -12h-122q-10 0 -4 10l395 684q6 10 16 10h122q10 0 4 -10l-395 -684q-6 -10 -16 -10zM292 274h-123q-10 0 -10 10v256h-2l-67 -37q-4 -2 -7 -0.5t-3 6.5v112q0 10 9 15l63 38q9 6 17 6h123q10 0 10 -10v-386q0 -10 -10 -10zM830 0h-109q-10 0 -10 10v32q0 6 -6 6
h-169q-10 0 -10 10v102q0 8 5 20l97 216q4 10 15 10h127q11 0 7 -10l-104 -230v-3h32q6 0 6 6v42q0 10 10 10h109q10 0 10 -10v-42q0 -6 5 -6h13q10 0 10 -10v-95q0 -10 -10 -10h-12q-6 0 -6 -6v-32q0 -10 -10 -10z" />
    <glyph glyph-name="onehalf" unicode="&#xbd;" horiz-adv-x="966" 
d="M316 -12h-122q-10 0 -4 10l395 684q6 10 16 10h122q10 0 4 -10l-395 -684q-6 -10 -16 -10zM292 274h-123q-10 0 -10 10v256h-2l-67 -37q-4 -2 -7 -0.5t-3 6.5v112q0 10 9 15l63 38q9 6 17 6h123q10 0 10 -10v-386q0 -10 -10 -10zM876 0h-296q-10 0 -10 10v87q0 14 10 21
l147 125q21 18 21 38q0 24 -24 24q-27 0 -28 -32q0 -12 -11 -10l-106 12q-9 1 -9 11q2 57 46 92t118 35q65 0 108.5 -33.5t43.5 -96.5t-60 -111l-70 -56v-1h120q10 0 10 -10v-95q0 -10 -10 -10z" />
    <glyph glyph-name="threequarters" unicode="&#xbe;" horiz-adv-x="1003" 
d="M372 -12h-122q-10 0 -4 10l395 684q6 10 16 10h122q10 0 4 -10l-395 -684q-6 -10 -16 -10zM242 267q-68 0 -110.5 29.5t-50.5 80.5q-2 9 8 11l105 13q10 2 14 -7q8 -19 29 -19q27 0 27 26q0 27 -35 27h-10q-10 0 -10 10v84q0 10 10 10h12q27 0 27 23q0 24 -24 24
q-21 0 -26 -19q-3 -10 -12 -9l-107 14q-10 2 -8 11q9 50 50.5 80.5t109.5 30.5q73 0 114 -32t41 -82t-48 -80v-2q54 -26 54 -95q0 -58 -44 -93.5t-116 -35.5zM885 0h-109q-10 0 -10 10v32q0 6 -6 6h-169q-10 0 -10 10v102q0 8 5 20l97 216q4 10 15 10h127q11 0 7 -10
l-104 -230v-3h32q6 0 6 6v42q0 10 10 10h109q10 0 10 -10v-42q0 -6 5 -6h13q10 0 10 -10v-95q0 -10 -10 -10h-12q-6 0 -6 -6v-32q0 -10 -10 -10z" />
    <glyph glyph-name="questiondown" unicode="&#xbf;" horiz-adv-x="494" 
d="M335 268q10 0 10 -10v-40q0 -50 -34 -84l-48 -48q-29 -28 -39.5 -45t-10.5 -34q0 -20 12 -32.5t32 -12.5q42 0 53 49q2 11 11 9l152 -21q10 -2 8 -11q-10 -85 -71 -137.5t-157 -52.5q-103 0 -167 57.5t-64 138.5q0 49 20 84t64 79l37 36q22 22 22 55v10q0 10 10 10h160z
M344 480v-140q0 -10 -10 -10h-160q-10 0 -10 10v140q0 10 10 10h160q10 0 10 -10z" />
    <glyph glyph-name="Agrave" unicode="&#xc0;" horiz-adv-x="708" 
d="M6 10l236 660q3 10 13 10h204q10 0 13 -10l230 -660q3 -10 -7 -10h-203q-10 0 -13 10l-25 89h-200l-25 -89q-3 -10 -13 -10h-203q-10 0 -7 10zM302 270h105l-50 181h-3zM436 738h-141q-11 0 -21 10l-134 132q-3 4 -1.5 7t6.5 3h167q10 0 18 -10l110 -132q3 -4 1.5 -7
t-5.5 -3z" />
    <glyph glyph-name="Aacute" unicode="&#xc1;" horiz-adv-x="708" 
d="M6 10l236 660q3 10 13 10h204q10 0 13 -10l230 -660q3 -10 -7 -10h-203q-10 0 -13 10l-25 89h-200l-25 -89q-3 -10 -13 -10h-203q-10 0 -7 10zM302 270h105l-50 181h-3zM419 738h-141q-4 0 -5.5 3t1.5 7l110 132q8 10 18 10h167q5 0 6.5 -3t-1.5 -7l-134 -132
q-10 -10 -21 -10z" />
    <glyph glyph-name="Acircumflex" unicode="&#xc2;" horiz-adv-x="708" 
d="M6 10l236 660q3 10 13 10h204q10 0 13 -10l230 -660q3 -10 -7 -10h-203q-10 0 -13 10l-25 89h-200l-25 -89q-3 -10 -13 -10h-203q-10 0 -7 10zM302 270h105l-50 181h-3zM536 734h-113q-14 0 -24 10l-44 44h-2l-44 -44q-10 -10 -24 -10h-113q-5 0 -6.5 3t1.5 7l114 144
q7 10 19 10h108q12 0 19 -10l114 -144q3 -4 1.5 -7t-6.5 -3z" />
    <glyph glyph-name="Atilde" unicode="&#xc3;" horiz-adv-x="708" 
d="M6 10l236 660q3 10 13 10h204q10 0 13 -10l230 -660q3 -10 -7 -10h-203q-10 0 -13 10l-25 89h-200l-25 -89q-3 -10 -13 -10h-203q-10 0 -7 10zM302 270h105l-50 181h-3zM429 730q-40 0 -94 26q-36 17 -61 17q-38 0 -81 -33q-11 -7 -11 4v92q0 14 10 24q41 39 86 39
q40 0 94 -26q36 -17 61 -17q37 0 81 33q11 7 11 -4v-92q0 -14 -10 -24q-41 -39 -86 -39z" />
    <glyph glyph-name="Adieresis" unicode="&#xc4;" horiz-adv-x="708" 
d="M6 10l236 660q3 10 13 10h204q10 0 13 -10l230 -660q3 -10 -7 -10h-203q-10 0 -13 10l-25 89h-200l-25 -89q-3 -10 -13 -10h-203q-10 0 -7 10zM302 270h105l-50 181h-3zM522 739h-126q-10 0 -10 10v124q0 10 10 10h126q10 0 10 -10v-124q0 -10 -10 -10zM312 739h-126
q-10 0 -10 10v124q0 10 10 10h126q10 0 10 -10v-124q0 -10 -10 -10z" />
    <glyph glyph-name="Aring" unicode="&#xc5;" horiz-adv-x="708" 
d="M6 10l236 660q3 10 13 10h204q10 0 13 -10l230 -660q3 -10 -7 -10h-203q-10 0 -13 10l-25 89h-200l-25 -89q-3 -10 -13 -10h-203q-10 0 -7 10zM302 270h105l-50 181h-3zM354 694q-53 0 -88.5 34.5t-35.5 87.5t35.5 87.5t88.5 34.5t88.5 -34.5t35.5 -87.5t-35.5 -87.5
t-88.5 -34.5zM354 775q17 0 28.5 11.5t11.5 29.5t-11.5 29.5t-28.5 11.5t-28.5 -11.5t-11.5 -29.5t11.5 -29.5t28.5 -11.5z" />
    <glyph glyph-name="AE" unicode="&#xc6;" horiz-adv-x="935" 
d="M895 0h-455q-10 0 -10 10v83q0 6 -6 6h-161l-35 -89q-4 -10 -14 -10h-201q-11 0 -6 10l286 660q5 10 14 10h588q10 0 10 -10v-154q0 -10 -10 -10h-251q-6 0 -6 -6v-66q0 -6 6 -6h201q10 0 10 -10v-150q0 -10 -10 -10h-201q-6 0 -6 -6v-72q0 -6 6 -6h251q10 0 10 -10v-154
q0 -10 -10 -10zM426 506l-94 -236h92q6 0 6 6v230h-4z" />
    <glyph glyph-name="Ccedilla" unicode="&#xc7;" horiz-adv-x="572" 
d="M319 -172h-138q-10 0 -7 10l61 156q-140 27 -184 162q-21 63 -21 184t21 184q27 83 92 125.5t160 42.5t160 -41.5t93 -118.5q4 -10 -5 -14l-161 -69q-11 -5 -15 7q-22 50 -67 50t-58 -41q-8 -26 -8 -125t8 -125q13 -41 58 -41t67 50q4 12 15 7l161 -69q9 -4 5 -14
q-45 -123 -176 -152l-46 -158q-2 -10 -15 -10z" />
    <glyph glyph-name="Egrave" unicode="&#xc8;" horiz-adv-x="549" 
d="M44 10v660q0 10 10 10h455q10 0 10 -10v-154q0 -10 -10 -10h-251q-6 0 -6 -6v-66q0 -6 6 -6h201q10 0 10 -10v-150q0 -10 -10 -10h-201q-6 0 -6 -6v-72q0 -6 6 -6h251q10 0 10 -10v-154q0 -10 -10 -10h-455q-10 0 -10 10zM372 738h-141q-11 0 -21 10l-134 132
q-3 4 -1.5 7t6.5 3h167q10 0 18 -10l110 -132q3 -4 1.5 -7t-5.5 -3z" />
    <glyph glyph-name="Eacute" unicode="&#xc9;" horiz-adv-x="549" 
d="M44 10v660q0 10 10 10h455q10 0 10 -10v-154q0 -10 -10 -10h-251q-6 0 -6 -6v-66q0 -6 6 -6h201q10 0 10 -10v-150q0 -10 -10 -10h-201q-6 0 -6 -6v-72q0 -6 6 -6h251q10 0 10 -10v-154q0 -10 -10 -10h-455q-10 0 -10 10zM313 738h-141q-4 0 -5.5 3t1.5 7l110 132
q8 10 18 10h167q5 0 6.5 -3t-1.5 -7l-134 -132q-10 -10 -21 -10z" />
    <glyph glyph-name="Ecircumflex" unicode="&#xca;" horiz-adv-x="549" 
d="M44 10v660q0 10 10 10h455q10 0 10 -10v-154q0 -10 -10 -10h-251q-6 0 -6 -6v-66q0 -6 6 -6h201q10 0 10 -10v-150q0 -10 -10 -10h-201q-6 0 -6 -6v-72q0 -6 6 -6h251q10 0 10 -10v-154q0 -10 -10 -10h-455q-10 0 -10 10zM465 734h-113q-14 0 -24 10l-44 44h-2l-44 -44
q-10 -10 -24 -10h-113q-5 0 -6.5 3t1.5 7l114 144q7 10 19 10h108q12 0 19 -10l114 -144q3 -4 1.5 -7t-6.5 -3z" />
    <glyph glyph-name="Edieresis" unicode="&#xcb;" horiz-adv-x="549" 
d="M44 10v660q0 10 10 10h455q10 0 10 -10v-154q0 -10 -10 -10h-251q-6 0 -6 -6v-66q0 -6 6 -6h201q10 0 10 -10v-150q0 -10 -10 -10h-201q-6 0 -6 -6v-72q0 -6 6 -6h251q10 0 10 -10v-154q0 -10 -10 -10h-455q-10 0 -10 10zM449 739h-126q-10 0 -10 10v124q0 10 10 10h126
q10 0 10 -10v-124q0 -10 -10 -10zM239 739h-126q-10 0 -10 10v124q0 10 10 10h126q10 0 10 -10v-124q0 -10 -10 -10z" />
    <glyph glyph-name="Igrave" unicode="&#xcc;" horiz-adv-x="298" 
d="M44 10v660q0 10 10 10h190q10 0 10 -10v-660q0 -10 -10 -10h-190q-10 0 -10 10zM233 738h-141q-11 0 -21 10l-134 132q-3 4 -1.5 7t6.5 3h167q10 0 18 -10l110 -132q3 -4 2 -7t-6 -3z" />
    <glyph glyph-name="Iacute" unicode="&#xcd;" horiz-adv-x="298" 
d="M44 10v660q0 10 10 10h190q10 0 10 -10v-660q0 -10 -10 -10h-190q-10 0 -10 10zM208 738h-141q-5 0 -6 3t2 7l110 132q8 10 18 10h167q5 0 6.5 -3t-1.5 -7l-134 -132q-10 -10 -21 -10z" />
    <glyph glyph-name="Icircumflex" unicode="&#xce;" horiz-adv-x="298" 
d="M44 10v660q0 10 10 10h190q10 0 10 -10v-660q0 -10 -10 -10h-190q-10 0 -10 10zM331 734h-113q-14 0 -24 10l-44 44h-2l-44 -44q-10 -10 -24 -10h-113q-5 0 -6.5 3t1.5 7l114 144q7 10 19 10h108q12 0 19 -10l114 -144q3 -4 1.5 -7t-6.5 -3z" />
    <glyph glyph-name="Idieresis" unicode="&#xcf;" horiz-adv-x="298" 
d="M44 10v660q0 10 10 10h190q10 0 10 -10v-660q0 -10 -10 -10h-190q-10 0 -10 10zM317 739h-126q-10 0 -10 10v124q0 10 10 10h126q10 0 10 -10v-124q0 -10 -10 -10zM107 739h-126q-10 0 -10 10v124q0 10 10 10h126q10 0 10 -10v-124q0 -10 -10 -10z" />
    <glyph glyph-name="Eth" unicode="&#xd0;" horiz-adv-x="635" 
d="M327 0h-273q-10 0 -10 10v259q0 6 -6 6h-26q-10 0 -10 10v117q0 10 10 10h26q6 0 6 6v252q0 10 10 10h273q200 0 252 -158q21 -64 21 -182t-21 -182q-52 -158 -252 -158zM284 186q42 0 64 11.5t31 40.5q9 27 9 102t-9 102q-9 29 -31 40.5t-64 11.5h-24q-6 0 -6 -6v-70
q0 -6 6 -6h54q10 0 10 -10v-117q0 -10 -10 -10h-54q-6 0 -6 -6v-77q0 -6 6 -6h24z" />
    <glyph glyph-name="Ntilde" unicode="&#xd1;" horiz-adv-x="650" 
d="M44 10v660q0 10 10 10h179q13 0 17 -10l162 -335h5v335q0 10 10 10h169q10 0 10 -10v-660q0 -10 -10 -10h-179q-13 0 -17 10l-161 335h-6v-335q0 -10 -10 -10h-169q-10 0 -10 10zM400 730q-40 0 -94 26q-36 17 -61 17q-37 0 -81 -33q-11 -7 -11 4v92q0 14 10 24
q41 39 86 39q40 0 94 -26q36 -17 61 -17q38 0 81 33q11 7 11 -4v-92q0 -14 -10 -24q-41 -39 -86 -39z" />
    <glyph glyph-name="Ograve" unicode="&#xd2;" horiz-adv-x="628" 
d="M314 -12q-95 0 -165.5 43t-97.5 126q-21 67 -21 183t21 183q27 83 97.5 126t165.5 43t165.5 -43t97.5 -126q21 -66 21 -183q0 -116 -21 -183q-27 -83 -97.5 -126t-165.5 -43zM314 174q50 0 64 43q8 25 8 123t-8 123q-14 43 -64 43t-64 -43q-8 -25 -8 -123t8 -123
q14 -43 64 -43zM397 738h-141q-11 0 -21 10l-134 132q-3 4 -1.5 7t6.5 3h167q10 0 18 -10l110 -132q3 -4 2 -7t-6 -3z" />
    <glyph glyph-name="Oacute" unicode="&#xd3;" horiz-adv-x="628" 
d="M314 -12q-95 0 -165.5 43t-97.5 126q-21 67 -21 183t21 183q27 83 97.5 126t165.5 43t165.5 -43t97.5 -126q21 -66 21 -183q0 -116 -21 -183q-27 -83 -97.5 -126t-165.5 -43zM314 174q50 0 64 43q8 25 8 123t-8 123q-14 43 -64 43t-64 -43q-8 -25 -8 -123t8 -123
q14 -43 64 -43zM372 738h-141q-5 0 -6 3t2 7l110 132q8 10 18 10h167q5 0 6.5 -3t-1.5 -7l-134 -132q-10 -10 -21 -10z" />
    <glyph glyph-name="Ocircumflex" unicode="&#xd4;" horiz-adv-x="628" 
d="M314 -12q-95 0 -165.5 43t-97.5 126q-21 67 -21 183t21 183q27 83 97.5 126t165.5 43t165.5 -43t97.5 -126q21 -66 21 -183q0 -116 -21 -183q-27 -83 -97.5 -126t-165.5 -43zM314 174q50 0 64 43q8 25 8 123t-8 123q-14 43 -64 43t-64 -43q-8 -25 -8 -123t8 -123
q14 -43 64 -43zM496 734h-113q-14 0 -24 10l-44 44h-2l-44 -44q-10 -10 -24 -10h-113q-5 0 -6.5 3t1.5 7l114 144q7 10 19 10h108q12 0 19 -10l114 -144q3 -4 1.5 -7t-6.5 -3z" />
    <glyph glyph-name="Otilde" unicode="&#xd5;" horiz-adv-x="628" 
d="M314 -12q-95 0 -165.5 43t-97.5 126q-21 67 -21 183t21 183q27 83 97.5 126t165.5 43t165.5 -43t97.5 -126q21 -66 21 -183q0 -116 -21 -183q-27 -83 -97.5 -126t-165.5 -43zM314 174q50 0 64 43q8 25 8 123t-8 123q-14 43 -64 43t-64 -43q-8 -25 -8 -123t8 -123
q14 -43 64 -43zM390 730q-40 0 -94 26q-36 17 -61 17q-38 0 -81 -33q-11 -7 -11 4v92q0 14 10 24q41 39 86 39q40 0 94 -26q36 -17 61 -17q38 0 81 33q11 7 11 -4v-92q0 -14 -10 -24q-41 -39 -86 -39z" />
    <glyph glyph-name="Odieresis" unicode="&#xd6;" horiz-adv-x="628" 
d="M314 -12q-95 0 -165.5 43t-97.5 126q-21 67 -21 183t21 183q27 83 97.5 126t165.5 43t165.5 -43t97.5 -126q21 -66 21 -183q0 -116 -21 -183q-27 -83 -97.5 -126t-165.5 -43zM314 174q50 0 64 43q8 25 8 123t-8 123q-14 43 -64 43t-64 -43q-8 -25 -8 -123t8 -123
q14 -43 64 -43zM482 739h-126q-10 0 -10 10v124q0 10 10 10h126q10 0 10 -10v-124q0 -10 -10 -10zM272 739h-126q-10 0 -10 10v124q0 10 10 10h126q10 0 10 -10v-124q0 -10 -10 -10z" />
    <glyph glyph-name="multiply" unicode="&#xd7;" 
d="M517 141l-97 -97q-7 -9 -14 0l-118 117q-4 4 -8 0l-118 -117q-7 -9 -14 0l-96 96q-7 7 0 14l117 117q5 5 0 9l-117 117q-7 7 0 14l98 98q7 7 14 0l117 -118q5 -3 9 0l117 118q7 7 14 0l96 -96q8 -8 0 -14l-117 -118q-5 -5 0 -8l117 -118q9 -7 0 -14z" />
    <glyph glyph-name="Oslash" unicode="&#xd8;" horiz-adv-x="628" 
d="M314 -12q-80 0 -143 30l-25 -38q-6 -10 -17 -10h-124q-11 0 -5 10l79 118q-18 26 -28 59q-21 67 -21 183t21 183q27 83 97.5 126t165.5 43q80 0 142 -30l26 38q6 10 17 10h124q11 0 5 -10l-79 -119q18 -28 28 -58q21 -66 21 -183q0 -116 -21 -183q-27 -83 -97.5 -126
t-165.5 -43zM314 174q50 0 64 43q8 25 8 123t-8 123q-14 43 -64 43t-64 -43q-8 -25 -8 -123t8 -123q14 -43 64 -43z" />
    <glyph glyph-name="Ugrave" unicode="&#xd9;" horiz-adv-x="650" 
d="M326 -12q-133 0 -208 73t-75 216v393q0 10 10 10h190q10 0 10 -10v-411q0 -85 72 -85t72 85v411q0 10 10 10h190q10 0 10 -10v-393q0 -143 -74.5 -216t-206.5 -73zM407 738h-141q-11 0 -21 10l-134 132q-3 4 -1.5 7t6.5 3h167q10 0 18 -10l110 -132q3 -4 2 -7t-6 -3z" />
    <glyph glyph-name="Uacute" unicode="&#xda;" horiz-adv-x="650" 
d="M326 -12q-133 0 -208 73t-75 216v393q0 10 10 10h190q10 0 10 -10v-411q0 -85 72 -85t72 85v411q0 10 10 10h190q10 0 10 -10v-393q0 -143 -74.5 -216t-206.5 -73zM388 738h-141q-5 0 -6 3t2 7l110 132q8 10 18 10h167q5 0 6.5 -3t-1.5 -7l-134 -132q-10 -10 -21 -10z
" />
    <glyph glyph-name="Ucircumflex" unicode="&#xdb;" horiz-adv-x="650" 
d="M326 -12q-133 0 -208 73t-75 216v393q0 10 10 10h190q10 0 10 -10v-411q0 -85 72 -85t72 85v411q0 10 10 10h190q10 0 10 -10v-393q0 -143 -74.5 -216t-206.5 -73zM507 734h-113q-14 0 -24 10l-44 44h-2l-44 -44q-10 -10 -24 -10h-113q-5 0 -6.5 3t1.5 7l114 144
q7 10 19 10h108q12 0 19 -10l114 -144q3 -4 1.5 -7t-6.5 -3z" />
    <glyph glyph-name="Udieresis" unicode="&#xdc;" horiz-adv-x="650" 
d="M326 -12q-133 0 -208 73t-75 216v393q0 10 10 10h190q10 0 10 -10v-411q0 -85 72 -85t72 85v411q0 10 10 10h190q10 0 10 -10v-393q0 -143 -74.5 -216t-206.5 -73zM493 739h-126q-10 0 -10 10v124q0 10 10 10h126q10 0 10 -10v-124q0 -10 -10 -10zM283 739h-126
q-10 0 -10 10v124q0 10 10 10h126q10 0 10 -10v-124q0 -10 -10 -10z" />
    <glyph glyph-name="Yacute" unicode="&#xdd;" horiz-adv-x="641" 
d="M416 0h-190q-10 0 -10 10v244l-211 415q-5 11 7 11h189q11 0 17 -10l104 -213h3l101 213q4 10 17 10h187q12 0 7 -11l-211 -415v-244q0 -10 -10 -10zM385 738h-141q-4 0 -5.5 3t1.5 7l110 132q8 10 18 10h167q5 0 6.5 -3t-1.5 -7l-134 -132q-10 -10 -21 -10z" />
    <glyph glyph-name="Thorn" unicode="&#xde;" horiz-adv-x="620" 
d="M243 0h-189q-10 0 -10 10v660q0 10 10 10h189q10 0 10 -10v-81q0 -6 6 -6h76q135 0 202 -64t67 -171q0 -104 -68.5 -169.5t-200.5 -65.5h-76q-6 0 -6 -6v-97q0 -10 -10 -10zM324 287q70 0 70 61t-70 61h-65q-6 0 -6 -6v-110q0 -6 6 -6h65z" />
    <glyph glyph-name="germandbls" unicode="&#xdf;" horiz-adv-x="598" 
d="M337 -6h-47q-10 0 -10 10v128q0 10 10 10h24q48 0 60 38q4 12 4 50t-4 50q-12 38 -60 38h-20q-10 0 -10 10v125q0 10 10 10h25q47 0 47 38q0 37 -59 37q-69 0 -69 -63v-465q0 -10 -10 -10h-176q-10 0 -10 10v465q0 109 63.5 163t201.5 54q120 0 186.5 -48.5t66.5 -127.5
q0 -84 -59 -122v-2q46 -22 63 -75q10 -30 10 -93q0 -83 -12 -119q-20 -59 -74.5 -85t-150.5 -26z" />
    <glyph glyph-name="agrave" unicode="&#xe0;" horiz-adv-x="537" 
d="M488 0h-169q-10 0 -10 10v24h-1q-44 -46 -128 -46q-66 0 -111 38t-45 113q0 81 59.5 122.5t155.5 41.5h65q6 0 6 6v8q0 19 -17.5 26.5t-68.5 7.5q-61 0 -102 -25q-9 -5 -13 3l-60 108q-6 11 3 17q73 48 200 48q134 0 190 -45.5t56 -144.5v-302q0 -10 -10 -10zM253 124
q57 0 57 35v26q0 6 -6 6h-47q-47 0 -47 -35q0 -32 43 -32zM376 540h-143q-9 0 -16 10l-106 144q-1 2 -1 4.5t1.5 4t4.5 1.5h165q10 0 17 -10l83 -144q5 -10 -5 -10z" />
    <glyph glyph-name="aacute" unicode="&#xe1;" horiz-adv-x="537" 
d="M488 0h-169q-10 0 -10 10v24h-1q-44 -46 -128 -46q-66 0 -111 38t-45 113q0 81 59.5 122.5t155.5 41.5h65q6 0 6 6v8q0 19 -17.5 26.5t-68.5 7.5q-61 0 -102 -25q-9 -5 -13 3l-60 108q-6 11 3 17q73 48 200 48q134 0 190 -45.5t56 -144.5v-302q0 -10 -10 -10zM253 124
q57 0 57 35v26q0 6 -6 6h-47q-47 0 -47 -35q0 -32 43 -32zM336 540h-143q-10 0 -5 10l83 144q7 10 17 10h165q4 0 5.5 -3.5t-0.5 -6.5l-106 -144q-8 -10 -16 -10z" />
    <glyph glyph-name="acircumflex" unicode="&#xe2;" horiz-adv-x="537" 
d="M488 0h-169q-10 0 -10 10v24h-1q-44 -46 -128 -46q-66 0 -111 38t-45 113q0 81 59.5 122.5t155.5 41.5h65q6 0 6 6v8q0 19 -17.5 26.5t-68.5 7.5q-61 0 -102 -25q-9 -5 -13 3l-60 108q-6 11 3 17q73 48 200 48q134 0 190 -45.5t56 -144.5v-302q0 -10 -10 -10zM253 124
q57 0 57 35v26q0 6 -6 6h-47q-47 0 -47 -35q0 -32 43 -32zM450 538h-113q-14 0 -24 10l-44 44h-2l-44 -44q-10 -10 -24 -10h-113q-5 0 -6.5 3t1.5 7l114 144q7 10 19 10h108q12 0 19 -10l114 -144q3 -4 1.5 -7t-6.5 -3z" />
    <glyph glyph-name="atilde" unicode="&#xe3;" horiz-adv-x="537" 
d="M488 0h-169q-10 0 -10 10v24h-1q-44 -46 -128 -46q-66 0 -111 38t-45 113q0 81 59.5 122.5t155.5 41.5h65q6 0 6 6v8q0 19 -17.5 26.5t-68.5 7.5q-61 0 -102 -25q-9 -5 -13 3l-60 108q-6 11 3 17q73 48 200 48q134 0 190 -45.5t56 -144.5v-302q0 -10 -10 -10zM253 124
q57 0 57 35v26q0 6 -6 6h-47q-47 0 -47 -35q0 -32 43 -32zM344 536q-40 0 -94 26q-36 17 -61 17q-37 0 -81 -33q-11 -7 -11 4v92q0 14 10 24q41 39 86 39q40 0 94 -26q36 -17 61 -17q38 0 81 33q11 7 11 -4v-92q0 -14 -10 -24q-41 -39 -86 -39z" />
    <glyph glyph-name="adieresis" unicode="&#xe4;" horiz-adv-x="537" 
d="M488 0h-169q-10 0 -10 10v24h-1q-44 -46 -128 -46q-66 0 -111 38t-45 113q0 81 59.5 122.5t155.5 41.5h65q6 0 6 6v8q0 19 -17.5 26.5t-68.5 7.5q-61 0 -102 -25q-9 -5 -13 3l-60 108q-6 11 3 17q73 48 200 48q134 0 190 -45.5t56 -144.5v-302q0 -10 -10 -10zM253 124
q57 0 57 35v26q0 6 -6 6h-47q-47 0 -47 -35q0 -32 43 -32zM436 536h-126q-10 0 -10 10v124q0 10 10 10h126q10 0 10 -10v-124q0 -10 -10 -10zM226 536h-126q-10 0 -10 10v124q0 10 10 10h126q10 0 10 -10v-124q0 -10 -10 -10z" />
    <glyph glyph-name="aring" unicode="&#xe5;" horiz-adv-x="537" 
d="M488 0h-169q-10 0 -10 10v24h-1q-44 -46 -128 -46q-66 0 -111 38t-45 113q0 81 59.5 122.5t155.5 41.5h65q6 0 6 6v8q0 19 -17.5 26.5t-68.5 7.5q-61 0 -102 -25q-9 -5 -13 3l-60 108q-6 11 3 17q73 48 200 48q134 0 190 -45.5t56 -144.5v-302q0 -10 -10 -10zM253 124
q57 0 57 35v26q0 6 -6 6h-47q-47 0 -47 -35q0 -32 43 -32zM268 512q-53 0 -88.5 34.5t-35.5 87.5t35.5 87.5t88.5 34.5t88.5 -34.5t35.5 -87.5t-35.5 -87.5t-88.5 -34.5zM268 593q17 0 28.5 11.5t11.5 29.5t-11.5 29.5t-28.5 11.5t-28.5 -11.5t-11.5 -29.5t11.5 -29.5
t28.5 -11.5z" />
    <glyph glyph-name="ae" unicode="&#xe6;" horiz-adv-x="822" 
d="M564 -12q-49 0 -93.5 17.5t-70.5 46.5h-1q-58 -64 -186 -64q-189 0 -189 151q0 81 59.5 122.5t155.5 41.5h65q6 0 6 6v8q0 19 -17.5 26.5t-68.5 7.5q-61 0 -102 -25q-9 -5 -13 3l-60 108q-6 11 3 17q73 48 200 48q93 0 166 -39h1q57 39 132 39q186 0 233 -145
q15 -47 15 -156q0 -10 -10 -10h-285q-6 0 -6 -6q0 -4 2 -10q14 -42 87 -42q55 0 107 36q8 5 14 -2l78 -86q7 -7 -2 -15q-89 -78 -220 -78zM604 303q6 0 6 6q0 15 -3 24q-11 34 -53 34t-53 -34q-3 -9 -3 -24q0 -6 6 -6h100zM253 124q57 0 57 35v26q0 6 -6 6h-47
q-47 0 -47 -35q0 -32 43 -32z" />
    <glyph glyph-name="ccedilla" unicode="&#xe7;" horiz-adv-x="504" 
d="M271 -172h-138q-10 0 -7 10l62 159q-116 27 -152 139q-13 39 -13 109t13 109q23 73 83.5 110.5t144.5 37.5q82 0 142.5 -38.5t80.5 -96.5q3 -9 -5 -13l-141 -60q-13 -7 -17 4q-16 44 -52 44q-32 0 -42 -30q-5 -15 -5 -67t5 -67q10 -30 42 -30q36 0 52 44q4 11 17 4
l141 -60q8 -4 5 -13q-16 -45 -57 -79.5t-99 -47.5l-45 -158q-2 -10 -15 -10z" />
    <glyph glyph-name="egrave" unicode="&#xe8;" horiz-adv-x="539" 
d="M281 -12q-95 0 -157 38.5t-86 109.5q-15 45 -15 109t15 109q23 71 82.5 109.5t147.5 38.5q186 0 233 -145q15 -47 15 -156q0 -10 -10 -10h-285q-6 0 -6 -6q0 -4 2 -10q14 -42 87 -42q55 0 107 36q8 5 14 -2l78 -86q7 -7 -2 -15q-89 -78 -220 -78zM221 303h100q6 0 6 6
q0 15 -3 24q-11 34 -53 34t-53 -34q-3 -9 -3 -24q0 -6 6 -6zM354 540h-143q-9 0 -16 10l-106 144q-1 2 -1 4.5t1.5 4t4.5 1.5h165q10 0 17 -10l83 -144q5 -10 -5 -10z" />
    <glyph glyph-name="eacute" unicode="&#xe9;" horiz-adv-x="539" 
d="M281 -12q-95 0 -157 38.5t-86 109.5q-15 45 -15 109t15 109q23 71 82.5 109.5t147.5 38.5q186 0 233 -145q15 -47 15 -156q0 -10 -10 -10h-285q-6 0 -6 -6q0 -4 2 -10q14 -42 87 -42q55 0 107 36q8 5 14 -2l78 -86q7 -7 -2 -15q-89 -78 -220 -78zM221 303h100q6 0 6 6
q0 15 -3 24q-11 34 -53 34t-53 -34q-3 -9 -3 -24q0 -6 6 -6zM333 540h-143q-10 0 -5 10l83 144q7 10 17 10h165q4 0 5.5 -3.5t-0.5 -6.5l-106 -144q-7 -10 -16 -10z" />
    <glyph glyph-name="ecircumflex" unicode="&#xea;" horiz-adv-x="539" 
d="M281 -12q-95 0 -157 38.5t-86 109.5q-15 45 -15 109t15 109q23 71 82.5 109.5t147.5 38.5q186 0 233 -145q15 -47 15 -156q0 -10 -10 -10h-285q-6 0 -6 -6q0 -4 2 -10q14 -42 87 -42q55 0 107 36q8 5 14 -2l78 -86q7 -7 -2 -15q-89 -78 -220 -78zM221 303h100q6 0 6 6
q0 15 -3 24q-11 34 -53 34t-53 -34q-3 -9 -3 -24q0 -6 6 -6zM451 538h-113q-14 0 -24 10l-44 44h-2l-44 -44q-10 -10 -24 -10h-113q-5 0 -6.5 3t1.5 7l114 144q7 10 19 10h108q12 0 19 -10l114 -144q3 -4 1.5 -7t-6.5 -3z" />
    <glyph glyph-name="edieresis" unicode="&#xeb;" horiz-adv-x="539" 
d="M281 -12q-95 0 -157 38.5t-86 109.5q-15 45 -15 109t15 109q23 71 82.5 109.5t147.5 38.5q186 0 233 -145q15 -47 15 -156q0 -10 -10 -10h-285q-6 0 -6 -6q0 -4 2 -10q14 -42 87 -42q55 0 107 36q8 5 14 -2l78 -86q7 -7 -2 -15q-89 -78 -220 -78zM221 303h100q6 0 6 6
q0 15 -3 24q-11 34 -53 34t-53 -34q-3 -9 -3 -24q0 -6 6 -6zM437 536h-126q-10 0 -10 10v124q0 10 10 10h126q10 0 10 -10v-124q0 -10 -10 -10zM227 536h-126q-10 0 -10 10v124q0 10 10 10h126q10 0 10 -10v-124q0 -10 -10 -10z" />
    <glyph glyph-name="igrave" unicode="&#xec;" horiz-adv-x="284" 
d="M232 0h-180q-10 0 -10 10v470q0 10 10 10h180q10 0 10 -10v-470q0 -10 -10 -10zM216 540h-143q-9 0 -16 10l-106 144q-1 2 -1 4.5t1.5 4t4.5 1.5h165q10 0 17 -10l83 -144q5 -10 -5 -10z" />
    <glyph glyph-name="iacute" unicode="&#xed;" horiz-adv-x="284" 
d="M232 0h-180q-10 0 -10 10v470q0 10 10 10h180q10 0 10 -10v-470q0 -10 -10 -10zM211 540h-143q-10 0 -5 10l83 144q7 10 17 10h165q4 0 5.5 -3.5t-0.5 -6.5l-106 -144q-7 -10 -16 -10z" />
    <glyph glyph-name="icircumflex" unicode="&#xee;" horiz-adv-x="284" 
d="M232 0h-180q-10 0 -10 10v470q0 10 10 10h180q10 0 10 -10v-470q0 -10 -10 -10zM324 538h-113q-14 0 -24 10l-44 44h-2l-44 -44q-10 -10 -24 -10h-113q-5 0 -6.5 3t1.5 7l114 144q7 10 19 10h108q12 0 19 -10l114 -144q3 -4 1.5 -7t-6.5 -3z" />
    <glyph glyph-name="idieresis" unicode="&#xef;" horiz-adv-x="284" 
d="M232 0h-180q-10 0 -10 10v470q0 10 10 10h180q10 0 10 -10v-470q0 -10 -10 -10zM310 536h-126q-10 0 -10 10v124q0 10 10 10h126q10 0 10 -10v-124q0 -10 -10 -10zM100 536h-126q-10 0 -10 10v124q0 10 10 10h126q10 0 10 -10v-124q0 -10 -10 -10z" />
    <glyph glyph-name="eth" unicode="&#xf0;" horiz-adv-x="546" 
d="M439 556l-54 -16q82 -111 110 -175t28 -139q0 -46 -13 -87q-23 -72 -85 -111.5t-152 -39.5q-93 0 -154 38t-82 102q-14 42 -14 87q0 53 13 92q19 57 64 91t111 34q30 0 64 -17h2l-56 77l-99 -29q-9 -2 -12 7l-24 82q-3 9 7 12l62 18l-63 88q-3 4 -1.5 7t5.5 3h174
q14 0 21 -9l29 -40l89 26q10 2 13 -7l24 -81q2 -10 -7 -13zM273 147q34 0 44 29q5 15 5 39q0 25 -5 40q-10 29 -44 29t-44 -29q-5 -15 -5 -40q0 -24 5 -39q10 -29 44 -29z" />
    <glyph glyph-name="ntilde" unicode="&#xf1;" horiz-adv-x="564" 
d="M514 0h-180q-10 0 -10 10v278q0 50 -41 50t-41 -50v-278q0 -10 -10 -10h-180q-10 0 -10 10v470q0 10 10 10h180q10 0 10 -10v-36h1q39 58 124 58q157 0 157 -183v-309q0 -10 -10 -10zM357 536q-40 0 -94 26q-36 17 -61 17q-38 0 -81 -33q-11 -7 -11 4v92q0 14 10 24
q41 39 86 39q40 0 94 -26q36 -17 61 -17q37 0 81 33q11 7 11 -4v-92q0 -14 -10 -24q-41 -39 -86 -39z" />
    <glyph glyph-name="ograve" unicode="&#xf2;" horiz-adv-x="546" 
d="M273 -12q-87 0 -149.5 37t-85.5 109q-15 45 -15 111t15 111q23 72 85.5 109t149.5 37t149.5 -37t85.5 -109q15 -45 15 -111t-15 -111q-23 -72 -85.5 -109t-149.5 -37zM273 148q33 0 42 28q6 19 6 69q0 49 -6 69q-9 28 -42 28t-42 -28q-6 -20 -6 -69t6 -69q9 -28 42 -28z
M353 540h-143q-8 0 -16 10l-106 144q-1 2 -1 4.5t1.5 4t4.5 1.5h165q10 0 17 -10l83 -144q5 -10 -5 -10z" />
    <glyph glyph-name="oacute" unicode="&#xf3;" horiz-adv-x="546" 
d="M273 -12q-87 0 -149.5 37t-85.5 109q-15 45 -15 111t15 111q23 72 85.5 109t149.5 37t149.5 -37t85.5 -109q15 -45 15 -111t-15 -111q-23 -72 -85.5 -109t-149.5 -37zM273 148q33 0 42 28q6 19 6 69q0 49 -6 69q-9 28 -42 28t-42 -28q-6 -20 -6 -69t6 -69q9 -28 42 -28z
M336 540h-143q-10 0 -5 10l83 144q7 10 17 10h165q4 0 5.5 -3.5t-0.5 -6.5l-106 -144q-8 -10 -16 -10z" />
    <glyph glyph-name="ocircumflex" unicode="&#xf4;" horiz-adv-x="546" 
d="M273 -12q-87 0 -149.5 37t-85.5 109q-15 45 -15 111t15 111q23 72 85.5 109t149.5 37t149.5 -37t85.5 -109q15 -45 15 -111t-15 -111q-23 -72 -85.5 -109t-149.5 -37zM273 148q33 0 42 28q6 19 6 69q0 49 -6 69q-9 28 -42 28t-42 -28q-6 -20 -6 -69t6 -69q9 -28 42 -28z
M455 538h-113q-14 0 -24 10l-44 44h-2l-44 -44q-10 -10 -24 -10h-113q-5 0 -6.5 3t1.5 7l114 144q7 10 19 10h108q12 0 19 -10l114 -144q3 -4 1.5 -7t-6.5 -3z" />
    <glyph glyph-name="otilde" unicode="&#xf5;" horiz-adv-x="546" 
d="M273 -12q-87 0 -149.5 37t-85.5 109q-15 45 -15 111t15 111q23 72 85.5 109t149.5 37t149.5 -37t85.5 -109q15 -45 15 -111t-15 -111q-23 -72 -85.5 -109t-149.5 -37zM273 148q33 0 42 28q6 19 6 69q0 49 -6 69q-9 28 -42 28t-42 -28q-6 -20 -6 -69t6 -69q9 -28 42 -28z
M348 536q-40 0 -94 26q-36 17 -61 17q-37 0 -81 -33q-11 -7 -11 4v92q0 14 10 24q41 39 86 39q40 0 94 -26q36 -17 61 -17q38 0 81 33q11 7 11 -4v-92q0 -14 -10 -24q-41 -39 -86 -39z" />
    <glyph glyph-name="odieresis" unicode="&#xf6;" horiz-adv-x="546" 
d="M273 -12q-87 0 -149.5 37t-85.5 109q-15 45 -15 111t15 111q23 72 85.5 109t149.5 37t149.5 -37t85.5 -109q15 -45 15 -111t-15 -111q-23 -72 -85.5 -109t-149.5 -37zM273 148q33 0 42 28q6 19 6 69q0 49 -6 69q-9 28 -42 28t-42 -28q-6 -20 -6 -69t6 -69q9 -28 42 -28z
M441 536h-126q-10 0 -10 10v124q0 10 10 10h126q10 0 10 -10v-124q0 -10 -10 -10zM231 536h-126q-10 0 -10 10v124q0 10 10 10h126q10 0 10 -10v-124q0 -10 -10 -10z" />
    <glyph glyph-name="divide" unicode="&#xf7;" 
d="M285 391q-40 0 -67.5 27.5t-27.5 67.5t27.5 67.5t67.5 27.5t67.5 -27.5t27.5 -67.5t-27.5 -67.5t-67.5 -27.5zM518 194h-466q-10 0 -10 10v144q0 10 10 10h466q10 0 10 -10v-144q0 -10 -10 -10zM285 -29q-40 0 -67.5 27.5t-27.5 67.5t27.5 67.5t67.5 27.5t67.5 -27.5
t27.5 -67.5t-27.5 -67.5t-67.5 -27.5z" />
    <glyph glyph-name="oslash" unicode="&#xf8;" horiz-adv-x="546" 
d="M113 -30h-106q-5 0 -6 3t2 7l69 90q-22 26 -34 64q-15 45 -15 111t15 111q23 72 85.5 109t149.5 37q67 0 118 -22l23 30q7 10 19 10h106q5 0 6 -3t-2 -7l-70 -90q23 -27 35 -64q15 -45 15 -111t-15 -111q-23 -72 -85.5 -109t-149.5 -37q-66 0 -119 21l-22 -29
q-7 -10 -19 -10zM273 148q33 0 42 28q6 19 6 69q0 49 -6 69q-9 28 -42 28t-42 -28q-6 -20 -6 -69t6 -69q9 -28 42 -28z" />
    <glyph glyph-name="ugrave" unicode="&#xf9;" horiz-adv-x="562" 
d="M510 0h-180q-10 0 -10 10v36h-1q-39 -58 -124 -58q-156 0 -156 183v309q0 10 10 10h180q10 0 10 -10v-278q0 -50 41 -50q40 0 40 50v278q0 10 10 10h180q10 0 10 -10v-470q0 -10 -10 -10zM361 540h-143q-8 0 -16 10l-106 144q-1 2 -1 4.5t1.5 4t4.5 1.5h165q10 0 17 -10
l83 -144q5 -10 -5 -10z" />
    <glyph glyph-name="uacute" unicode="&#xfa;" horiz-adv-x="562" 
d="M510 0h-180q-10 0 -10 10v36h-1q-39 -58 -124 -58q-156 0 -156 183v309q0 10 10 10h180q10 0 10 -10v-278q0 -50 41 -50q40 0 40 50v278q0 10 10 10h180q10 0 10 -10v-470q0 -10 -10 -10zM341 540h-143q-10 0 -5 10l83 144q7 10 17 10h165q4 0 5.5 -3.5t-0.5 -6.5
l-106 -144q-7 -10 -16 -10z" />
    <glyph glyph-name="ucircumflex" unicode="&#xfb;" horiz-adv-x="562" 
d="M510 0h-180q-10 0 -10 10v36h-1q-39 -58 -124 -58q-156 0 -156 183v309q0 10 10 10h180q10 0 10 -10v-278q0 -50 41 -50q40 0 40 50v278q0 10 10 10h180q10 0 10 -10v-470q0 -10 -10 -10zM463 538h-113q-14 0 -24 10l-44 44h-2l-44 -44q-10 -10 -24 -10h-113q-5 0 -6.5 3
t1.5 7l114 144q7 10 19 10h108q12 0 19 -10l114 -144q3 -4 1.5 -7t-6.5 -3z" />
    <glyph glyph-name="udieresis" unicode="&#xfc;" horiz-adv-x="562" 
d="M510 0h-180q-10 0 -10 10v36h-1q-39 -58 -124 -58q-156 0 -156 183v309q0 10 10 10h180q10 0 10 -10v-278q0 -50 41 -50q40 0 40 50v278q0 10 10 10h180q10 0 10 -10v-470q0 -10 -10 -10zM449 536h-126q-10 0 -10 10v124q0 10 10 10h126q10 0 10 -10v-124q0 -10 -10 -10z
M239 536h-126q-10 0 -10 10v124q0 10 10 10h126q10 0 10 -10v-124q0 -10 -10 -10z" />
    <glyph glyph-name="yacute" unicode="&#xfd;" horiz-adv-x="559" 
d="M140 -180h-41q-10 0 -10 10v140q0 10 10 10h30q42 0 54 32l9 25l-188 443q-4 10 7 10h189q10 0 13 -10l70 -201h2l64 201q3 10 13 10h186q11 0 7 -10l-229 -551q-26 -63 -67 -86t-119 -23zM345 540h-143q-10 0 -5 10l83 144q7 10 17 10h165q4 0 5.5 -3.5t-0.5 -6.5
l-106 -144q-7 -10 -16 -10z" />
    <glyph glyph-name="thorn" unicode="&#xfe;" horiz-adv-x="563" 
d="M232 -180h-180q-10 0 -10 10v840q0 10 10 10h180q10 0 10 -10v-226h1q35 58 123 58q120 0 157 -117q17 -52 17 -140t-17 -140q-37 -117 -157 -117q-88 0 -123 58h-1v-216q0 -10 -10 -10zM290 148q33 0 42 28q6 19 6 69q0 49 -6 69q-9 28 -42 28t-42 -28q-6 -20 -6 -69
t6 -69q9 -28 42 -28z" />
    <glyph glyph-name="ydieresis" unicode="&#xff;" horiz-adv-x="559" 
d="M140 -180h-41q-10 0 -10 10v140q0 10 10 10h30q42 0 54 32l9 25l-188 443q-4 10 7 10h189q10 0 13 -10l70 -201h2l64 201q3 10 13 10h186q11 0 7 -10l-229 -551q-26 -63 -67 -86t-119 -23zM447 536h-126q-10 0 -10 10v124q0 10 10 10h126q10 0 10 -10v-124q0 -10 -10 -10
zM237 536h-126q-10 0 -10 10v124q0 10 10 10h126q10 0 10 -10v-124q0 -10 -10 -10z" />
    <glyph glyph-name="Amacron" unicode="&#x100;" horiz-adv-x="708" 
d="M6 10l236 660q3 10 13 10h204q10 0 13 -10l230 -660q3 -10 -7 -10h-203q-10 0 -13 10l-25 89h-200l-25 -89q-3 -10 -13 -10h-203q-10 0 -7 10zM302 270h105l-50 181h-3zM516 748h-324q-10 0 -10 10v108q0 10 10 10h324q10 0 10 -10v-108q0 -10 -10 -10z" />
    <glyph glyph-name="amacron" unicode="&#x101;" horiz-adv-x="537" 
d="M488 0h-169q-10 0 -10 10v24h-1q-44 -46 -128 -46q-66 0 -111 38t-45 113q0 81 59.5 122.5t155.5 41.5h65q6 0 6 6v8q0 19 -17.5 26.5t-68.5 7.5q-61 0 -102 -25q-9 -5 -13 3l-60 108q-6 11 3 17q73 48 200 48q134 0 190 -45.5t56 -144.5v-302q0 -10 -10 -10zM253 124
q57 0 57 35v26q0 6 -6 6h-47q-47 0 -47 -35q0 -32 43 -32zM430 548h-324q-10 0 -10 10v108q0 10 10 10h324q10 0 10 -10v-108q0 -10 -10 -10z" />
    <glyph glyph-name="Abreve" unicode="&#x102;" horiz-adv-x="708" 
d="M6 10l236 660q3 10 13 10h204q10 0 13 -10l230 -660q3 -10 -7 -10h-203q-10 0 -13 10l-25 89h-200l-25 -89q-3 -10 -13 -10h-203q-10 0 -7 10zM302 270h105l-50 181h-3zM354 721q-71 0 -120.5 44.5t-49.5 108.5q0 11 14 11h74q10 0 16 -11q19 -37 66 -37t66 37
q6 11 16 11h74q14 0 14 -11q0 -64 -49.5 -108.5t-120.5 -44.5z" />
    <glyph glyph-name="abreve" unicode="&#x103;" horiz-adv-x="537" 
d="M488 0h-169q-10 0 -10 10v24h-1q-44 -46 -128 -46q-66 0 -111 38t-45 113q0 81 59.5 122.5t155.5 41.5h65q6 0 6 6v8q0 19 -17.5 26.5t-68.5 7.5q-61 0 -102 -25q-9 -5 -13 3l-60 108q-6 11 3 17q73 48 200 48q134 0 190 -45.5t56 -144.5v-302q0 -10 -10 -10zM253 124
q57 0 57 35v26q0 6 -6 6h-47q-47 0 -47 -35q0 -32 43 -32zM268 529q-71 0 -120.5 44.5t-49.5 108.5q0 11 14 11h74q10 0 16 -11q19 -37 66 -37t66 37q6 11 16 11h74q14 0 14 -11q0 -64 -49.5 -108.5t-120.5 -44.5z" />
    <glyph glyph-name="Aogonek" unicode="&#x104;" horiz-adv-x="708" 
d="M507 0h-15q-10 0 -13 10l-25 89h-200l-25 -89q-3 -10 -13 -10h-203q-10 0 -7 10l236 660q3 10 13 10h204q10 0 13 -10l230 -660q3 -8 -10 -12q-93 -29 -93 -54q0 -10 13 -10q10 0 24 9q8 5 13 -3l46 -83q5 -8 -4 -14q-54 -35 -112 -35q-55 0 -86.5 28.5t-31.5 72.5
q0 55 46 91zM354 451l-52 -181h105l-50 181h-3z" />
    <glyph glyph-name="aogonek" unicode="&#x105;" horiz-adv-x="537" 
d="M309 10v24h-1q-44 -46 -128 -46q-66 0 -111 38t-45 113q0 81 59.5 122.5t155.5 41.5h65q6 0 6 6v8q0 19 -17.5 26.5t-68.5 7.5q-61 0 -102 -25q-9 -5 -13 3l-60 108q-6 11 3 17q73 48 200 48q134 0 190 -45.5t56 -144.5v-302q0 -7 -8 -10q-93 -32 -93 -56q0 -10 13 -10
q10 0 24 9q8 5 13 -3l46 -83q5 -8 -4 -14q-54 -35 -112 -35q-55 0 -86.5 28.5t-31.5 72.5q0 57 60 91q-10 0 -10 10zM253 124q57 0 57 35v26q0 6 -6 6h-47q-47 0 -47 -35q0 -32 43 -32z" />
    <glyph glyph-name="Cacute" unicode="&#x106;" horiz-adv-x="572" 
d="M51 156q-21 63 -21 184t21 184q27 83 92 125.5t160 42.5t160 -41.5t93 -118.5q4 -10 -5 -14l-161 -69q-11 -5 -15 7q-22 50 -67 50t-58 -41q-8 -26 -8 -125t8 -125q13 -41 58 -41t67 50q4 12 15 7l161 -69q9 -4 5 -14q-28 -77 -93 -118.5t-160 -41.5t-160 42.5t-92 125.5
zM351 738h-141q-4 0 -5.5 3t1.5 7l110 132q8 10 18 10h167q5 0 6.5 -3t-1.5 -7l-134 -132q-10 -10 -21 -10z" />
    <glyph glyph-name="cacute" unicode="&#x107;" horiz-adv-x="504" 
d="M264 -12q-84 0 -144.5 37.5t-83.5 110.5q-13 39 -13 109t13 109q23 73 83.5 110.5t144.5 37.5q82 0 142.5 -38.5t80.5 -96.5q3 -9 -5 -13l-141 -60q-13 -7 -17 4q-16 44 -52 44q-32 0 -42 -30q-5 -15 -5 -67t5 -67q10 -30 42 -30q36 0 52 44q4 11 17 4l141 -60
q8 -4 5 -13q-20 -58 -80.5 -96.5t-142.5 -38.5zM315 540h-143q-10 0 -5 10l83 144q7 10 17 10h165q4 0 5.5 -3.5t-0.5 -6.5l-106 -144q-7 -10 -16 -10z" />
    <glyph glyph-name="Ccircumflex" unicode="&#x108;" horiz-adv-x="572" 
d="M51 156q-21 63 -21 184t21 184q27 83 92 125.5t160 42.5t160 -41.5t93 -118.5q4 -10 -5 -14l-161 -69q-11 -5 -15 7q-22 50 -67 50t-58 -41q-8 -26 -8 -125t8 -125q13 -41 58 -41t67 50q4 12 15 7l161 -69q9 -4 5 -14q-28 -77 -93 -118.5t-160 -41.5t-160 42.5t-92 125.5
zM484 734h-113q-14 0 -24 10l-44 44h-2l-44 -44q-10 -10 -24 -10h-113q-5 0 -6.5 3t1.5 7l114 144q7 10 19 10h108q12 0 19 -10l114 -144q3 -4 1.5 -7t-6.5 -3z" />
    <glyph glyph-name="ccircumflex" unicode="&#x109;" horiz-adv-x="504" 
d="M264 -12q-84 0 -144.5 37.5t-83.5 110.5q-13 39 -13 109t13 109q23 73 83.5 110.5t144.5 37.5q82 0 142.5 -38.5t80.5 -96.5q3 -9 -5 -13l-141 -60q-13 -7 -17 4q-16 44 -52 44q-32 0 -42 -30q-5 -15 -5 -67t5 -67q10 -30 42 -30q36 0 52 44q4 11 17 4l141 -60
q8 -4 5 -13q-20 -58 -80.5 -96.5t-142.5 -38.5zM447 538h-113q-14 0 -24 10l-44 44h-2l-44 -44q-10 -10 -24 -10h-113q-5 0 -6.5 3t1.5 7l114 144q7 10 19 10h108q12 0 19 -10l114 -144q3 -4 1.5 -7t-6.5 -3z" />
    <glyph glyph-name="Cdotaccent" unicode="&#x10a;" horiz-adv-x="572" 
d="M51 156q-21 63 -21 184t21 184q27 83 92 125.5t160 42.5t160 -41.5t93 -118.5q4 -10 -5 -14l-161 -69q-11 -5 -15 7q-22 50 -67 50t-58 -41q-8 -26 -8 -125t8 -125q13 -41 58 -41t67 50q4 12 15 7l161 -69q9 -4 5 -14q-28 -77 -93 -118.5t-160 -41.5t-160 42.5t-92 125.5
zM380 739h-164q-10 0 -10 10v124q0 10 10 10h164q10 0 10 -10v-124q0 -10 -10 -10z" />
    <glyph glyph-name="cdotaccent" unicode="&#x10b;" horiz-adv-x="504" 
d="M264 -12q-84 0 -144.5 37.5t-83.5 110.5q-13 39 -13 109t13 109q23 73 83.5 110.5t144.5 37.5q82 0 142.5 -38.5t80.5 -96.5q3 -9 -5 -13l-141 -60q-13 -7 -17 4q-16 44 -52 44q-32 0 -42 -30q-5 -15 -5 -67t5 -67q10 -30 42 -30q36 0 52 44q4 11 17 4l141 -60
q8 -4 5 -13q-20 -58 -80.5 -96.5t-142.5 -38.5zM344 536h-164q-10 0 -10 10v124q0 10 10 10h164q10 0 10 -10v-124q0 -10 -10 -10z" />
    <glyph glyph-name="Ccaron" unicode="&#x10c;" horiz-adv-x="572" 
d="M51 156q-21 63 -21 184t21 184q27 83 92 125.5t160 42.5t160 -41.5t93 -118.5q4 -10 -5 -14l-161 -69q-11 -5 -15 7q-22 50 -67 50t-58 -41q-8 -26 -8 -125t8 -125q13 -41 58 -41t67 50q4 12 15 7l161 -69q9 -4 5 -14q-28 -77 -93 -118.5t-160 -41.5t-160 42.5t-92 125.5
zM353 726h-108q-12 0 -19 10l-114 144q-3 4 -1.5 7t6.5 3h113q14 0 24 -10l44 -44h2l44 44q10 10 24 10h113q5 0 6.5 -3t-1.5 -7l-114 -144q-7 -10 -19 -10z" />
    <glyph glyph-name="ccaron" unicode="&#x10d;" horiz-adv-x="504" 
d="M264 -12q-84 0 -144.5 37.5t-83.5 110.5q-13 39 -13 109t13 109q23 73 83.5 110.5t144.5 37.5q82 0 142.5 -38.5t80.5 -96.5q3 -9 -5 -13l-141 -60q-13 -7 -17 4q-16 44 -52 44q-32 0 -42 -30q-5 -15 -5 -67t5 -67q10 -30 42 -30q36 0 52 44q4 11 17 4l141 -60
q8 -4 5 -13q-20 -58 -80.5 -96.5t-142.5 -38.5zM319 534h-108q-12 0 -19 10l-114 144q-3 4 -1.5 7t6.5 3h113q14 0 24 -10l44 -44h2l44 44q10 10 24 10h113q5 0 6.5 -3t-1.5 -7l-114 -144q-7 -10 -19 -10z" />
    <glyph glyph-name="Dcaron" unicode="&#x10e;" horiz-adv-x="635" 
d="M44 10v660q0 10 10 10h273q200 0 252 -158q21 -64 21 -182t-21 -182q-52 -158 -252 -158h-273q-10 0 -10 10zM254 192q0 -6 6 -6h24q42 0 64 11.5t31 40.5q9 27 9 102t-9 102q-9 29 -31 40.5t-64 11.5h-24q-6 0 -6 -6v-296zM349 726h-108q-12 0 -19 10l-114 144
q-3 4 -1.5 7t6.5 3h113q14 0 24 -10l44 -44h2l44 44q10 10 24 10h113q5 0 6.5 -3t-1.5 -7l-114 -144q-7 -10 -19 -10z" />
    <glyph glyph-name="dcaron" unicode="&#x10f;" horiz-adv-x="603" 
d="M511 0h-180q-10 0 -10 10v36h-1q-35 -58 -123 -58q-120 0 -157 117q-17 52 -17 140t17 140q37 117 157 117q88 0 123 -58h1v226q0 10 10 10h180q10 0 10 -10v-660q0 -10 -10 -10zM273 148q33 0 42 28q6 19 6 69q0 49 -6 69q-9 28 -42 28t-42 -28q-6 -20 -6 -69t6 -69
q9 -28 42 -28zM558 455q-12 0 -12 13v202q0 10 10 10h124q10 0 10 -10v-107q0 -13 -10 -22l-104 -78q-11 -8 -18 -8z" />
    <glyph glyph-name="Dcroat" unicode="&#x110;" horiz-adv-x="635" 
d="M327 0h-273q-10 0 -10 10v259q0 6 -6 6h-26q-10 0 -10 10v117q0 10 10 10h26q6 0 6 6v252q0 10 10 10h273q200 0 252 -158q21 -64 21 -182t-21 -182q-52 -158 -252 -158zM284 186q42 0 64 11.5t31 40.5q9 27 9 102t-9 102q-9 29 -31 40.5t-64 11.5h-24q-6 0 -6 -6v-70
q0 -6 6 -6h54q10 0 10 -10v-117q0 -10 -10 -10h-54q-6 0 -6 -6v-77q0 -6 6 -6h24z" />
    <glyph glyph-name="dcroat" unicode="&#x111;" horiz-adv-x="563" 
d="M511 0h-180q-10 0 -10 10v36h-1q-35 -58 -123 -58q-120 0 -157 117q-17 52 -17 140t17 140q37 117 157 117q88 0 123 -58h1v85q0 6 -6 6h-87q-10 0 -10 10v91q0 10 10 10h87q6 0 6 6v18q0 10 10 10h180q10 0 10 -10v-18q0 -6 6 -6h17q10 0 10 -10v-91q0 -10 -10 -10h-17
q-6 0 -6 -6v-519q0 -10 -10 -10zM273 148q33 0 42 28q6 19 6 69q0 49 -6 69q-9 28 -42 28t-42 -28q-6 -20 -6 -69t6 -69q9 -28 42 -28z" />
    <glyph glyph-name="Emacron" unicode="&#x112;" horiz-adv-x="549" 
d="M44 10v660q0 10 10 10h455q10 0 10 -10v-154q0 -10 -10 -10h-251q-6 0 -6 -6v-66q0 -6 6 -6h201q10 0 10 -10v-150q0 -10 -10 -10h-201q-6 0 -6 -6v-72q0 -6 6 -6h251q10 0 10 -10v-154q0 -10 -10 -10h-455q-10 0 -10 10zM441 748h-324q-10 0 -10 10v108q0 10 10 10h324
q10 0 10 -10v-108q0 -10 -10 -10z" />
    <glyph glyph-name="emacron" unicode="&#x113;" horiz-adv-x="539" 
d="M281 -12q-95 0 -157 38.5t-86 109.5q-15 45 -15 109t15 109q23 71 82.5 109.5t147.5 38.5q186 0 233 -145q15 -47 15 -156q0 -10 -10 -10h-285q-6 0 -6 -6q0 -4 2 -10q14 -42 87 -42q55 0 107 36q8 5 14 -2l78 -86q7 -7 -2 -15q-89 -78 -220 -78zM221 303h100q6 0 6 6
q0 15 -3 24q-11 34 -53 34t-53 -34q-3 -9 -3 -24q0 -6 6 -6zM431 548h-324q-10 0 -10 10v108q0 10 10 10h324q10 0 10 -10v-108q0 -10 -10 -10z" />
    <glyph glyph-name="Ebreve" unicode="&#x114;" horiz-adv-x="549" 
d="M44 10v660q0 10 10 10h455q10 0 10 -10v-154q0 -10 -10 -10h-251q-6 0 -6 -6v-66q0 -6 6 -6h201q10 0 10 -10v-150q0 -10 -10 -10h-201q-6 0 -6 -6v-72q0 -6 6 -6h251q10 0 10 -10v-154q0 -10 -10 -10h-455q-10 0 -10 10zM274 721q-71 0 -120.5 44.5t-49.5 108.5
q0 11 14 11h74q10 0 16 -11q19 -37 66 -37t66 37q6 11 16 11h74q14 0 14 -11q0 -64 -49.5 -108.5t-120.5 -44.5z" />
    <glyph glyph-name="ebreve" unicode="&#x115;" horiz-adv-x="539" 
d="M281 -12q-95 0 -157 38.5t-86 109.5q-15 45 -15 109t15 109q23 71 82.5 109.5t147.5 38.5q186 0 233 -145q15 -47 15 -156q0 -10 -10 -10h-285q-6 0 -6 -6q0 -4 2 -10q14 -42 87 -42q55 0 107 36q8 5 14 -2l78 -86q7 -7 -2 -15q-89 -78 -220 -78zM221 303h100q6 0 6 6
q0 15 -3 24q-11 34 -53 34t-53 -34q-3 -9 -3 -24q0 -6 6 -6zM269 529q-71 0 -120.5 44.5t-49.5 108.5q0 11 14 11h74q11 0 16 -11q19 -37 66 -37t66 37q5 11 16 11h74q14 0 14 -11q0 -64 -49.5 -108.5t-120.5 -44.5z" />
    <glyph glyph-name="Edotaccent" unicode="&#x116;" horiz-adv-x="549" 
d="M44 10v660q0 10 10 10h455q10 0 10 -10v-154q0 -10 -10 -10h-251q-6 0 -6 -6v-66q0 -6 6 -6h201q10 0 10 -10v-150q0 -10 -10 -10h-201q-6 0 -6 -6v-72q0 -6 6 -6h251q10 0 10 -10v-154q0 -10 -10 -10h-455q-10 0 -10 10zM356 739h-164q-10 0 -10 10v124q0 10 10 10h164
q10 0 10 -10v-124q0 -10 -10 -10z" />
    <glyph glyph-name="edotaccent" unicode="&#x117;" horiz-adv-x="539" 
d="M281 -12q-95 0 -157 38.5t-86 109.5q-15 45 -15 109t15 109q23 71 82.5 109.5t147.5 38.5q186 0 233 -145q15 -47 15 -156q0 -10 -10 -10h-285q-6 0 -6 -6q0 -4 2 -10q14 -42 87 -42q55 0 107 36q8 5 14 -2l78 -86q7 -7 -2 -15q-89 -78 -220 -78zM221 303h100q6 0 6 6
q0 15 -3 24q-11 34 -53 34t-53 -34q-3 -9 -3 -24q0 -6 6 -6zM351 536h-164q-10 0 -10 10v124q0 10 10 10h164q10 0 10 -10v-124q0 -10 -10 -10z" />
    <glyph glyph-name="Eogonek" unicode="&#x118;" horiz-adv-x="549" 
d="M390 -192q-55 0 -86.5 28.5t-31.5 72.5q0 55 46 91h-264q-10 0 -10 10v660q0 10 10 10h455q10 0 10 -10v-154q0 -10 -10 -10h-251q-6 0 -6 -6v-66q0 -6 6 -6h201q10 0 10 -10v-150q0 -10 -10 -10h-201q-6 0 -6 -6v-72q0 -6 6 -6h251q10 0 10 -10v-154q0 -10 -10 -10h-13
q-86 -35 -86 -56q0 -10 13 -10q11 0 24 9q9 5 14 -4l45 -81q5 -9 -3 -14q-53 -36 -113 -36z" />
    <glyph glyph-name="eogonek" unicode="&#x119;" horiz-adv-x="539" 
d="M351 -192q-55 0 -86.5 28.5t-31.5 72.5q0 41 34 79h-4q-178 8 -225 148q-15 45 -15 109t15 109q23 71 82.5 109.5t147.5 38.5q186 0 233 -145q15 -47 15 -156q0 -10 -10 -10h-285q-6 0 -6 -6q0 -4 2 -10q14 -42 87 -42q55 0 107 36q8 5 14 -2l78 -86q7 -7 -2 -15
q-24 -20 -38 -28q-92 -71 -92 -93q0 -11 13 -11q10 0 24 9q8 5 13 -3l46 -83q5 -8 -4 -14q-54 -35 -112 -35zM321 303q6 0 6 6q0 15 -3 24q-11 34 -53 34t-53 -34q-3 -9 -3 -24q0 -6 6 -6h100z" />
    <glyph glyph-name="Ecaron" unicode="&#x11a;" horiz-adv-x="549" 
d="M44 10v660q0 10 10 10h455q10 0 10 -10v-154q0 -10 -10 -10h-251q-6 0 -6 -6v-66q0 -6 6 -6h201q10 0 10 -10v-150q0 -10 -10 -10h-201q-6 0 -6 -6v-72q0 -6 6 -6h251q10 0 10 -10v-154q0 -10 -10 -10h-455q-10 0 -10 10zM333 726h-108q-12 0 -19 10l-114 144
q-3 4 -1.5 7t6.5 3h113q14 0 24 -10l44 -44h2l44 44q10 10 24 10h113q5 0 6.5 -3t-1.5 -7l-114 -144q-7 -10 -19 -10z" />
    <glyph glyph-name="ecaron" unicode="&#x11b;" horiz-adv-x="539" 
d="M281 -12q-95 0 -157 38.5t-86 109.5q-15 45 -15 109t15 109q23 71 82.5 109.5t147.5 38.5q186 0 233 -145q15 -47 15 -156q0 -10 -10 -10h-285q-6 0 -6 -6q0 -4 2 -10q14 -42 87 -42q55 0 107 36q8 5 14 -2l78 -86q7 -7 -2 -15q-89 -78 -220 -78zM221 303h100q6 0 6 6
q0 15 -3 24q-11 34 -53 34t-53 -34q-3 -9 -3 -24q0 -6 6 -6zM325 534h-108q-12 0 -19 10l-114 144q-3 4 -1.5 7t6.5 3h113q14 0 24 -10l44 -44h2l44 44q10 10 24 10h113q5 0 6.5 -3t-1.5 -7l-114 -144q-7 -10 -19 -10z" />
    <glyph glyph-name="Gcircumflex" unicode="&#x11c;" horiz-adv-x="628" 
d="M51 157q-21 67 -21 183t21 183q27 83 97.5 126t165.5 43q184 0 252 -145q6 -12 -5 -17l-156 -66q-11 -5 -17 4q-25 38 -73 38q-51 0 -65 -44q-8 -25 -8 -122q0 -95 9 -123q14 -43 71 -43t68 36q3 9 3 18q0 7 -6 7h-52q-10 0 -10 10v131q0 10 10 10h253q10 0 10 -10v-47
q0 -105 -19 -163q-28 -86 -97.5 -132t-167.5 -46q-95 0 -165.5 43t-97.5 126zM496 734h-113q-14 0 -24 10l-44 44h-2l-44 -44q-10 -10 -24 -10h-113q-5 0 -6.5 3t1.5 7l114 144q7 10 19 10h108q12 0 19 -10l114 -144q3 -4 1.5 -7t-6.5 -3z" />
    <glyph glyph-name="gcircumflex" unicode="&#x11d;" horiz-adv-x="559" 
d="M240 -192q-61 0 -118.5 23.5t-81.5 54.5q-6 8 1 15l98 102q7 7 15 1q46 -36 90 -36q39 0 56.5 21t17.5 69v32h-1q-35 -58 -123 -58q-120 0 -158 116q-16 51 -16 119t16 119q38 116 158 116q88 0 123 -58h1v36q0 10 10 10h180q10 0 10 -10v-378q0 -159 -68.5 -226.5
t-209.5 -67.5zM270 192q33 0 43 31q5 15 5 44t-5 44q-10 31 -43 31t-43 -31q-5 -15 -5 -44t5 -44q10 -31 43 -31zM461 538h-113q-14 0 -24 10l-44 44h-2l-44 -44q-10 -10 -24 -10h-113q-5 0 -6.5 3t1.5 7l114 144q7 10 19 10h108q12 0 19 -10l114 -144q3 -4 1.5 -7t-6.5 -3z
" />
    <glyph glyph-name="Gbreve" unicode="&#x11e;" horiz-adv-x="628" 
d="M51 157q-21 67 -21 183t21 183q27 83 97.5 126t165.5 43q184 0 252 -145q6 -12 -5 -17l-156 -66q-11 -5 -17 4q-25 38 -73 38q-51 0 -65 -44q-8 -25 -8 -122q0 -95 9 -123q14 -43 71 -43t68 36q3 9 3 18q0 7 -6 7h-52q-10 0 -10 10v131q0 10 10 10h253q10 0 10 -10v-47
q0 -105 -19 -163q-28 -86 -97.5 -132t-167.5 -46q-95 0 -165.5 43t-97.5 126zM313 721q-71 0 -120.5 44.5t-49.5 108.5q0 11 14 11h74q11 0 16 -11q19 -37 66 -37t66 37q5 11 16 11h74q14 0 14 -11q0 -64 -49.5 -108.5t-120.5 -44.5z" />
    <glyph glyph-name="gbreve" unicode="&#x11f;" horiz-adv-x="559" 
d="M240 -192q-61 0 -118.5 23.5t-81.5 54.5q-6 8 1 15l98 102q7 7 15 1q46 -36 90 -36q39 0 56.5 21t17.5 69v32h-1q-35 -58 -123 -58q-120 0 -158 116q-16 51 -16 119t16 119q38 116 158 116q88 0 123 -58h1v36q0 10 10 10h180q10 0 10 -10v-378q0 -159 -68.5 -226.5
t-209.5 -67.5zM270 192q33 0 43 31q5 15 5 44t-5 44q-10 31 -43 31t-43 -31q-5 -15 -5 -44t5 -44q10 -31 43 -31zM279 529q-71 0 -120.5 44.5t-49.5 108.5q0 11 14 11h74q11 0 16 -11q19 -37 66 -37t66 37q5 11 16 11h74q14 0 14 -11q0 -64 -49.5 -108.5t-120.5 -44.5z" />
    <glyph glyph-name="Gdotaccent" unicode="&#x120;" horiz-adv-x="628" 
d="M51 157q-21 67 -21 183t21 183q27 83 97.5 126t165.5 43q184 0 252 -145q6 -12 -5 -17l-156 -66q-11 -5 -17 4q-25 38 -73 38q-51 0 -65 -44q-8 -25 -8 -122q0 -95 9 -123q14 -43 71 -43t68 36q3 9 3 18q0 7 -6 7h-52q-10 0 -10 10v131q0 10 10 10h253q10 0 10 -10v-47
q0 -105 -19 -163q-28 -86 -97.5 -132t-167.5 -46q-95 0 -165.5 43t-97.5 126zM395 739h-164q-10 0 -10 10v124q0 10 10 10h164q10 0 10 -10v-124q0 -10 -10 -10z" />
    <glyph glyph-name="gdotaccent" unicode="&#x121;" horiz-adv-x="559" 
d="M240 -192q-61 0 -118.5 23.5t-81.5 54.5q-6 8 1 15l98 102q7 7 15 1q46 -36 90 -36q39 0 56.5 21t17.5 69v32h-1q-35 -58 -123 -58q-120 0 -158 116q-16 51 -16 119t16 119q38 116 158 116q88 0 123 -58h1v36q0 10 10 10h180q10 0 10 -10v-378q0 -159 -68.5 -226.5
t-209.5 -67.5zM270 192q33 0 43 31q5 15 5 44t-5 44q-10 31 -43 31t-43 -31q-5 -15 -5 -44t5 -44q10 -31 43 -31zM361 536h-164q-10 0 -10 10v124q0 10 10 10h164q10 0 10 -10v-124q0 -10 -10 -10z" />
    <glyph glyph-name="Gcommaaccent" unicode="&#x122;" horiz-adv-x="628" 
d="M51 157q-21 67 -21 183t21 183q27 83 97.5 126t165.5 43q184 0 252 -145q6 -12 -5 -17l-156 -66q-11 -5 -17 4q-25 38 -73 38q-51 0 -65 -44q-8 -25 -8 -122q0 -95 9 -123q14 -43 71 -43t68 36q3 9 3 18q0 7 -6 7h-52q-10 0 -10 10v131q0 10 10 10h253q10 0 10 -10v-47
q0 -105 -19 -163q-28 -86 -97.5 -132t-167.5 -46q-95 0 -165.5 43t-97.5 126zM245 -259q-12 0 -12 13v195q0 10 10 10h142q10 0 10 -10v-100q0 -16 -10 -22l-122 -78q-13 -8 -18 -8z" />
    <glyph glyph-name="gcommaaccent" unicode="&#x123;" horiz-adv-x="559" 
d="M240 -192q-61 0 -118.5 23.5t-81.5 54.5q-6 8 1 15l98 102q7 7 15 1q46 -36 90 -36q39 0 56.5 21t17.5 69v32h-1q-35 -58 -123 -58q-120 0 -158 116q-16 51 -16 119t16 119q38 116 158 116q88 0 123 -58h1v36q0 10 10 10h180q10 0 10 -10v-378q0 -159 -68.5 -226.5
t-209.5 -67.5zM270 192q33 0 43 31q5 15 5 44t-5 44q-10 31 -43 31t-43 -31q-5 -15 -5 -44t5 -44q10 -31 43 -31zM350 536h-142q-10 0 -10 10v100q0 16 10 22l122 78q13 8 18 8q12 0 12 -13v-195q0 -10 -10 -10z" />
    <glyph glyph-name="Hcircumflex" unicode="&#x124;" horiz-adv-x="661" 
d="M44 10v660q0 10 10 10h190q10 0 10 -10v-225q0 -6 6 -6h141q6 0 6 6v225q0 10 10 10h190q10 0 10 -10v-660q0 -10 -10 -10h-190q-10 0 -10 10v237q0 6 -6 6h-141q-6 0 -6 -6v-237q0 -10 -10 -10h-190q-10 0 -10 10zM512 734h-113q-14 0 -24 10l-44 44h-2l-44 -44
q-10 -10 -24 -10h-113q-5 0 -6.5 3t1.5 7l114 144q7 10 19 10h108q12 0 19 -10l114 -144q3 -4 1.5 -7t-6.5 -3z" />
    <glyph glyph-name="hcircumflex" unicode="&#x125;" horiz-adv-x="564" 
d="M514 0h-180q-10 0 -10 10v278q0 50 -41 50t-41 -50v-278q0 -10 -10 -10h-180q-10 0 -10 10v660q0 10 10 10h180q10 0 10 -10v-226h1q39 58 124 58q157 0 157 -183v-309q0 -10 -10 -10zM470 734h-113q-14 0 -24 10l-44 44h-2l-44 -44q-10 -10 -24 -10h-113q-5 0 -6.5 3
t1.5 7l114 144q7 10 19 10h108q12 0 19 -10l114 -144q3 -4 1.5 -7t-6.5 -3z" />
    <glyph glyph-name="Hbar" unicode="&#x126;" horiz-adv-x="661" 
d="M607 0h-190q-10 0 -10 10v237q0 6 -6 6h-141q-6 0 -6 -6v-237q0 -10 -10 -10h-190q-10 0 -10 10v487q0 6 -6 6h-26q-10 0 -10 10v94q0 10 10 10h26q6 0 6 6v47q0 10 10 10h190q10 0 10 -10v-47q0 -6 6 -6h141q6 0 6 6v47q0 10 10 10h190q10 0 10 -10v-47q0 -6 6 -6h26
q10 0 10 -10v-94q0 -10 -10 -10h-26q-6 0 -6 -6v-487q0 -10 -10 -10zM401 439q6 0 6 6v52q0 6 -6 6h-141q-6 0 -6 -6v-52q0 -6 6 -6h141z" />
    <glyph glyph-name="hbar" unicode="&#x127;" horiz-adv-x="564" 
d="M514 0h-180q-10 0 -10 10v278q0 50 -41 50t-41 -50v-278q0 -10 -10 -10h-180q-10 0 -10 10v519q0 6 -6 6h-17q-10 0 -10 10v91q0 10 10 10h17q6 0 6 6v18q0 10 10 10h180q10 0 10 -10v-18q0 -6 6 -6h87q10 0 10 -10v-91q0 -10 -10 -10h-87q-6 0 -6 -6v-85h1q39 58 124 58
q157 0 157 -183v-309q0 -10 -10 -10z" />
    <glyph glyph-name="Itilde" unicode="&#x128;" horiz-adv-x="298" 
d="M44 10v660q0 10 10 10h190q10 0 10 -10v-660q0 -10 -10 -10h-190q-10 0 -10 10zM225 730q-40 0 -94 26q-36 17 -61 17q-38 0 -81 -33q-11 -7 -11 4v92q0 14 10 24q41 39 86 39q40 0 94 -26q36 -17 61 -17q37 0 81 33q11 7 11 -4v-92q0 -14 -10 -24q-41 -39 -86 -39z" />
    <glyph glyph-name="itilde" unicode="&#x129;" horiz-adv-x="284" 
d="M232 0h-180q-10 0 -10 10v470q0 10 10 10h180q10 0 10 -10v-470q0 -10 -10 -10zM218 536q-40 0 -94 26q-36 17 -61 17q-37 0 -81 -33q-11 -7 -11 4v92q0 14 10 24q41 39 86 39q40 0 94 -26q36 -17 61 -17q38 0 81 33q11 7 11 -4v-92q0 -14 -10 -24q-41 -39 -86 -39z" />
    <glyph glyph-name="Imacron" unicode="&#x12a;" horiz-adv-x="298" 
d="M44 10v660q0 10 10 10h190q10 0 10 -10v-660q0 -10 -10 -10h-190q-10 0 -10 10zM311 748h-324q-10 0 -10 10v108q0 10 10 10h324q10 0 10 -10v-108q0 -10 -10 -10z" />
    <glyph glyph-name="imacron" unicode="&#x12b;" horiz-adv-x="284" 
d="M232 0h-180q-10 0 -10 10v470q0 10 10 10h180q10 0 10 -10v-470q0 -10 -10 -10zM304 548h-324q-10 0 -10 10v108q0 10 10 10h324q10 0 10 -10v-108q0 -10 -10 -10z" />
    <glyph glyph-name="Ibreve" unicode="&#x12c;" horiz-adv-x="298" 
d="M44 10v660q0 10 10 10h190q10 0 10 -10v-660q0 -10 -10 -10h-190q-10 0 -10 10zM149 721q-71 0 -120.5 44.5t-49.5 108.5q0 11 14 11h74q11 0 16 -11q19 -37 66 -37t66 37q5 11 16 11h74q14 0 14 -11q0 -64 -49.5 -108.5t-120.5 -44.5z" />
    <glyph glyph-name="ibreve" unicode="&#x12d;" horiz-adv-x="284" 
d="M232 0h-180q-10 0 -10 10v470q0 10 10 10h180q10 0 10 -10v-470q0 -10 -10 -10zM142 529q-71 0 -120.5 44.5t-49.5 108.5q0 11 14 11h74q10 0 16 -11q19 -37 66 -37t66 37q6 11 16 11h74q14 0 14 -11q0 -64 -49.5 -108.5t-120.5 -44.5z" />
    <glyph glyph-name="Iogonek" unicode="&#x12e;" horiz-adv-x="298" 
d="M140 -192q-55 0 -86.5 28.5t-31.5 72.5q0 55 46 91h-14q-10 0 -10 10v660q0 10 10 10h190q10 0 10 -10v-659q0 -8 -8 -11q-38 -16 -57.5 -27t-24 -16.5t-4.5 -12.5q0 -10 13 -10q11 0 24 9q8 5 13 -3l46 -83q5 -8 -4 -14q-54 -35 -112 -35z" />
    <glyph glyph-name="iogonek" unicode="&#x12f;" horiz-adv-x="284" 
d="M232 536h-180q-10 0 -10 10v124q0 10 10 10h180q10 0 10 -10v-124q0 -10 -10 -10zM134 -192q-55 0 -86.5 28.5t-31.5 72.5q0 57 41 91h-5q-10 0 -10 10v470q0 10 10 10h180q10 0 10 -10v-470q0 -8 -11 -13q-48 -21 -62.5 -32.5t-14.5 -20.5q0 -10 13 -10q11 0 24 9
q8 5 13 -3l46 -83q5 -8 -4 -14q-54 -35 -112 -35z" />
    <glyph glyph-name="Idotaccent" unicode="&#x130;" horiz-adv-x="298" 
d="M44 10v660q0 10 10 10h190q10 0 10 -10v-660q0 -10 -10 -10h-190q-10 0 -10 10zM231 739h-164q-10 0 -10 10v124q0 10 10 10h164q10 0 10 -10v-124q0 -10 -10 -10z" />
    <glyph glyph-name="dotlessi" unicode="&#x131;" horiz-adv-x="284" 
d="M232 0h-180q-10 0 -10 10v470q0 10 10 10h180q10 0 10 -10v-470q0 -10 -10 -10z" />
    <glyph glyph-name="Jcircumflex" unicode="&#x134;" horiz-adv-x="550" 
d="M15 86q-5 8 1 14l132 108q7 5 13 -1q28 -33 66 -33q70 0 70 80v416q0 10 10 10h190q10 0 10 -10v-393q0 -289 -274 -289q-70 0 -129.5 27t-88.5 71zM582 734h-113q-14 0 -24 10l-44 44h-2l-44 -44q-10 -10 -24 -10h-113q-5 0 -6.5 3t1.5 7l114 144q7 10 19 10h108
q12 0 19 -10l114 -144q3 -4 1.5 -7t-6.5 -3z" />
    <glyph glyph-name="jcircumflex" unicode="&#x135;" horiz-adv-x="284" 
d="M21 -180h-43q-10 0 -10 10v140q0 10 10 10h10q31 0 42.5 10.5t11.5 43.5v446q0 10 10 10h180q10 0 10 -10v-447q0 -112 -55.5 -162.5t-165.5 -50.5zM324 538h-113q-14 0 -24 10l-44 44h-2l-44 -44q-10 -10 -24 -10h-113q-5 0 -6.5 3t1.5 7l114 144q7 10 19 10h108
q12 0 19 -10l114 -144q3 -4 1.5 -7t-6.5 -3z" />
    <glyph glyph-name="Kcommaaccent" unicode="&#x136;" horiz-adv-x="670" 
d="M44 10v660q0 10 10 10h190q10 0 10 -10v-228l158 228q7 10 18 10h212q6 0 8 -4t-1 -9l-200 -268l204 -388q2 -4 0.5 -7.5t-6.5 -3.5h-218q-13 0 -17 10l-105 218l-53 -75v-143q0 -10 -10 -10h-190q-10 0 -10 10zM266 -259q-12 0 -12 13v195q0 10 10 10h142q10 0 10 -10
v-100q0 -16 -10 -22l-122 -78q-13 -8 -18 -8z" />
    <glyph glyph-name="kcommaaccent" unicode="&#x137;" horiz-adv-x="551" 
d="M544 0h-191q-10 0 -14 10l-80 178l-19 -29v-149q0 -10 -10 -10h-178q-10 0 -10 10v660q0 10 10 10h178q10 0 10 -10v-313l85 123q7 10 19 10h181q5 0 6.5 -3.5t-1.5 -6.5l-136 -160l155 -310q6 -10 -5 -10zM210 -259q-12 0 -12 13v195q0 10 10 10h142q10 0 10 -10v-100
q0 -16 -10 -22l-122 -78q-13 -8 -18 -8z" />
    <glyph glyph-name="kgreenlandic" unicode="&#x138;" horiz-adv-x="551" 
d="M544 0h-191q-10 0 -14 10l-80 178l-19 -29v-149q0 -10 -10 -10h-178q-10 0 -10 10v470q0 10 10 10h178q10 0 10 -10v-123l85 123q7 10 19 10h181q5 0 6.5 -3.5t-1.5 -6.5l-136 -160l155 -310q6 -10 -5 -10z" />
    <glyph glyph-name="Lacute" unicode="&#x139;" horiz-adv-x="559" 
d="M44 10v660q0 10 10 10h190q10 0 10 -10v-478q0 -6 6 -6h273q10 0 10 -10v-166q0 -10 -10 -10h-479q-10 0 -10 10zM220 738h-141q-5 0 -6 3t2 7l110 132q8 10 18 10h167q5 0 6.5 -3t-1.5 -7l-134 -132q-10 -10 -21 -10z" />
    <glyph glyph-name="lacute" unicode="&#x13a;" horiz-adv-x="329" 
d="M300 -6h-71q-102 0 -145.5 43t-43.5 147v486q0 10 10 10h180q10 0 10 -10v-462q0 -50 41 -50h19q10 0 10 -10v-144q0 -10 -10 -10zM205 738h-141q-4 0 -5.5 3t1.5 7l110 132q8 10 18 10h167q5 0 6.5 -3t-1.5 -7l-134 -132q-10 -10 -21 -10z" />
    <glyph glyph-name="Lcommaaccent" unicode="&#x13b;" horiz-adv-x="559" 
d="M44 10v660q0 10 10 10h190q10 0 10 -10v-478q0 -6 6 -6h273q10 0 10 -10v-166q0 -10 -10 -10h-479q-10 0 -10 10zM210 -259q-12 0 -12 13v195q0 10 10 10h142q10 0 10 -10v-100q0 -16 -10 -22l-122 -78q-13 -8 -18 -8z" />
    <glyph glyph-name="lcommaaccent" unicode="&#x13c;" horiz-adv-x="329" 
d="M300 -6h-71q-102 0 -145.5 43t-43.5 147v486q0 10 10 10h180q10 0 10 -10v-462q0 -50 41 -50h19q10 0 10 -10v-144q0 -10 -10 -10zM115 -259q-12 0 -12 13v195q0 10 10 10h142q10 0 10 -10v-100q0 -16 -10 -22l-122 -78q-13 -8 -18 -8z" />
    <glyph glyph-name="Lcaron" unicode="&#x13d;" horiz-adv-x="559" 
d="M44 10v660q0 10 10 10h190q10 0 10 -10v-478q0 -6 6 -6h273q10 0 10 -10v-166q0 -10 -10 -10h-479q-10 0 -10 10zM329 455q-12 0 -12 13v202q0 10 10 10h124q10 0 10 -10v-107q0 -13 -10 -22l-104 -78q-11 -8 -18 -8z" />
    <glyph glyph-name="lcaron" unicode="&#x13e;" horiz-adv-x="329" 
d="M300 -6h-71q-102 0 -145.5 43t-43.5 147v486q0 10 10 10h180q10 0 10 -10v-462q0 -50 41 -50h19q10 0 10 -10v-144q0 -10 -10 -10zM284 455q-12 0 -12 13v202q0 10 10 10h124q10 0 10 -10v-107q0 -13 -10 -22l-104 -78q-11 -8 -18 -8z" />
    <glyph glyph-name="Ldot" unicode="&#x13f;" horiz-adv-x="559" 
d="M44 10v660q0 10 10 10h190q10 0 10 -10v-478q0 -6 6 -6h273q10 0 10 -10v-166q0 -10 -10 -10h-479q-10 0 -10 10zM509 266h-160q-10 0 -10 10v160q0 10 10 10h160q10 0 10 -10v-160q0 -10 -10 -10z" />
    <glyph glyph-name="ldot" unicode="&#x140;" horiz-adv-x="454" 
d="M300 -6h-71q-102 0 -145.5 43t-43.5 147v486q0 10 10 10h180q10 0 10 -10v-462q0 -50 41 -50h19q10 0 10 -10v-144q0 -10 -10 -10zM448 255h-160q-10 0 -10 10v160q0 10 10 10h160q10 0 10 -10v-160q0 -10 -10 -10z" />
    <glyph glyph-name="Lslash" unicode="&#x141;" horiz-adv-x="559" 
d="M533 0h-479q-10 0 -10 10v218l-34 -17q-10 -5 -10 6v123q0 9 10 14l34 17v299q0 10 10 10h190q10 0 10 -10v-201l128 66q10 5 10 -6v-123q0 -9 -10 -14l-128 -66v-134q0 -6 6 -6h273q10 0 10 -10v-166q0 -10 -10 -10z" />
    <glyph glyph-name="lslash" unicode="&#x142;" horiz-adv-x="329" 
d="M300 353l-60 -31v-114q0 -50 41 -50h19q10 0 10 -10v-144q0 -10 -10 -10h-71q-102 0 -145.5 43t-43.5 147v43l-32 -16q-10 -5 -10 6v121q0 9 10 14l32 16v302q0 10 10 10h180q10 0 10 -10v-207l60 31q10 5 10 -6v-121q0 -9 -10 -14z" />
    <glyph glyph-name="Nacute" unicode="&#x143;" horiz-adv-x="650" 
d="M44 10v660q0 10 10 10h179q13 0 17 -10l162 -335h5v335q0 10 10 10h169q10 0 10 -10v-660q0 -10 -10 -10h-179q-13 0 -17 10l-161 335h-6v-335q0 -10 -10 -10h-169q-10 0 -10 10zM350 738h-141q-5 0 -6 3t2 7l110 132q8 10 18 10h167q5 0 6.5 -3t-1.5 -7l-134 -132
q-10 -10 -21 -10z" />
    <glyph glyph-name="nacute" unicode="&#x144;" horiz-adv-x="564" 
d="M514 0h-180q-10 0 -10 10v278q0 50 -41 50t-41 -50v-278q0 -10 -10 -10h-180q-10 0 -10 10v470q0 10 10 10h180q10 0 10 -10v-36h1q39 58 124 58q157 0 157 -183v-309q0 -10 -10 -10zM317 540h-143q-10 0 -5 10l83 144q7 10 17 10h165q4 0 5.5 -3.5t-0.5 -6.5l-106 -144
q-7 -10 -16 -10z" />
    <glyph glyph-name="Ncommaaccent" unicode="&#x145;" horiz-adv-x="650" 
d="M44 10v660q0 10 10 10h179q13 0 17 -10l162 -335h5v335q0 10 10 10h169q10 0 10 -10v-660q0 -10 -10 -10h-179q-13 0 -17 10l-161 335h-6v-335q0 -10 -10 -10h-169q-10 0 -10 10zM256 -259q-12 0 -12 13v195q0 10 10 10h142q10 0 10 -10v-100q0 -16 -10 -22l-122 -78
q-13 -8 -18 -8z" />
    <glyph glyph-name="ncommaaccent" unicode="&#x146;" horiz-adv-x="564" 
d="M514 0h-180q-10 0 -10 10v278q0 50 -41 50t-41 -50v-278q0 -10 -10 -10h-180q-10 0 -10 10v470q0 10 10 10h180q10 0 10 -10v-36h1q39 58 124 58q157 0 157 -183v-309q0 -10 -10 -10zM213 -259q-12 0 -12 13v195q0 10 10 10h142q10 0 10 -10v-100q0 -16 -10 -22l-122 -78
q-13 -8 -18 -8z" />
    <glyph glyph-name="Ncaron" unicode="&#x147;" horiz-adv-x="650" 
d="M44 10v660q0 10 10 10h179q13 0 17 -10l162 -335h5v335q0 10 10 10h169q10 0 10 -10v-660q0 -10 -10 -10h-179q-13 0 -17 10l-161 335h-6v-335q0 -10 -10 -10h-169q-10 0 -10 10zM379 726h-108q-12 0 -19 10l-114 144q-3 4 -1.5 7t6.5 3h113q14 0 24 -10l44 -44h2l44 44
q10 10 24 10h113q5 0 6.5 -3t-1.5 -7l-114 -144q-7 -10 -19 -10z" />
    <glyph glyph-name="ncaron" unicode="&#x148;" horiz-adv-x="564" 
d="M514 0h-180q-10 0 -10 10v278q0 50 -41 50t-41 -50v-278q0 -10 -10 -10h-180q-10 0 -10 10v470q0 10 10 10h180q10 0 10 -10v-36h1q39 58 124 58q157 0 157 -183v-309q0 -10 -10 -10zM336 534h-108q-12 0 -19 10l-114 144q-3 4 -1.5 7t6.5 3h113q14 0 24 -10l44 -44h2
l44 44q10 10 24 10h113q5 0 6.5 -3t-1.5 -7l-114 -144q-7 -10 -19 -10z" />
    <glyph glyph-name="Eng" unicode="&#x14a;" horiz-adv-x="650" 
d="M361 -192h-43q-10 0 -10 10v150q0 10 10 10h10q59 0 72 32l-161 335h-6v-335q0 -10 -10 -10h-169q-10 0 -10 10v660q0 10 10 10h179q13 0 17 -10l162 -335h5v335q0 10 10 10h169q10 0 10 -10v-616q0 -125 -61 -185.5t-184 -60.5z" />
    <glyph glyph-name="eng" unicode="&#x14b;" horiz-adv-x="564" 
d="M311 -180h-43q-10 0 -10 10v140q0 10 10 10h10q28 0 37 9.5t9 40.5v258q0 50 -41 50t-41 -50v-278q0 -10 -10 -10h-180q-10 0 -10 10v470q0 10 10 10h180q10 0 10 -10v-36h1q48 58 124 58q157 0 157 -183v-286q0 -113 -52 -163t-161 -50z" />
    <glyph glyph-name="Omacron" unicode="&#x14c;" horiz-adv-x="628" 
d="M314 -12q-95 0 -165.5 43t-97.5 126q-21 67 -21 183t21 183q27 83 97.5 126t165.5 43t165.5 -43t97.5 -126q21 -66 21 -183q0 -116 -21 -183q-27 -83 -97.5 -126t-165.5 -43zM314 174q50 0 64 43q8 25 8 123t-8 123q-14 43 -64 43t-64 -43q-8 -25 -8 -123t8 -123
q14 -43 64 -43zM476 748h-324q-10 0 -10 10v108q0 10 10 10h324q10 0 10 -10v-108q0 -10 -10 -10z" />
    <glyph glyph-name="omacron" unicode="&#x14d;" horiz-adv-x="546" 
d="M273 -12q-87 0 -149.5 37t-85.5 109q-15 45 -15 111t15 111q23 72 85.5 109t149.5 37t149.5 -37t85.5 -109q15 -45 15 -111t-15 -111q-23 -72 -85.5 -109t-149.5 -37zM273 148q33 0 42 28q6 19 6 69q0 49 -6 69q-9 28 -42 28t-42 -28q-6 -20 -6 -69t6 -69q9 -28 42 -28z
M435 548h-324q-10 0 -10 10v108q0 10 10 10h324q10 0 10 -10v-108q0 -10 -10 -10z" />
    <glyph glyph-name="Obreve" unicode="&#x14e;" horiz-adv-x="628" 
d="M314 -12q-95 0 -165.5 43t-97.5 126q-21 67 -21 183t21 183q27 83 97.5 126t165.5 43t165.5 -43t97.5 -126q21 -66 21 -183q0 -116 -21 -183q-27 -83 -97.5 -126t-165.5 -43zM314 174q50 0 64 43q8 25 8 123t-8 123q-14 43 -64 43t-64 -43q-8 -25 -8 -123t8 -123
q14 -43 64 -43zM314 721q-71 0 -120.5 44.5t-49.5 108.5q0 11 14 11h74q10 0 16 -11q19 -37 66 -37t66 37q6 11 16 11h74q14 0 14 -11q0 -64 -49.5 -108.5t-120.5 -44.5z" />
    <glyph glyph-name="obreve" unicode="&#x14f;" horiz-adv-x="546" 
d="M273 -12q-87 0 -149.5 37t-85.5 109q-15 45 -15 111t15 111q23 72 85.5 109t149.5 37t149.5 -37t85.5 -109q15 -45 15 -111t-15 -111q-23 -72 -85.5 -109t-149.5 -37zM273 148q33 0 42 28q6 19 6 69q0 49 -6 69q-9 28 -42 28t-42 -28q-6 -20 -6 -69t6 -69q9 -28 42 -28z
M273 529q-71 0 -120.5 44.5t-49.5 108.5q0 11 14 11h74q11 0 16 -11q19 -37 66 -37t66 37q5 11 16 11h74q14 0 14 -11q0 -64 -49.5 -108.5t-120.5 -44.5z" />
    <glyph glyph-name="Ohungarumlaut" unicode="&#x150;" horiz-adv-x="628" 
d="M314 -12q-95 0 -165.5 43t-97.5 126q-21 67 -21 183t21 183q27 83 97.5 126t165.5 43t165.5 -43t97.5 -126q21 -66 21 -183q0 -116 -21 -183q-27 -83 -97.5 -126t-165.5 -43zM314 174q50 0 64 43q8 25 8 123t-8 123q-14 43 -64 43t-64 -43q-8 -25 -8 -123t8 -123
q14 -43 64 -43zM471 738h-117q-11 0 -5 10l80 126q6 10 17 10h135q4 0 5.5 -3.5t-0.5 -6.5l-96 -126q-7 -10 -19 -10zM272 738h-117q-11 0 -5 10l80 126q6 10 17 10h135q4 0 5.5 -3.5t-0.5 -6.5l-96 -126q-7 -10 -19 -10z" />
    <glyph glyph-name="ohungarumlaut" unicode="&#x151;" horiz-adv-x="546" 
d="M273 -12q-87 0 -149.5 37t-85.5 109q-15 45 -15 111t15 111q23 72 85.5 109t149.5 37t149.5 -37t85.5 -109q15 -45 15 -111t-15 -111q-23 -72 -85.5 -109t-149.5 -37zM273 148q33 0 42 28q6 19 6 69q0 49 -6 69q-9 28 -42 28t-42 -28q-6 -20 -6 -69t6 -69q9 -28 42 -28z
M424 536h-117q-11 0 -6 10l72 144q5 10 16 10h135q4 0 6 -3t0 -7l-88 -144q-6 -10 -18 -10zM225 536h-117q-11 0 -6 10l72 144q5 10 16 10h135q4 0 6 -3t0 -7l-88 -144q-6 -10 -18 -10z" />
    <glyph glyph-name="OE" unicode="&#x152;" horiz-adv-x="891" 
d="M851 0h-455q-10 0 -10 10v15h-3q-35 -37 -109 -37q-169 0 -222 164q-22 69 -22 188t22 188q53 164 222 164q74 0 109 -37h3v15q0 10 10 10h455q10 0 10 -10v-154q0 -10 -10 -10h-251q-6 0 -6 -6v-66q0 -6 6 -6h201q10 0 10 -10v-150q0 -10 -10 -10h-201q-6 0 -6 -6v-72
q0 -6 6 -6h251q10 0 10 -10v-154q0 -10 -10 -10zM314 174q50 0 64 43q8 25 8 123t-8 123q-14 43 -64 43t-64 -43q-8 -25 -8 -123t8 -123q14 -43 64 -43z" />
    <glyph glyph-name="oe" unicode="&#x153;" horiz-adv-x="837" 
d="M579 -12q-94 0 -156 44h-1q-60 -44 -149 -44q-87 0 -149.5 37t-85.5 109q-15 45 -15 111t15 111q23 72 85.5 109t149.5 37t149 -44h1q60 44 143 44q186 0 233 -145q15 -47 15 -156q0 -10 -10 -10h-285q-6 0 -6 -6q0 -4 2 -10q14 -42 87 -42q55 0 107 36q8 5 14 -2l78 -86
q7 -7 -2 -15q-89 -78 -220 -78zM619 303q6 0 6 6q0 15 -3 24q-11 34 -53 34t-53 -34q-3 -9 -3 -24q0 -6 6 -6h100zM273 148q33 0 42 28q6 19 6 69q0 49 -6 69q-9 28 -42 28t-42 -28q-6 -20 -6 -69t6 -69q9 -28 42 -28z" />
    <glyph glyph-name="Racute" unicode="&#x154;" horiz-adv-x="635" 
d="M605 0h-209q-11 0 -15 10l-87 212h-35q-6 0 -6 -6v-206q0 -10 -10 -10h-189q-10 0 -10 10v660q0 10 10 10h284q127 0 194.5 -63t67.5 -166q0 -131 -102 -191l114 -249q4 -11 -7 -11zM322 390q68 0 68 58t-68 58h-63q-6 0 -6 -6v-104q0 -6 6 -6h63zM332 738h-141
q-5 0 -6 3t2 7l110 132q8 10 18 10h167q5 0 6.5 -3t-1.5 -7l-134 -132q-10 -10 -21 -10z" />
    <glyph glyph-name="racute" unicode="&#x155;" horiz-adv-x="431" 
d="M232 0h-180q-10 0 -10 10v470q0 10 10 10h180q10 0 10 -10v-44h1q31 66 127 66q29 0 46 -5q9 -2 6 -13l-58 -185q-5 -6 -14 -1q-42 24 -71 17q-37 -9 -37 -64v-241q0 -10 -10 -10zM283 540h-143q-10 0 -5 10l83 144q7 10 17 10h165q4 0 5.5 -3.5t-0.5 -6.5l-106 -144
q-7 -10 -16 -10z" />
    <glyph glyph-name="Rcommaaccent" unicode="&#x156;" horiz-adv-x="635" 
d="M605 0h-209q-11 0 -15 10l-87 212h-35q-6 0 -6 -6v-206q0 -10 -10 -10h-189q-10 0 -10 10v660q0 10 10 10h284q127 0 194.5 -63t67.5 -166q0 -131 -102 -191l114 -249q4 -11 -7 -11zM322 390q68 0 68 58t-68 58h-63q-6 0 -6 -6v-104q0 -6 6 -6h63zM248 -259q-12 0 -12 13
v195q0 10 10 10h142q10 0 10 -10v-100q0 -16 -10 -22l-122 -78q-13 -8 -18 -8z" />
    <glyph glyph-name="rcommaaccent" unicode="&#x157;" horiz-adv-x="431" 
d="M232 0h-180q-10 0 -10 10v470q0 10 10 10h180q10 0 10 -10v-44h1q31 66 127 66q29 0 46 -5q9 -2 6 -13l-58 -185q-5 -6 -14 -1q-42 24 -71 17q-37 -9 -37 -64v-241q0 -10 -10 -10zM73 -259q-12 0 -12 13v195q0 10 10 10h142q10 0 10 -10v-100q0 -16 -10 -22l-122 -78
q-13 -8 -18 -8z" />
    <glyph glyph-name="Rcaron" unicode="&#x158;" horiz-adv-x="635" 
d="M605 0h-209q-11 0 -15 10l-87 212h-35q-6 0 -6 -6v-206q0 -10 -10 -10h-189q-10 0 -10 10v660q0 10 10 10h284q127 0 194.5 -63t67.5 -166q0 -131 -102 -191l114 -249q4 -11 -7 -11zM322 390q68 0 68 58t-68 58h-63q-6 0 -6 -6v-104q0 -6 6 -6h63zM345 726h-108
q-12 0 -19 10l-114 144q-3 4 -1.5 7t6.5 3h113q14 0 24 -10l44 -44h2l44 44q10 10 24 10h113q5 0 6.5 -3t-1.5 -7l-114 -144q-7 -10 -19 -10z" />
    <glyph glyph-name="rcaron" unicode="&#x159;" horiz-adv-x="431" 
d="M232 0h-180q-10 0 -10 10v470q0 10 10 10h180q10 0 10 -10v-44h1q31 66 127 66q29 0 46 -5q9 -2 6 -13l-58 -185q-5 -6 -14 -1q-42 24 -71 17q-37 -9 -37 -64v-241q0 -10 -10 -10zM290 534h-108q-12 0 -19 10l-114 144q-3 4 -1.5 7t6.5 3h113q14 0 24 -10l44 -44h2l44 44
q10 10 24 10h113q5 0 6.5 -3t-1.5 -7l-114 -144q-7 -10 -19 -10z" />
    <glyph glyph-name="Sacute" unicode="&#x15a;" horiz-adv-x="617" 
d="M306 -12q-85 0 -165 29.5t-121 70.5q-9 9 -1 18l106 125q6 8 13 1q31 -28 76 -47t90 -19q78 0 78 44q0 14 -13.5 22.5t-50.5 13.5l-36 5q-119 17 -179 71.5t-60 153.5q0 97 72 156.5t193 59.5q154 0 257 -78q10 -6 2 -17l-90 -128q-6 -8 -14 -3q-74 49 -147 49
q-58 0 -58 -37q0 -15 14.5 -23.5t50.5 -13.5l36 -5q122 -17 180 -71.5t58 -154.5t-76 -161t-215 -61zM360 738h-141q-5 0 -6 3t2 7l110 132q8 10 18 10h167q5 0 6.5 -3t-1.5 -7l-134 -132q-10 -10 -21 -10z" />
    <glyph glyph-name="sacute" unicode="&#x15b;" horiz-adv-x="520" 
d="M257 -12q-156 0 -247 74q-7 7 -1 14l79 100q6 6 14 2q88 -50 168 -50q47 0 47 22q0 8 -9.5 12t-40.5 8l-56 6q-86 9 -133 49.5t-47 111.5q0 75 60 120t165 45q142 0 226 -62q8 -6 1 -15l-70 -93q-6 -8 -15 -3q-67 37 -142 37q-40 0 -40 -19q0 -7 8 -11t35 -7l56 -6
q102 -11 145.5 -52.5t41.5 -109.5q-2 -79 -67 -126t-178 -47zM316 540h-143q-10 0 -5 10l83 144q7 10 17 10h165q4 0 5.5 -3.5t-0.5 -6.5l-106 -144q-8 -10 -16 -10z" />
    <glyph glyph-name="Scircumflex" unicode="&#x15c;" horiz-adv-x="617" 
d="M306 -12q-85 0 -165 29.5t-121 70.5q-9 9 -1 18l106 125q6 8 13 1q31 -28 76 -47t90 -19q78 0 78 44q0 14 -13.5 22.5t-50.5 13.5l-36 5q-119 17 -179 71.5t-60 153.5q0 97 72 156.5t193 59.5q154 0 257 -78q10 -6 2 -17l-90 -128q-6 -8 -14 -3q-74 49 -147 49
q-58 0 -58 -37q0 -15 14.5 -23.5t50.5 -13.5l36 -5q122 -17 180 -71.5t58 -154.5t-76 -161t-215 -61zM496 734h-113q-14 0 -24 10l-44 44h-2l-44 -44q-10 -10 -24 -10h-113q-5 0 -6.5 3t1.5 7l114 144q7 10 19 10h108q12 0 19 -10l114 -144q3 -4 1.5 -7t-6.5 -3z" />
    <glyph glyph-name="scircumflex" unicode="&#x15d;" horiz-adv-x="520" 
d="M257 -12q-156 0 -247 74q-7 7 -1 14l79 100q6 6 14 2q88 -50 168 -50q47 0 47 22q0 8 -9.5 12t-40.5 8l-56 6q-86 9 -133 49.5t-47 111.5q0 75 60 120t165 45q142 0 226 -62q8 -6 1 -15l-70 -93q-6 -8 -15 -3q-67 37 -142 37q-40 0 -40 -19q0 -7 8 -11t35 -7l56 -6
q102 -11 145.5 -52.5t41.5 -109.5q-2 -79 -67 -126t-178 -47zM447 538h-113q-14 0 -24 10l-44 44h-2l-44 -44q-10 -10 -24 -10h-113q-5 0 -6.5 3t1.5 7l114 144q7 10 19 10h108q12 0 19 -10l114 -144q3 -4 1.5 -7t-6.5 -3z" />
    <glyph glyph-name="Scedilla" unicode="&#x15e;" horiz-adv-x="617" 
d="M333 -172h-138q-10 0 -7 10l61 154q-71 8 -133.5 35t-95.5 61q-9 9 -1 18l106 125q6 8 13 1q31 -28 76 -47t90 -19q78 0 78 44q0 14 -13.5 22.5t-50.5 13.5l-36 5q-119 17 -179 71.5t-60 153.5q0 97 72 156.5t193 59.5q154 0 257 -78q10 -6 2 -17l-90 -128q-6 -8 -14 -3
q-74 49 -147 49q-58 0 -58 -37q0 -15 14.5 -23.5t50.5 -13.5l36 -5q122 -17 180 -71.5t58 -154.5q0 -83 -52 -139.5t-151 -74.5l-46 -158q-2 -10 -15 -10z" />
    <glyph glyph-name="scedilla" unicode="&#x15f;" horiz-adv-x="520" 
d="M282 -172h-138q-10 0 -7 10l60 153q-118 14 -187 71q-7 7 -1 14l79 100q6 6 14 2q88 -50 168 -50q47 0 47 22q0 8 -9.5 12t-40.5 8l-56 6q-86 9 -133 49.5t-47 111.5q0 75 60 120t165 45q142 0 226 -62q8 -6 1 -15l-70 -93q-6 -8 -15 -3q-67 37 -142 37q-40 0 -40 -19
q0 -7 8 -11t35 -7l56 -6q102 -11 145.5 -52.5t41.5 -109.5q-2 -63 -43.5 -106t-115.5 -58l-46 -159q-3 -10 -15 -10z" />
    <glyph glyph-name="Scaron" unicode="&#x160;" horiz-adv-x="617" 
d="M306 -12q-85 0 -165 29.5t-121 70.5q-9 9 -1 18l106 125q6 8 13 1q31 -28 76 -47t90 -19q78 0 78 44q0 14 -13.5 22.5t-50.5 13.5l-36 5q-119 17 -179 71.5t-60 153.5q0 97 72 156.5t193 59.5q154 0 257 -78q10 -6 2 -17l-90 -128q-6 -8 -14 -3q-74 49 -147 49
q-58 0 -58 -37q0 -15 14.5 -23.5t50.5 -13.5l36 -5q122 -17 180 -71.5t58 -154.5t-76 -161t-215 -61zM362 726h-108q-12 0 -19 10l-114 144q-3 4 -1.5 7t6.5 3h113q14 0 24 -10l44 -44h2l44 44q10 10 24 10h113q5 0 6.5 -3t-1.5 -7l-114 -144q-7 -10 -19 -10z" />
    <glyph glyph-name="scaron" unicode="&#x161;" horiz-adv-x="520" 
d="M257 -12q-156 0 -247 74q-7 7 -1 14l79 100q6 6 14 2q88 -50 168 -50q47 0 47 22q0 8 -9.5 12t-40.5 8l-56 6q-86 9 -133 49.5t-47 111.5q0 75 60 120t165 45q142 0 226 -62q8 -6 1 -15l-70 -93q-6 -8 -15 -3q-67 37 -142 37q-40 0 -40 -19q0 -7 8 -11t35 -7l56 -6
q102 -11 145.5 -52.5t41.5 -109.5q-2 -79 -67 -126t-178 -47zM308 534h-108q-12 0 -19 10l-114 144q-3 4 -1.5 7t6.5 3h113q14 0 24 -10l44 -44h2l44 44q10 10 24 10h113q5 0 6.5 -3t-1.5 -7l-114 -144q-7 -10 -19 -10z" />
    <glyph glyph-name="Tcommaaccent" unicode="&#x162;" horiz-adv-x="576" 
d="M383 0h-190q-10 0 -10 10v478q0 6 -6 6h-161q-10 0 -10 10v166q0 10 10 10h544q10 0 10 -10v-166q0 -10 -10 -10h-161q-6 0 -6 -6v-478q0 -10 -10 -10zM219 -259q-12 0 -12 13v195q0 10 10 10h142q10 0 10 -10v-100q0 -16 -10 -22l-122 -78q-13 -8 -18 -8z" />
    <glyph glyph-name="tcommaaccent" unicode="&#x163;" horiz-adv-x="352" 
d="M322 -6h-61q-111 0 -157 47.5t-46 163.5v139q0 6 -6 6h-26q-10 0 -10 10v120q0 10 10 10h26q6 0 6 6v124q0 10 10 10h178q10 0 10 -10v-124q0 -6 6 -6h60q10 0 10 -10v-120q0 -10 -10 -10h-60q-6 0 -6 -6v-131q0 -32 9.5 -43.5t36.5 -11.5h20q10 0 10 -10v-144
q0 -10 -10 -10zM135 -259q-12 0 -12 13v195q0 10 10 10h142q10 0 10 -10v-100q0 -16 -10 -22l-122 -78q-13 -8 -18 -8z" />
    <glyph glyph-name="Tcaron" unicode="&#x164;" horiz-adv-x="576" 
d="M383 0h-190q-10 0 -10 10v478q0 6 -6 6h-161q-10 0 -10 10v166q0 10 10 10h544q10 0 10 -10v-166q0 -10 -10 -10h-161q-6 0 -6 -6v-478q0 -10 -10 -10zM342 726h-108q-12 0 -19 10l-114 144q-3 4 -1.5 7t6.5 3h113q14 0 24 -10l44 -44h2l44 44q10 10 24 10h113
q5 0 6.5 -3t-1.5 -7l-114 -144q-7 -10 -19 -10z" />
    <glyph glyph-name="tcaron" unicode="&#x165;" horiz-adv-x="392" 
d="M322 -6h-61q-111 0 -157 47.5t-46 163.5v139q0 6 -6 6h-26q-10 0 -10 10v120q0 10 10 10h26q6 0 6 6v124q0 10 10 10h178q10 0 10 -10v-124q0 -6 6 -6h60q10 0 10 -10v-120q0 -10 -10 -10h-60q-6 0 -6 -6v-131q0 -32 9.5 -43.5t36.5 -11.5h20q10 0 10 -10v-144
q0 -10 -10 -10zM375 455q-12 0 -12 13v202q0 10 10 10h124q10 0 10 -10v-107q0 -13 -10 -22l-104 -78q-11 -8 -18 -8z" />
    <glyph glyph-name="Tbar" unicode="&#x166;" horiz-adv-x="576" 
d="M383 0h-190q-10 0 -10 10v255q0 6 -6 6h-64q-10 0 -10 10v116q0 10 10 10h64q6 0 6 6v75q0 6 -6 6h-161q-10 0 -10 10v166q0 10 10 10h544q10 0 10 -10v-166q0 -10 -10 -10h-161q-6 0 -6 -6v-75q0 -6 6 -6h64q10 0 10 -10v-116q0 -10 -10 -10h-64q-6 0 -6 -6v-255
q0 -10 -10 -10z" />
    <glyph glyph-name="tbar" unicode="&#x167;" horiz-adv-x="352" 
d="M322 -6h-61q-110 0 -156.5 47t-46.5 159v10q0 6 -6 6h-18q-10 0 -10 10v79q0 10 10 10h18q6 0 6 6v23q0 6 -6 6h-26q-10 0 -10 10v120q0 10 10 10h26q6 0 6 6v124q0 10 10 10h178q10 0 10 -10v-124q0 -6 6 -6h60q10 0 10 -10v-120q0 -10 -10 -10h-60q-6 0 -6 -6v-23
q0 -6 6 -6h44q10 0 10 -10v-79q0 -10 -10 -10h-44q-6 0 -6 -6v-10q0 -42 46 -42h20q10 0 10 -10v-144q0 -10 -10 -10z" />
    <glyph glyph-name="Utilde" unicode="&#x168;" horiz-adv-x="650" 
d="M326 -12q-133 0 -208 73t-75 216v393q0 10 10 10h190q10 0 10 -10v-411q0 -85 72 -85t72 85v411q0 10 10 10h190q10 0 10 -10v-393q0 -143 -74.5 -216t-206.5 -73zM401 730q-40 0 -94 26q-36 17 -61 17q-38 0 -81 -33q-11 -7 -11 4v92q0 14 10 24q41 39 86 39
q40 0 94 -26q36 -17 61 -17q37 0 81 33q11 7 11 -4v-92q0 -14 -10 -24q-41 -39 -86 -39z" />
    <glyph glyph-name="utilde" unicode="&#x169;" horiz-adv-x="562" 
d="M510 0h-180q-10 0 -10 10v36h-1q-39 -58 -124 -58q-156 0 -156 183v309q0 10 10 10h180q10 0 10 -10v-278q0 -50 41 -50q40 0 40 50v278q0 10 10 10h180q10 0 10 -10v-470q0 -10 -10 -10zM356 536q-40 0 -94 26q-36 17 -61 17q-37 0 -81 -33q-11 -7 -11 4v92q0 14 10 24
q41 39 86 39q40 0 94 -26q36 -17 61 -17q38 0 81 33q11 7 11 -4v-92q0 -14 -10 -24q-41 -39 -86 -39z" />
    <glyph glyph-name="Umacron" unicode="&#x16a;" horiz-adv-x="650" 
d="M326 -12q-133 0 -208 73t-75 216v393q0 10 10 10h190q10 0 10 -10v-411q0 -85 72 -85t72 85v411q0 10 10 10h190q10 0 10 -10v-393q0 -143 -74.5 -216t-206.5 -73zM487 748h-324q-10 0 -10 10v108q0 10 10 10h324q10 0 10 -10v-108q0 -10 -10 -10z" />
    <glyph glyph-name="umacron" unicode="&#x16b;" horiz-adv-x="562" 
d="M510 0h-180q-10 0 -10 10v36h-1q-39 -58 -124 -58q-156 0 -156 183v309q0 10 10 10h180q10 0 10 -10v-278q0 -50 41 -50q40 0 40 50v278q0 10 10 10h180q10 0 10 -10v-470q0 -10 -10 -10zM443 548h-324q-10 0 -10 10v108q0 10 10 10h324q10 0 10 -10v-108q0 -10 -10 -10z
" />
    <glyph glyph-name="Ubreve" unicode="&#x16c;" horiz-adv-x="650" 
d="M326 -12q-133 0 -208 73t-75 216v393q0 10 10 10h190q10 0 10 -10v-411q0 -85 72 -85t72 85v411q0 10 10 10h190q10 0 10 -10v-393q0 -143 -74.5 -216t-206.5 -73zM325 721q-71 0 -120.5 44.5t-49.5 108.5q0 11 14 11h74q11 0 16 -11q19 -37 66 -37t66 37q5 11 16 11h74
q14 0 14 -11q0 -64 -49.5 -108.5t-120.5 -44.5z" />
    <glyph glyph-name="ubreve" unicode="&#x16d;" horiz-adv-x="562" 
d="M510 0h-180q-10 0 -10 10v36h-1q-39 -58 -124 -58q-156 0 -156 183v309q0 10 10 10h180q10 0 10 -10v-278q0 -50 41 -50q40 0 40 50v278q0 10 10 10h180q10 0 10 -10v-470q0 -10 -10 -10zM281 529q-71 0 -120.5 44.5t-49.5 108.5q0 11 14 11h74q11 0 16 -11
q19 -37 66 -37t66 37q5 11 16 11h74q14 0 14 -11q0 -64 -49.5 -108.5t-120.5 -44.5z" />
    <glyph glyph-name="Uring" unicode="&#x16e;" horiz-adv-x="650" 
d="M326 -12q-133 0 -208 73t-75 216v393q0 10 10 10h190q10 0 10 -10v-411q0 -85 72 -85t72 85v411q0 10 10 10h190q10 0 10 -10v-393q0 -143 -74.5 -216t-206.5 -73zM325 694q-53 0 -88.5 34.5t-35.5 87.5t35.5 87.5t88.5 34.5t88.5 -34.5t35.5 -87.5t-35.5 -87.5
t-88.5 -34.5zM325 775q17 0 28.5 11.5t11.5 29.5t-11.5 29.5t-28.5 11.5t-28.5 -11.5t-11.5 -29.5t11.5 -29.5t28.5 -11.5z" />
    <glyph glyph-name="uring" unicode="&#x16f;" horiz-adv-x="562" 
d="M510 0h-180q-10 0 -10 10v36h-1q-39 -58 -124 -58q-156 0 -156 183v309q0 10 10 10h180q10 0 10 -10v-278q0 -50 41 -50q40 0 40 50v278q0 10 10 10h180q10 0 10 -10v-470q0 -10 -10 -10zM281 512q-53 0 -88.5 34.5t-35.5 87.5t35.5 87.5t88.5 34.5t88.5 -34.5
t35.5 -87.5t-35.5 -87.5t-88.5 -34.5zM281 593q17 0 28.5 11.5t11.5 29.5t-11.5 29.5t-28.5 11.5t-28.5 -11.5t-11.5 -29.5t11.5 -29.5t28.5 -11.5z" />
    <glyph glyph-name="Uhungarumlaut" unicode="&#x170;" horiz-adv-x="650" 
d="M326 -12q-133 0 -208 73t-75 216v393q0 10 10 10h190q10 0 10 -10v-411q0 -85 72 -85t72 85v411q0 10 10 10h190q10 0 10 -10v-393q0 -143 -74.5 -216t-206.5 -73zM468 738h-117q-11 0 -5 10l80 126q6 10 17 10h135q4 0 5.5 -3.5t-0.5 -6.5l-96 -126q-7 -10 -19 -10z
M269 738h-117q-11 0 -5 10l80 126q6 10 17 10h135q4 0 5.5 -3.5t-0.5 -6.5l-96 -126q-8 -10 -19 -10z" />
    <glyph glyph-name="uhungarumlaut" unicode="&#x171;" horiz-adv-x="562" 
d="M510 0h-180q-10 0 -10 10v36h-1q-39 -58 -124 -58q-156 0 -156 183v309q0 10 10 10h180q10 0 10 -10v-278q0 -50 41 -50q40 0 40 50v278q0 10 10 10h180q10 0 10 -10v-470q0 -10 -10 -10zM437 536h-117q-11 0 -6 10l72 144q5 10 16 10h135q5 0 6.5 -3t-0.5 -7l-88 -144
q-6 -10 -18 -10zM238 536h-117q-11 0 -6 10l72 144q5 10 16 10h135q4 0 6 -3t0 -7l-88 -144q-6 -10 -18 -10z" />
    <glyph glyph-name="Uogonek" unicode="&#x172;" horiz-adv-x="650" 
d="M336 -192q-55 0 -86.5 28.5t-31.5 72.5q0 50 38 85q-101 18 -157 89t-56 194v393q0 10 10 10h190q10 0 10 -10v-411q0 -85 72 -85t72 85v411q0 10 10 10h190q10 0 10 -10v-393q0 -117 -50.5 -187.5t-142.5 -91.5q-36 -23 -47 -34t-11 -20q0 -10 13 -10q11 0 24 9
q8 5 13 -3l46 -83q5 -8 -4 -14q-54 -35 -112 -35z" />
    <glyph glyph-name="uogonek" unicode="&#x173;" horiz-adv-x="562" 
d="M399 -192q-55 0 -86.5 28.5t-31.5 72.5q0 57 60 91h-11q-10 0 -10 10v36h-1q-39 -58 -124 -58q-156 0 -156 183v309q0 10 10 10h180q10 0 10 -10v-278q0 -50 41 -50q40 0 40 50v278q0 10 10 10h180q10 0 10 -10v-470q0 -7 -8 -10q-93 -32 -93 -56q0 -10 13 -10q10 0 24 9
q8 5 13 -3l46 -83q5 -8 -4 -14q-54 -35 -112 -35z" />
    <glyph glyph-name="Wcircumflex" unicode="&#x174;" horiz-adv-x="956" 
d="M741 0h-154q-11 0 -14 10l-94 329h-2l-94 -329q-3 -10 -14 -10h-154q-11 0 -14 10l-195 660q-3 10 7 10h206q11 0 13 -10l76 -360h2l94 360q3 10 14 10h121q11 0 14 -10l98 -360h2l73 360q2 10 13 10h204q10 0 7 -10l-195 -660q-3 -10 -14 -10zM660 734h-113
q-14 0 -24 10l-44 44h-2l-44 -44q-10 -10 -24 -10h-113q-5 0 -6.5 3t1.5 7l114 144q7 10 19 10h108q12 0 19 -10l114 -144q3 -4 1.5 -7t-6.5 -3z" />
    <glyph glyph-name="wcircumflex" unicode="&#x175;" horiz-adv-x="784" 
d="M605 0h-135q-9 0 -12 10l-64 215h-2l-66 -215q-3 -10 -12 -10h-135q-9 0 -12 10l-161 469q-4 11 8 11h179q12 0 15 -10l52 -220h2l64 220q3 10 14 10h107q11 0 14 -10l65 -220h2l48 220q3 10 15 10h179q12 0 8 -11l-161 -469q-3 -10 -12 -10zM574 538h-113q-14 0 -24 10
l-44 44h-2l-44 -44q-10 -10 -24 -10h-113q-5 0 -6.5 3t1.5 7l114 144q7 10 19 10h108q12 0 19 -10l114 -144q3 -4 1.5 -7t-6.5 -3z" />
    <glyph glyph-name="Ycircumflex" unicode="&#x176;" horiz-adv-x="641" 
d="M416 0h-190q-10 0 -10 10v244l-211 415q-5 11 7 11h189q11 0 17 -10l104 -213h3l101 213q4 10 17 10h187q12 0 7 -11l-211 -415v-244q0 -10 -10 -10zM502 734h-113q-14 0 -24 10l-44 44h-2l-44 -44q-10 -10 -24 -10h-113q-5 0 -6.5 3t1.5 7l114 144q7 10 19 10h108
q12 0 19 -10l114 -144q3 -4 1.5 -7t-6.5 -3z" />
    <glyph glyph-name="ycircumflex" unicode="&#x177;" horiz-adv-x="559" 
d="M140 -180h-41q-10 0 -10 10v140q0 10 10 10h30q42 0 54 32l9 25l-188 443q-4 10 7 10h189q10 0 13 -10l70 -201h2l64 201q3 10 13 10h186q11 0 7 -10l-229 -551q-26 -63 -67 -86t-119 -23zM461 538h-113q-14 0 -24 10l-44 44h-2l-44 -44q-10 -10 -24 -10h-113
q-5 0 -6.5 3t1.5 7l114 144q7 10 19 10h108q12 0 19 -10l114 -144q3 -4 1.5 -7t-6.5 -3z" />
    <glyph glyph-name="Ydieresis" unicode="&#x178;" horiz-adv-x="641" 
d="M416 0h-190q-10 0 -10 10v244l-211 415q-5 11 7 11h189q11 0 17 -10l104 -213h3l101 213q4 10 17 10h187q12 0 7 -11l-211 -415v-244q0 -10 -10 -10zM488 739h-126q-10 0 -10 10v124q0 10 10 10h126q10 0 10 -10v-124q0 -10 -10 -10zM278 739h-126q-10 0 -10 10v124
q0 10 10 10h126q10 0 10 -10v-124q0 -10 -10 -10z" />
    <glyph glyph-name="Zacute" unicode="&#x179;" horiz-adv-x="580" 
d="M540 0h-500q-10 0 -10 10v162q0 6 3 10l269 309v3h-251q-10 0 -10 10v166q0 10 10 10h489q10 0 10 -10v-162q0 -6 -3 -10l-270 -309v-3h263q10 0 10 -10v-166q0 -10 -10 -10zM337 738h-141q-4 0 -5.5 3t1.5 7l110 132q8 10 18 10h167q5 0 6.5 -3t-1.5 -7l-134 -132
q-10 -10 -21 -10z" />
    <glyph glyph-name="zacute" unicode="&#x17a;" horiz-adv-x="499" 
d="M459 0h-417q-10 0 -10 10v129q0 5 3 10l199 184v3h-181q-10 0 -10 10v134q0 10 10 10h406q10 0 10 -10v-134q0 -6 -3 -10l-198 -179v-3h191q10 0 10 -10v-134q0 -10 -10 -10zM305 540h-143q-10 0 -5 10l83 144q7 10 17 10h165q4 0 5.5 -3.5t-0.5 -6.5l-106 -144
q-7 -10 -16 -10z" />
    <glyph glyph-name="Zdotaccent" unicode="&#x17b;" horiz-adv-x="580" 
d="M540 0h-500q-10 0 -10 10v162q0 6 3 10l269 309v3h-251q-10 0 -10 10v166q0 10 10 10h489q10 0 10 -10v-162q0 -6 -3 -10l-270 -309v-3h263q10 0 10 -10v-166q0 -10 -10 -10zM374 739h-164q-10 0 -10 10v124q0 10 10 10h164q10 0 10 -10v-124q0 -10 -10 -10z" />
    <glyph glyph-name="zdotaccent" unicode="&#x17c;" horiz-adv-x="499" 
d="M459 0h-417q-10 0 -10 10v129q0 5 3 10l199 184v3h-181q-10 0 -10 10v134q0 10 10 10h406q10 0 10 -10v-134q0 -6 -3 -10l-198 -179v-3h191q10 0 10 -10v-134q0 -10 -10 -10zM336 536h-164q-10 0 -10 10v124q0 10 10 10h164q10 0 10 -10v-124q0 -10 -10 -10z" />
    <glyph glyph-name="Zcaron" unicode="&#x17d;" horiz-adv-x="580" 
d="M540 0h-500q-10 0 -10 10v162q0 6 3 10l269 309v3h-251q-10 0 -10 10v166q0 10 10 10h489q10 0 10 -10v-162q0 -6 -3 -10l-270 -309v-3h263q10 0 10 -10v-166q0 -10 -10 -10zM346 726h-108q-12 0 -19 10l-114 144q-3 4 -1.5 7t6.5 3h113q14 0 24 -10l44 -44h2l44 44
q10 10 24 10h113q5 0 6.5 -3t-1.5 -7l-114 -144q-7 -10 -19 -10z" />
    <glyph glyph-name="zcaron" unicode="&#x17e;" horiz-adv-x="499" 
d="M459 0h-417q-10 0 -10 10v129q0 5 3 10l199 184v3h-181q-10 0 -10 10v134q0 10 10 10h406q10 0 10 -10v-134q0 -6 -3 -10l-198 -179v-3h191q10 0 10 -10v-134q0 -10 -10 -10zM308 534h-108q-12 0 -19 10l-114 144q-3 4 -1.5 7t6.5 3h113q14 0 24 -10l44 -44h2l44 44
q10 10 24 10h113q5 0 6.5 -3t-1.5 -7l-114 -144q-7 -10 -19 -10z" />
    <glyph glyph-name="florin" unicode="&#x192;" 
d="M468 289h-79l-43 -278q-17 -107 -69 -149t-155 -42h-41q-10 0 -10 10v142q0 10 10 10h23q42 0 49 43l41 264h-54q-10 0 -10 10v126q0 10 10 10h76l9 54q17 107 69 149t155 42h41q10 0 10 -10v-142q0 -10 -10 -10h-23q-42 0 -49 -43l-6 -40h56q10 0 10 -10v-126
q0 -10 -10 -10z" />
    <glyph glyph-name="Aringacute" unicode="&#x1fa;" horiz-adv-x="708" 
d="M419 768h-139q-4 0 -5.5 3.5t1.5 6.5l109 102q10 10 21 10h170q5 0 6 -3.5t-3 -6.5l-134 -102q-13 -10 -26 -10zM692 0h-203q-7 0 -10 10l-26 89h-198l-26 -89q-3 -10 -10 -10h-203q-5 0 -8 3t-2 7l202 562q3 10 14 10h18q-6 20 -6 42q0 53 35.5 87.5t88.5 34.5
t88.5 -34.5t35.5 -87.5q0 -24 -7 -42h16q11 0 14 -10l197 -562q1 -4 -2 -7t-8 -3zM358 583q17 0 28.5 11.5t11.5 29.5t-11.5 29.5t-28.5 11.5t-28.5 -11.5t-11.5 -29.5t11.5 -29.5t28.5 -11.5zM354 431l-48 -161h97l-46 161h-3z" />
    <glyph glyph-name="aringacute" unicode="&#x1fb;" horiz-adv-x="537" 
d="M335 772h-137q-4 0 -5.5 3.5t1.5 6.5l105 98q10 10 21 10h170q5 0 6 -3.5t-3 -6.5l-132 -98q-13 -10 -26 -10zM488 0h-169q-10 0 -10 10v24h-1q-44 -46 -128 -46q-66 0 -111 38t-45 113q0 81 59.5 122.5t155.5 41.5h65q6 0 6 6v8q0 19 -17.5 26.5t-68.5 7.5
q-61 0 -102 -25q-9 -5 -13 3l-60 108q-6 11 3 17q73 48 200 48q134 0 190 -45.5t56 -144.5v-302q0 -10 -10 -10zM253 124q57 0 57 35v26q0 6 -6 6h-47q-47 0 -47 -35q0 -32 43 -32zM268 512q-53 0 -88.5 34.5t-35.5 87.5t35.5 87.5t88.5 34.5t88.5 -34.5t35.5 -87.5
t-35.5 -87.5t-88.5 -34.5zM268 593q17 0 28.5 11.5t11.5 29.5t-11.5 29.5t-28.5 11.5t-28.5 -11.5t-11.5 -29.5t11.5 -29.5t28.5 -11.5z" />
    <glyph glyph-name="AEacute" unicode="&#x1fc;" horiz-adv-x="935" 
d="M895 0h-455q-10 0 -10 10v83q0 6 -6 6h-161l-35 -89q-4 -10 -14 -10h-201q-11 0 -6 10l286 660q5 10 14 10h588q10 0 10 -10v-154q0 -10 -10 -10h-251q-6 0 -6 -6v-66q0 -6 6 -6h201q10 0 10 -10v-150q0 -10 -10 -10h-201q-6 0 -6 -6v-72q0 -6 6 -6h251q10 0 10 -10v-154
q0 -10 -10 -10zM426 506l-94 -236h92q6 0 6 6v230h-4zM523 738h-141q-4 0 -5.5 3t1.5 7l110 132q8 10 18 10h167q5 0 6.5 -3t-1.5 -7l-134 -132q-10 -10 -21 -10z" />
    <glyph glyph-name="aeacute" unicode="&#x1fd;" horiz-adv-x="822" 
d="M564 -12q-49 0 -93.5 17.5t-70.5 46.5h-1q-58 -64 -186 -64q-189 0 -189 151q0 81 59.5 122.5t155.5 41.5h65q6 0 6 6v8q0 19 -17.5 26.5t-68.5 7.5q-61 0 -102 -25q-9 -5 -13 3l-60 108q-6 11 3 17q73 48 200 48q93 0 166 -39h1q57 39 132 39q186 0 233 -145
q15 -47 15 -156q0 -10 -10 -10h-285q-6 0 -6 -6q0 -4 2 -10q14 -42 87 -42q55 0 107 36q8 5 14 -2l78 -86q7 -7 -2 -15q-89 -78 -220 -78zM604 303q6 0 6 6q0 15 -3 24q-11 34 -53 34t-53 -34q-3 -9 -3 -24q0 -6 6 -6h100zM253 124q57 0 57 35v26q0 6 -6 6h-47
q-47 0 -47 -35q0 -32 43 -32zM470 540h-143q-10 0 -5 10l83 144q7 10 17 10h165q4 0 5.5 -3.5t-0.5 -6.5l-106 -144q-8 -10 -16 -10z" />
    <glyph glyph-name="Oslashacute" unicode="&#x1fe;" horiz-adv-x="628" 
d="M314 -12q-80 0 -143 30l-25 -38q-6 -10 -17 -10h-124q-11 0 -5 10l79 118q-18 26 -28 59q-21 67 -21 183t21 183q27 83 97.5 126t165.5 43q80 0 142 -30l26 38q6 10 17 10h124q11 0 5 -10l-79 -119q18 -28 28 -58q21 -66 21 -183q0 -116 -21 -183q-27 -83 -97.5 -126
t-165.5 -43zM314 174q50 0 64 43q8 25 8 123t-8 123q-14 43 -64 43t-64 -43q-8 -25 -8 -123t8 -123q14 -43 64 -43zM368 738h-141q-5 0 -6 3t2 7l110 132q8 10 18 10h167q5 0 6.5 -3t-1.5 -7l-134 -132q-10 -10 -21 -10z" />
    <glyph glyph-name="oslashacute" unicode="&#x1ff;" horiz-adv-x="546" 
d="M113 -30h-106q-5 0 -6 3t2 7l69 90q-22 26 -34 64q-15 45 -15 111t15 111q23 72 85.5 109t149.5 37q67 0 118 -22l23 30q7 10 19 10h106q5 0 6 -3t-2 -7l-70 -90q23 -27 35 -64q15 -45 15 -111t-15 -111q-23 -72 -85.5 -109t-149.5 -37q-66 0 -119 21l-22 -29
q-7 -10 -19 -10zM273 148q33 0 42 28q6 19 6 69q0 49 -6 69q-9 28 -42 28t-42 -28q-6 -20 -6 -69t6 -69q9 -28 42 -28zM332 540h-143q-10 0 -5 10l83 144q7 10 17 10h165q4 0 5.5 -3.5t-0.5 -6.5l-106 -144q-8 -10 -16 -10z" />
    <glyph glyph-name="Scommaaccent" unicode="&#x218;" horiz-adv-x="617" 
d="M306 -12q-85 0 -165 29.5t-121 70.5q-9 9 -1 18l106 125q6 8 13 1q31 -28 76 -47t90 -19q78 0 78 44q0 14 -13.5 22.5t-50.5 13.5l-36 5q-119 17 -179 71.5t-60 153.5q0 97 72 156.5t193 59.5q154 0 257 -78q10 -6 2 -17l-90 -128q-6 -8 -14 -3q-74 49 -147 49
q-58 0 -58 -37q0 -15 14.5 -23.5t50.5 -13.5l36 -5q122 -17 180 -71.5t58 -154.5t-76 -161t-215 -61zM239 -259q-12 0 -12 13v195q0 10 10 10h142q10 0 10 -10v-100q0 -16 -10 -22l-122 -78q-13 -8 -18 -8z" />
    <glyph glyph-name="scommaaccent" unicode="&#x219;" horiz-adv-x="520" 
d="M257 -12q-156 0 -247 74q-7 7 -1 14l79 100q6 6 14 2q88 -50 168 -50q47 0 47 22q0 8 -9.5 12t-40.5 8l-56 6q-86 9 -133 49.5t-47 111.5q0 75 60 120t165 45q142 0 226 -62q8 -6 1 -15l-70 -93q-6 -8 -15 -3q-67 37 -142 37q-40 0 -40 -19q0 -7 8 -11t35 -7l56 -6
q102 -11 145.5 -52.5t41.5 -109.5q-2 -79 -67 -126t-178 -47zM203 -259q-12 0 -12 13v195q0 10 10 10h142q10 0 10 -10v-100q0 -16 -10 -22l-122 -78q-13 -8 -18 -8z" />
    <glyph glyph-name="uni021A" unicode="&#x21a;" horiz-adv-x="576" 
d="M383 0h-190q-10 0 -10 10v478q0 6 -6 6h-161q-10 0 -10 10v166q0 10 10 10h544q10 0 10 -10v-166q0 -10 -10 -10h-161q-6 0 -6 -6v-478q0 -10 -10 -10zM219 -259q-12 0 -12 13v195q0 10 10 10h142q10 0 10 -10v-100q0 -16 -10 -22l-122 -78q-13 -8 -18 -8z" />
    <glyph glyph-name="uni021B" unicode="&#x21b;" horiz-adv-x="352" 
d="M322 -6h-61q-111 0 -157 47.5t-46 163.5v139q0 6 -6 6h-26q-10 0 -10 10v120q0 10 10 10h26q6 0 6 6v124q0 10 10 10h178q10 0 10 -10v-124q0 -6 6 -6h60q10 0 10 -10v-120q0 -10 -10 -10h-60q-6 0 -6 -6v-131q0 -32 9.5 -43.5t36.5 -11.5h20q10 0 10 -10v-144
q0 -10 -10 -10zM135 -259q-12 0 -12 13v195q0 10 10 10h142q10 0 10 -10v-100q0 -16 -10 -22l-122 -78q-13 -8 -18 -8z" />
    <glyph glyph-name="dotlessj" unicode="&#x237;" horiz-adv-x="284" 
d="M21 -180h-43q-10 0 -10 10v140q0 10 10 10h10q31 0 42.5 10.5t11.5 43.5v446q0 10 10 10h180q10 0 10 -10v-447q0 -112 -55.5 -162.5t-165.5 -50.5z" />
    <glyph glyph-name="circumflex" unicode="&#x2c6;" horiz-adv-x="530" 
d="M447 538h-113q-14 0 -24 10l-44 44h-2l-44 -44q-10 -10 -24 -10h-113q-5 0 -6.5 3t1.5 7l114 144q7 10 19 10h108q12 0 19 -10l114 -144q3 -4 1.5 -7t-6.5 -3z" />
    <glyph glyph-name="caron" unicode="&#x2c7;" horiz-adv-x="530" 
d="M319 534h-108q-12 0 -19 10l-114 144q-3 4 -1.5 7t6.5 3h113q14 0 24 -10l44 -44h2l44 44q10 10 24 10h113q5 0 6.5 -3t-1.5 -7l-114 -144q-7 -10 -19 -10z" />
    <glyph glyph-name="uni02C9" unicode="&#x2c9;" horiz-adv-x="530" 
d="M427 748h-324q-10 0 -10 10v108q0 10 10 10h324q10 0 10 -10v-108q0 -10 -10 -10z" />
    <glyph glyph-name="breve" unicode="&#x2d8;" horiz-adv-x="530" 
d="M265 529q-71 0 -120.5 44.5t-49.5 108.5q0 11 14 11h74q11 0 16 -11q19 -37 66 -37t66 37q5 11 16 11h74q14 0 14 -11q0 -64 -49.5 -108.5t-120.5 -44.5z" />
    <glyph glyph-name="dotaccent" unicode="&#x2d9;" horiz-adv-x="530" 
d="M347 536h-164q-10 0 -10 10v124q0 10 10 10h164q10 0 10 -10v-124q0 -10 -10 -10z" />
    <glyph glyph-name="ring" unicode="&#x2da;" horiz-adv-x="530" 
d="M265 512q-53 0 -88.5 34.5t-35.5 87.5t35.5 87.5t88.5 34.5t88.5 -34.5t35.5 -87.5t-35.5 -87.5t-88.5 -34.5zM265 593q17 0 28.5 11.5t11.5 29.5t-11.5 29.5t-28.5 11.5t-28.5 -11.5t-11.5 -29.5t11.5 -29.5t28.5 -11.5z" />
    <glyph glyph-name="ogonek" unicode="&#x2db;" horiz-adv-x="530" 
d="M265 -192q-55 0 -86.5 28.5t-31.5 72.5q0 55 46 91q13 10 24 10h154q3 0 4 -2t0 -4.5t-4 -3.5q-86 -35 -86 -56q0 -10 13 -10q10 0 24 9q8 5 13 -3l46 -83q5 -8 -4 -14q-54 -35 -112 -35z" />
    <glyph glyph-name="tilde" unicode="&#x2dc;" horiz-adv-x="530" 
d="M341 536q-40 0 -94 26q-36 17 -61 17q-38 0 -81 -33q-11 -7 -11 4v92q0 14 10 24q41 39 86 39q40 0 94 -26q36 -17 61 -17q38 0 81 33q11 7 11 -4v-92q0 -14 -10 -24q-41 -39 -86 -39z" />
    <glyph glyph-name="hungarumlaut" unicode="&#x2dd;" horiz-adv-x="530" 
d="M374 536h-117q-11 0 -6 10l72 144q5 10 16 10h135q4 0 6 -3t0 -7l-88 -144q-6 -10 -18 -10zM175 536h-117q-11 0 -6 10l72 144q5 10 16 10h135q5 0 6.5 -3t-0.5 -7l-88 -144q-6 -10 -18 -10z" />
    <glyph glyph-name="Delta" unicode="&#x394;" horiz-adv-x="708" 
d="M695 0h-682q-10 0 -7 10l236 660q3 10 13 10h204q10 0 13 -10l230 -660q3 -10 -7 -10zM425 182q7 0 5 6l-73 263h-3l-75 -263q-1 -6 5 -6h141z" />
    <glyph glyph-name="Delta" unicode="&#x2206;" horiz-adv-x="708" 
d="M695 0h-682q-10 0 -7 10l236 660q3 10 13 10h204q10 0 13 -10l230 -660q3 -10 -7 -10zM425 182q7 0 5 6l-73 263h-3l-75 -263q-1 -6 5 -6h141z" />
    <glyph glyph-name="Omega" unicode="&#x3a9;" horiz-adv-x="638" 
d="M588 0h-234q-10 0 -10 10v136q0 10 9 16q26 19 32.5 48.5t6.5 129.5q0 101 -8 123q-16 43 -65 43t-65 -43q-8 -22 -8 -123q0 -100 6.5 -129.5t32.5 -48.5q9 -6 9 -16v-136q0 -10 -10 -10h-234q-10 0 -10 10v144q0 10 10 10h38v1q-24 18 -39 64t-15 111q0 123 22 183
q30 82 97.5 125.5t165.5 43.5t165.5 -43.5t97.5 -125.5q22 -60 22 -183q0 -65 -15 -111t-39 -64v-1h38q10 0 10 -10v-144q0 -10 -10 -10z" />
    <glyph glyph-name="Omega" unicode="&#x2126;" horiz-adv-x="638" 
d="M588 0h-234q-10 0 -10 10v136q0 10 9 16q26 19 32.5 48.5t6.5 129.5q0 101 -8 123q-16 43 -65 43t-65 -43q-8 -22 -8 -123q0 -100 6.5 -129.5t32.5 -48.5q9 -6 9 -16v-136q0 -10 -10 -10h-234q-10 0 -10 10v144q0 10 10 10h38v1q-24 18 -39 64t-15 111q0 123 22 183
q30 82 97.5 125.5t165.5 43.5t165.5 -43.5t97.5 -125.5q22 -60 22 -183q0 -65 -15 -111t-39 -64v-1h38q10 0 10 -10v-144q0 -10 -10 -10z" />
    <glyph glyph-name="pi" unicode="&#x3c0;" horiz-adv-x="604" 
d="M562 -6h-49q-96 0 -140.5 42.5t-44.5 143.5v133q0 6 -6 6h-46q-6 0 -6 -6v-303q0 -10 -10 -10h-180q-10 0 -10 10v303q0 6 -6 6h-38q-10 0 -10 10v151q0 10 10 10h542q10 0 10 -10v-151q0 -10 -10 -10h-38q-6 0 -6 -6v-114q0 -23 7 -32t25 -9h6q10 0 10 -10v-144
q0 -10 -10 -10z" />
    <glyph glyph-name="Wgrave" unicode="&#x1e80;" horiz-adv-x="956" 
d="M741 0h-154q-11 0 -14 10l-94 329h-2l-94 -329q-3 -10 -14 -10h-154q-11 0 -14 10l-195 660q-3 10 7 10h206q11 0 13 -10l76 -360h2l94 360q3 10 14 10h121q11 0 14 -10l98 -360h2l73 360q2 10 13 10h204q10 0 7 -10l-195 -660q-3 -10 -14 -10zM553 738h-141
q-11 0 -21 10l-134 132q-3 4 -1.5 7t6.5 3h167q10 0 18 -10l110 -132q3 -4 2 -7t-6 -3z" />
    <glyph glyph-name="wgrave" unicode="&#x1e81;" horiz-adv-x="784" 
d="M605 0h-135q-9 0 -12 10l-64 215h-2l-66 -215q-3 -10 -12 -10h-135q-9 0 -12 10l-161 469q-4 11 8 11h179q12 0 15 -10l52 -220h2l64 220q3 10 14 10h107q11 0 14 -10l65 -220h2l48 220q3 10 15 10h179q12 0 8 -11l-161 -469q-3 -10 -12 -10zM462 540h-143q-9 0 -16 10
l-106 144q-1 2 -1 4.5t1.5 4t4.5 1.5h165q10 0 17 -10l83 -144q5 -10 -5 -10z" />
    <glyph glyph-name="Wacute" unicode="&#x1e82;" horiz-adv-x="956" 
d="M741 0h-154q-11 0 -14 10l-94 329h-2l-94 -329q-3 -10 -14 -10h-154q-11 0 -14 10l-195 660q-3 10 7 10h206q11 0 13 -10l76 -360h2l94 360q3 10 14 10h121q11 0 14 -10l98 -360h2l73 360q2 10 13 10h204q10 0 7 -10l-195 -660q-3 -10 -14 -10zM553 738h-141q-4 0 -5.5 3
t1.5 7l110 132q8 10 18 10h167q5 0 6.5 -3t-1.5 -7l-134 -132q-10 -10 -21 -10z" />
    <glyph glyph-name="wacute" unicode="&#x1e83;" horiz-adv-x="784" 
d="M605 0h-135q-9 0 -12 10l-64 215h-2l-66 -215q-3 -10 -12 -10h-135q-9 0 -12 10l-161 469q-4 11 8 11h179q12 0 15 -10l52 -220h2l64 220q3 10 14 10h107q11 0 14 -10l65 -220h2l48 220q3 10 15 10h179q12 0 8 -11l-161 -469q-3 -10 -12 -10zM465 540h-143q-10 0 -5 10
l83 144q7 10 17 10h165q4 0 5.5 -3.5t-0.5 -6.5l-106 -144q-7 -10 -16 -10z" />
    <glyph glyph-name="Wdieresis" unicode="&#x1e84;" horiz-adv-x="956" 
d="M741 0h-154q-11 0 -14 10l-94 329h-2l-94 -329q-3 -10 -14 -10h-154q-11 0 -14 10l-195 660q-3 10 7 10h206q11 0 13 -10l76 -360h2l94 360q3 10 14 10h121q11 0 14 -10l98 -360h2l73 360q2 10 13 10h204q10 0 7 -10l-195 -660q-3 -10 -14 -10zM646 739h-126
q-10 0 -10 10v124q0 10 10 10h126q10 0 10 -10v-124q0 -10 -10 -10zM436 739h-126q-10 0 -10 10v124q0 10 10 10h126q10 0 10 -10v-124q0 -10 -10 -10z" />
    <glyph glyph-name="wdieresis" unicode="&#x1e85;" horiz-adv-x="784" 
d="M605 0h-135q-9 0 -12 10l-64 215h-2l-66 -215q-3 -10 -12 -10h-135q-9 0 -12 10l-161 469q-4 11 8 11h179q12 0 15 -10l52 -220h2l64 220q3 10 14 10h107q11 0 14 -10l65 -220h2l48 220q3 10 15 10h179q12 0 8 -11l-161 -469q-3 -10 -12 -10zM560 536h-126q-10 0 -10 10
v124q0 10 10 10h126q10 0 10 -10v-124q0 -10 -10 -10zM350 536h-126q-10 0 -10 10v124q0 10 10 10h126q10 0 10 -10v-124q0 -10 -10 -10z" />
    <glyph glyph-name="Ygrave" unicode="&#x1ef2;" horiz-adv-x="641" 
d="M416 0h-190q-10 0 -10 10v244l-211 415q-5 11 7 11h189q11 0 17 -10l104 -213h3l101 213q4 10 17 10h187q12 0 7 -11l-211 -415v-244q0 -10 -10 -10zM408 738h-141q-11 0 -21 10l-134 132q-3 4 -1.5 7t6.5 3h167q10 0 18 -10l110 -132q3 -4 1.5 -7t-5.5 -3z" />
    <glyph glyph-name="ygrave" unicode="&#x1ef3;" horiz-adv-x="559" 
d="M140 -180h-41q-10 0 -10 10v140q0 10 10 10h30q42 0 54 32l9 25l-188 443q-4 10 7 10h189q10 0 13 -10l70 -201h2l64 201q3 10 13 10h186q11 0 7 -10l-229 -551q-26 -63 -67 -86t-119 -23zM359 540h-143q-8 0 -16 10l-106 144q-1 2 -1 4.5t1.5 4t4.5 1.5h165q10 0 17 -10
l83 -144q5 -10 -5 -10z" />
    <glyph glyph-name="endash" unicode="&#x2013;" 
d="M540 181h-510q-10 0 -10 10v148q0 10 10 10h510q10 0 10 -10v-148q0 -10 -10 -10z" />
    <glyph glyph-name="emdash" unicode="&#x2014;" horiz-adv-x="952" 
d="M922 181h-892q-10 0 -10 10v148q0 10 10 10h892q10 0 10 -10v-148q0 -10 -10 -10z" />
    <glyph glyph-name="quoteleft" unicode="&#x2018;" horiz-adv-x="248" 
d="M190 436h-132q-10 0 -10 10v128q0 16 10 22l112 78q11 8 18 8q12 0 12 -13v-223q0 -10 -10 -10z" />
    <glyph glyph-name="quoteright" unicode="&#x2019;" horiz-adv-x="248" 
d="M60 434q-12 0 -12 13v223q0 10 10 10h132q10 0 10 -10v-128q0 -16 -10 -22l-112 -78q-11 -8 -18 -8z" />
    <glyph glyph-name="quotesinglbase" unicode="&#x201a;" horiz-adv-x="248" 
d="M60 -89q-12 0 -12 13v223q0 10 10 10h132q10 0 10 -10v-128q0 -16 -10 -22l-112 -78q-11 -8 -18 -8z" />
    <glyph glyph-name="quotedblleft" unicode="&#x201c;" horiz-adv-x="460" 
d="M402 436h-132q-10 0 -10 10v128q0 16 10 22l112 78q11 8 18 8q12 0 12 -13v-223q0 -10 -10 -10zM190 436h-132q-10 0 -10 10v128q0 16 10 22l112 78q11 8 18 8q12 0 12 -13v-223q0 -10 -10 -10z" />
    <glyph glyph-name="quotedblright" unicode="&#x201d;" horiz-adv-x="460" 
d="M272 434q-12 0 -12 13v223q0 10 10 10h132q10 0 10 -10v-128q0 -16 -10 -22l-112 -78q-11 -8 -18 -8zM60 434q-12 0 -12 13v223q0 10 10 10h132q10 0 10 -10v-128q0 -16 -10 -22l-112 -78q-11 -8 -18 -8z" />
    <glyph glyph-name="quotedblbase" unicode="&#x201e;" horiz-adv-x="460" 
d="M272 -89q-12 0 -12 13v223q0 10 10 10h132q10 0 10 -10v-128q0 -16 -10 -22l-112 -78q-11 -8 -18 -8zM60 -89q-12 0 -12 13v223q0 10 10 10h132q10 0 10 -10v-128q0 -16 -10 -22l-112 -78q-11 -8 -18 -8z" />
    <glyph glyph-name="dagger" unicode="&#x2020;" horiz-adv-x="581" 
d="M381 -180h-181q-10 0 -10 10v465q0 6 -6 6h-144q-10 0 -10 10v161q0 10 10 10h144q6 0 6 6v182q0 10 10 10h181q10 0 10 -10v-182q0 -6 6 -6h144q10 0 10 -10v-161q0 -10 -10 -10h-144q-6 0 -6 -6v-465q0 -10 -10 -10z" />
    <glyph glyph-name="daggerdbl" unicode="&#x2021;" horiz-adv-x="581" 
d="M381 -180h-181q-10 0 -10 10v142q0 6 -6 6h-144q-10 0 -10 10v161q0 10 10 10h144q6 0 6 6v170q0 6 -6 6h-144q-10 0 -10 10v161q0 10 10 10h144q6 0 6 6v142q0 10 10 10h181q10 0 10 -10v-142q0 -6 6 -6h144q10 0 10 -10v-161q0 -10 -10 -10h-144q-6 0 -6 -6v-170
q0 -6 6 -6h144q10 0 10 -10v-161q0 -10 -10 -10h-144q-6 0 -6 -6v-142q0 -10 -10 -10z" />
    <glyph glyph-name="bullet" unicode="&#x2022;" horiz-adv-x="510" 
d="M255 134q-75 0 -125 50t-50 125t50 125t125 50t125 -50t50 -125t-50 -125t-125 -50z" />
    <glyph glyph-name="ellipsis" unicode="&#x2026;" horiz-adv-x="804" 
d="M750 0h-160q-10 0 -10 10v160q0 10 10 10h160q10 0 10 -10v-160q0 -10 -10 -10zM482 0h-160q-10 0 -10 10v160q0 10 10 10h160q10 0 10 -10v-160q0 -10 -10 -10zM214 0h-160q-10 0 -10 10v160q0 10 10 10h160q10 0 10 -10v-160q0 -10 -10 -10z" />
    <glyph glyph-name="perthousand" unicode="&#x2030;" horiz-adv-x="1245" 
d="M303 -12h-122q-10 0 -4 10l395 684q6 10 16 10h122q10 0 4 -10l-395 -684q-6 -10 -16 -10zM215 330q-115 0 -143 88q-12 36 -12 91t12 91q28 88 143 88t143 -88q12 -36 12 -91t-12 -91q-28 -88 -143 -88zM215 423q15 0 19 13q3 10 3 73t-3 73q-4 13 -19 13t-19 -13
q-3 -10 -3 -73t3 -73q4 -13 19 -13zM1030 -8q-115 0 -143 88q-12 36 -12 91t12 91q28 88 143 88t143 -88q12 -36 12 -91t-12 -91q-28 -88 -143 -88zM676 -8q-115 0 -143 88q-12 36 -12 91t12 91q28 88 143 88t143 -88q12 -36 12 -91t-12 -91q-28 -88 -143 -88zM1030 85
q15 0 19 13q3 10 3 73t-3 73q-4 13 -19 13t-19 -13q-3 -10 -3 -73t3 -73q4 -13 19 -13zM676 85q15 0 19 13q3 10 3 73t-3 73q-4 13 -19 13t-19 -13q-3 -10 -3 -73t3 -73q4 -13 19 -13z" />
    <glyph glyph-name="guilsinglleft" unicode="&#x2039;" horiz-adv-x="332" 
d="M270 6l-255 251q-7 7 0 14l255 251q3 3 6.5 1.5t3.5 -5.5v-162q0 -8 -10 -18l-71 -70q-4 -4 0 -8l71 -70q10 -10 10 -18v-162q0 -4 -3.5 -5.5t-6.5 1.5z" />
    <glyph glyph-name="guilsinglright" unicode="&#x203a;" horiz-adv-x="332" 
d="M62 6q-3 -3 -6.5 -1.5t-3.5 5.5v162q0 8 10 18l71 70q4 4 0 8l-71 70q-10 10 -10 18v162q0 4 3.5 5.5t6.5 -1.5l255 -251q7 -7 0 -14z" />
    <glyph glyph-name="fraction" unicode="&#x2044;" horiz-adv-x="181" 
d="M-52 -12h-122q-10 0 -4 10l395 684q6 10 16 10h122q10 0 4 -10l-395 -684q-6 -10 -16 -10z" />
    <glyph glyph-name="zero.superior" unicode="&#x2070;" horiz-adv-x="376" 
d="M188 423q-61 0 -101.5 25.5t-55.5 73.5q-11 33 -11 111t11 111q15 48 55.5 73.5t101.5 25.5t101.5 -25.5t55.5 -73.5q11 -33 11 -111t-11 -111q-15 -48 -55.5 -73.5t-101.5 -25.5zM188 531q16 0 21 14q3 9 3 88t-3 88q-5 14 -21 14t-21 -14q-3 -9 -3 -88t3 -88
q5 -14 21 -14z" />
    <glyph glyph-name="four.superior" unicode="&#x2074;" horiz-adv-x="376" 
d="M324 430h-109q-10 0 -10 10v32q0 6 -6 6h-169q-10 0 -10 10v102q0 8 5 20l97 216q4 10 15 10h127q11 0 7 -10l-104 -230v-3h32q6 0 6 6v42q0 10 10 10h109q10 0 10 -10v-42q0 -6 5 -6h13q10 0 10 -10v-95q0 -10 -10 -10h-12q-6 0 -6 -6v-32q0 -10 -10 -10z" />
    <glyph glyph-name="five.superior" unicode="&#x2075;" horiz-adv-x="376" 
d="M187 423q-65 0 -104 27.5t-48 75.5q-2 9 9 11l104 13q9 2 14 -6q8 -13 24 -13q17 0 22 14q3 7 3 18t-3 18q-5 14 -22 14q-12 0 -20 -8q-6 -6 -13 -6h-105q-10 0 -10 10v235q0 10 10 10h270q10 0 10 -10v-91q0 -11 -10 -11h-154q-6 0 -6 -7v-33h1q21 18 65 18
q93 0 117 -74q8 -24 8 -57q0 -36 -7 -57q-30 -91 -155 -91z" />
    <glyph glyph-name="six.superior" unicode="&#x2076;" horiz-adv-x="376" 
d="M188 423q-75 0 -121.5 38.5t-46.5 101.5q0 55 41 124l81 139q5 10 15 10h134q11 0 5 -10l-75 -131l1 -1h4q58 0 94 -35t36 -96q0 -63 -46.5 -101.5t-121.5 -38.5zM188 529q15 0 23.5 9t8.5 22t-8.5 22t-23.5 9t-23.5 -9t-8.5 -22t8.5 -22t23.5 -9z" />
    <glyph glyph-name="seven.superior" unicode="&#x2077;" horiz-adv-x="376" 
d="M220 430h-129q-11 0 -7 12l122 280v2h-44q-6 0 -6 -6v-32q0 -10 -10 -10h-106q-10 0 -10 10v140q0 10 10 10h300q10 0 10 -10v-105q0 -10 -4 -18l-113 -263q-3 -10 -13 -10z" />
    <glyph glyph-name="eight.superior" unicode="&#x2078;" horiz-adv-x="376" 
d="M188 423q-72 0 -120 35t-48 96q0 50 43 85v1q-35 33 -35 75q0 53 43 90.5t117 37.5t117 -37.5t43 -90.5q0 -42 -35 -75v-1q43 -35 43 -85q0 -61 -48 -96t-120 -35zM188 685q12 0 19.5 7.5t7.5 18.5t-7.5 18.5t-19.5 7.5t-19.5 -7.5t-7.5 -18.5t7.5 -18.5t19.5 -7.5z
M188 529q14 0 23 9t9 22t-9 22t-23 9t-23 -9t-9 -22t9 -22t23 -9z" />
    <glyph glyph-name="nine.superior" unicode="&#x2079;" horiz-adv-x="376" 
d="M219 430h-134q-11 0 -5 10l75 131l-1 1h-4q-58 0 -94 35t-36 96q0 63 46.5 101.5t121.5 38.5t121.5 -38.5t46.5 -101.5q0 -55 -41 -124l-81 -139q-5 -10 -15 -10zM188 675q15 0 23.5 9t8.5 22t-8.5 22t-23.5 9t-23.5 -9t-8.5 -22t8.5 -22t23.5 -9z" />
    <glyph glyph-name="zero.inferior" unicode="&#x2080;" horiz-adv-x="376" 
d="M188 -163q-61 0 -101.5 25.5t-55.5 73.5q-11 33 -11 111t11 111q15 48 55.5 73.5t101.5 25.5t101.5 -25.5t55.5 -73.5q11 -33 11 -111t-11 -111q-15 -48 -55.5 -73.5t-101.5 -25.5zM188 -55q16 0 21 14q3 9 3 88t-3 88q-5 14 -21 14t-21 -14q-3 -9 -3 -88t3 -88
q5 -14 21 -14z" />
    <glyph glyph-name="one.inferior" unicode="&#x2081;" horiz-adv-x="376" 
d="M272 -156h-123q-10 0 -10 10v256h-2l-67 -37q-4 -2 -7 -0.5t-3 6.5v112q0 10 9 15l63 38q9 6 17 6h123q10 0 10 -10v-386q0 -10 -10 -10z" />
    <glyph glyph-name="two.inferior" unicode="&#x2082;" horiz-adv-x="376" 
d="M336 -156h-296q-10 0 -10 10v87q0 13 10 21l147 125q21 18 21 38q0 24 -24 24q-27 0 -28 -32q0 -12 -11 -10l-106 12q-9 1 -9 11q2 57 46 92t118 35q65 0 108.5 -33.5t43.5 -96.5t-60 -111l-70 -56v-1h120q10 0 10 -10v-95q0 -10 -10 -10z" />
    <glyph glyph-name="three.inferior" unicode="&#x2083;" horiz-adv-x="376" 
d="M189 -163q-68 0 -110.5 29.5t-50.5 80.5q-2 9 8 11l105 13q10 2 14 -7q8 -19 29 -19q27 0 27 26q0 27 -35 27h-10q-10 0 -10 10v84q0 10 10 10h12q27 0 27 23q0 24 -24 24q-21 0 -26 -19q-3 -10 -12 -9l-107 14q-10 2 -8 11q9 50 50.5 80.5t109.5 30.5q73 0 114 -32
t41 -82t-48 -80v-2q54 -26 54 -95q0 -58 -44 -93.5t-116 -35.5z" />
    <glyph glyph-name="four.inferior" unicode="&#x2084;" horiz-adv-x="376" 
d="M324 -156h-109q-10 0 -10 10v32q0 6 -6 6h-169q-10 0 -10 10v102q0 8 5 20l97 216q4 10 15 10h127q11 0 7 -10l-104 -230v-3h32q6 0 6 6v42q0 10 10 10h109q10 0 10 -10v-42q0 -6 5 -6h13q10 0 10 -10v-95q0 -10 -10 -10h-12q-6 0 -6 -6v-32q0 -10 -10 -10z" />
    <glyph glyph-name="five.inferior" unicode="&#x2085;" horiz-adv-x="376" 
d="M187 -163q-65 0 -104 27.5t-48 75.5q-2 9 9 11l104 13q9 2 14 -6q8 -13 24 -13q17 0 22 14q3 8 3 18q0 11 -3 18q-5 14 -22 14q-12 0 -20 -8q-6 -6 -13 -6h-105q-10 0 -10 10v235q0 10 10 10h270q10 0 10 -10v-91q0 -11 -10 -11h-154q-6 0 -6 -7v-33h1q21 18 65 18
q93 0 117 -74q8 -24 8 -57q0 -36 -7 -57q-30 -91 -155 -91z" />
    <glyph glyph-name="six.inferior" unicode="&#x2086;" horiz-adv-x="376" 
d="M188 -163q-75 0 -121.5 38.5t-46.5 101.5q0 55 41 124l81 139q5 10 15 10h134q11 0 5 -10l-75 -131l1 -1h4q58 0 94 -35t36 -96q0 -63 -46.5 -101.5t-121.5 -38.5zM188 -57q15 0 23.5 9t8.5 22t-8.5 22t-23.5 9t-23.5 -9t-8.5 -22t8.5 -22t23.5 -9z" />
    <glyph glyph-name="seven.inferior" unicode="&#x2087;" horiz-adv-x="376" 
d="M220 -156h-129q-11 0 -7 12l122 280v2h-44q-6 0 -6 -6v-32q0 -10 -10 -10h-106q-10 0 -10 10v140q0 10 10 10h300q10 0 10 -10v-105q0 -10 -4 -18l-113 -263q-3 -10 -13 -10z" />
    <glyph glyph-name="eight.inferior" unicode="&#x2088;" horiz-adv-x="376" 
d="M188 -163q-72 0 -120 35t-48 96q0 50 43 85v1q-35 33 -35 75q0 53 43 90.5t117 37.5t117 -37.5t43 -90.5q0 -42 -35 -75v-1q43 -35 43 -85q0 -61 -48 -96t-120 -35zM188 99q12 0 19.5 7.5t7.5 18.5t-7.5 18.5t-19.5 7.5t-19.5 -7.5t-7.5 -18.5t7.5 -18.5t19.5 -7.5z
M188 -57q14 0 23 9t9 22t-9 22t-23 9t-23 -9t-9 -22t9 -22t23 -9z" />
    <glyph glyph-name="nine.inferior" unicode="&#x2089;" horiz-adv-x="376" 
d="M219 -156h-134q-11 0 -5 10l75 131l-1 1h-4q-58 0 -94 35t-36 96q0 63 46.5 101.5t121.5 38.5t121.5 -38.5t46.5 -101.5q0 -55 -41 -124l-81 -139q-5 -10 -15 -10zM188 89q15 0 23.5 9t8.5 22t-8.5 22t-23.5 9t-23.5 -9t-8.5 -22t8.5 -22t23.5 -9z" />
    <glyph glyph-name="Euro" unicode="&#x20ac;" horiz-adv-x="572" 
d="M323 -12q-182 0 -228 144q-14 44 -14 103q0 6 -6 6h-39q-10 0 -10 10v63q0 10 10 10h39q6 0 6 6v23q0 6 -6 6h-39q-10 0 -10 10v63q0 10 10 10h39q6 0 6 6q0 56 14 100q46 144 228 144q160 0 217 -126q4 -10 -5 -14l-139 -61q-14 -7 -19 5q-15 36 -49 36q-31 0 -41 -31
q-4 -11 -4 -53q0 -6 6 -6h132q10 0 10 -10l-10 -63q-2 -10 -10 -10h-122q-6 0 -6 -6v-23q0 -6 6 -6h112q10 0 10 -10l-10 -63q-2 -10 -10 -10h-102q-6 0 -6 -6q0 -45 4 -56q10 -31 41 -31q34 0 49 36q5 12 19 5l139 -61q9 -4 5 -14q-57 -126 -217 -126z" />
    <glyph glyph-name="afii61289" unicode="&#x2113;" horiz-adv-x="465" 
d="M79 121q-8 -5 -14 2l-57 83q-5 9 2 14l91 67v160q0 245 179 245q69 0 111.5 -43t42.5 -118q0 -140 -170 -293v-71q0 -37 33 -37q18 0 48 19q8 5 14 -2l58 -84q6 -8 -2 -14q-72 -61 -153 -61q-73 0 -114 38.5t-46 112.5zM264 484v-67q42 67 42 119q0 34 -19 34
q-8 0 -12.5 -5.5t-7.5 -25t-3 -55.5z" />
    <glyph glyph-name="trademark" unicode="&#x2122;" horiz-adv-x="836" 
d="M780 286h-90q-10 0 -10 10v175h-3l-52 -122q-4 -10 -14 -10h-47q-10 0 -14 10l-52 122h-3v-175q0 -10 -10 -10h-90q-10 0 -10 10v374q0 10 10 10h97q11 0 15 -10l80 -180h4l79 180q4 10 15 10h95q10 0 10 -10v-374q0 -10 -10 -10zM242 286h-102q-10 0 -10 10v269
q0 6 -6 6h-88q-10 0 -10 10v89q0 10 10 10h310q10 0 10 -10v-89q0 -10 -10 -10h-88q-6 0 -6 -6v-269q0 -10 -10 -10z" />
    <glyph glyph-name="estimated" unicode="&#x212e;" horiz-adv-x="566" 
d="M282 -12q-107 0 -173.5 74t-66.5 184t66 183t174 73t174.5 -71t67.5 -185h-377v-169q55 -53 135 -53q116 0 179 111l33 -22q-44 -66 -92 -95.5t-120 -29.5zM419 280v134q-62 57 -137 57q-80 0 -135 -57v-134h272z" />
    <glyph glyph-name="onethird" unicode="&#x2153;" horiz-adv-x="972" 
d="M316 -12h-122q-10 0 -4 10l395 684q6 10 16 10h122q10 0 4 -10l-395 -684q-6 -10 -16 -10zM292 274h-123q-10 0 -10 10v256h-2l-67 -37q-4 -2 -7 -0.5t-3 6.5v112q0 10 9 15l63 38q9 6 17 6h123q10 0 10 -10v-386q0 -10 -10 -10zM732 -7q-68 0 -110.5 29.5t-50.5 80.5
q-2 9 8 11l105 13q10 2 14 -7q8 -19 29 -19q27 0 27 26q0 27 -35 27h-10q-10 0 -10 10v84q0 10 10 10h12q27 0 27 23q0 24 -24 24q-21 0 -26 -19q-3 -10 -12 -9l-107 14q-10 2 -8 11q9 50 50.5 80.5t109.5 30.5q73 0 114 -32t41 -82t-48 -80v-2q54 -26 54 -95
q0 -58 -44 -93.5t-116 -35.5z" />
    <glyph glyph-name="twothirds" unicode="&#x2154;" horiz-adv-x="1060" 
d="M404 -12h-122q-10 0 -4 10l395 684q6 10 16 10h122q10 0 4 -10l-395 -684q-6 -10 -16 -10zM386 274h-296q-10 0 -10 10v87q0 13 10 21l147 125q21 18 21 38q0 24 -24 24q-27 0 -28 -32q0 -12 -11 -10l-106 12q-9 1 -9 11q2 57 46 92t118 35q65 0 108.5 -33.5t43.5 -96.5
t-60 -111l-70 -56v-1h120q10 0 10 -10v-95q0 -10 -10 -10zM820 -7q-68 0 -110.5 29.5t-50.5 80.5q-2 9 8 11l105 13q10 2 14 -7q8 -19 29 -19q27 0 27 26q0 27 -35 27h-10q-10 0 -10 10v84q0 10 10 10h12q27 0 27 23q0 24 -24 24q-21 0 -26 -19q-3 -10 -12 -9l-107 14
q-10 2 -8 11q9 50 50.5 80.5t109.5 30.5q73 0 114 -32t41 -82t-48 -80v-2q54 -26 54 -95q0 -58 -44 -93.5t-116 -35.5z" />
    <glyph glyph-name="oneeighth" unicode="&#x215b;" horiz-adv-x="978" 
d="M316 -12h-122q-10 0 -4 10l395 684q6 10 16 10h122q10 0 4 -10l-395 -684q-6 -10 -16 -10zM292 274h-123q-10 0 -10 10v256h-2l-67 -37q-4 -2 -7 -0.5t-3 6.5v112q0 10 9 15l63 38q9 6 17 6h123q10 0 10 -10v-386q0 -10 -10 -10zM730 -7q-72 0 -120 35t-48 96q0 50 43 85
v1q-35 33 -35 75q0 53 43 90.5t117 37.5t117 -37.5t43 -90.5q0 -42 -35 -75v-1q43 -35 43 -85q0 -61 -48 -96t-120 -35zM730 255q12 0 19.5 7.5t7.5 18.5t-7.5 18.5t-19.5 7.5t-19.5 -7.5t-7.5 -18.5t7.5 -18.5t19.5 -7.5zM730 99q14 0 23 9t9 22t-9 22t-23 9t-23 -9t-9 -22
t9 -22t23 -9z" />
    <glyph glyph-name="threeeighths" unicode="&#x215c;" horiz-adv-x="1034" 
d="M372 -12h-122q-10 0 -4 10l395 684q6 10 16 10h122q10 0 4 -10l-395 -684q-6 -10 -16 -10zM242 267q-68 0 -110.5 29.5t-50.5 80.5q-2 9 8 11l105 13q10 2 14 -7q8 -19 29 -19q27 0 27 26q0 27 -35 27h-10q-10 0 -10 10v84q0 10 10 10h12q27 0 27 23q0 24 -24 24
q-21 0 -26 -19q-3 -10 -12 -9l-107 14q-10 2 -8 11q9 50 50.5 80.5t109.5 30.5q73 0 114 -32t41 -82t-48 -80v-2q54 -26 54 -95q0 -58 -44 -93.5t-116 -35.5zM786 -7q-72 0 -120 35t-48 96q0 50 43 85v1q-35 33 -35 75q0 53 43 90.5t117 37.5t117 -37.5t43 -90.5
q0 -42 -35 -75v-1q43 -35 43 -85q0 -61 -48 -96t-120 -35zM786 255q12 0 19.5 7.5t7.5 18.5t-7.5 18.5t-19.5 7.5t-19.5 -7.5t-7.5 -18.5t7.5 -18.5t19.5 -7.5zM786 99q14 0 23 9t9 22t-9 22t-23 9t-23 -9t-9 -22t9 -22t23 -9z" />
    <glyph glyph-name="fiveeighths" unicode="&#x215d;" horiz-adv-x="1026" 
d="M364 -12h-122q-10 0 -4 10l395 684q6 10 16 10h122q10 0 4 -10l-395 -684q-6 -10 -16 -10zM233 267q-65 0 -104 27.5t-48 75.5q-2 9 9 11l104 13q9 2 14 -6q8 -13 24 -13q17 0 22 14q3 7 3 18t-3 18q-5 14 -22 14q-12 0 -20 -8q-6 -6 -13 -6h-105q-10 0 -10 10v235
q0 10 10 10h270q10 0 10 -10v-91q0 -11 -10 -11h-154q-6 0 -6 -7v-33h1q21 18 65 18q93 0 117 -74q8 -24 8 -57q0 -36 -7 -57q-30 -91 -155 -91zM778 -7q-72 0 -120 35t-48 96q0 50 43 85v1q-35 33 -35 75q0 53 43 90.5t117 37.5t117 -37.5t43 -90.5q0 -42 -35 -75v-1
q43 -35 43 -85q0 -61 -48 -96t-120 -35zM778 255q12 0 19.5 7.5t7.5 18.5t-7.5 18.5t-19.5 7.5t-19.5 -7.5t-7.5 -18.5t7.5 -18.5t19.5 -7.5zM778 99q14 0 23 9t9 22t-9 22t-23 9t-23 -9t-9 -22t9 -22t23 -9z" />
    <glyph glyph-name="seveneighths" unicode="&#x215e;" horiz-adv-x="930" 
d="M333 -12h-122q-10 0 -4 10l395 684q6 10 16 10h122q10 0 4 -10l-395 -684q-6 -10 -16 -10zM270 274h-129q-11 0 -7 12l122 280v2h-44q-6 0 -6 -6v-32q0 -10 -10 -10h-106q-10 0 -10 10v140q0 10 10 10h300q10 0 10 -10v-105q0 -10 -4 -18l-113 -263q-3 -10 -13 -10z
M747 -7q-72 0 -120 35t-48 96q0 50 43 85v1q-35 33 -35 75q0 53 43 90.5t117 37.5t117 -37.5t43 -90.5q0 -42 -35 -75v-1q43 -35 43 -85q0 -61 -48 -96t-120 -35zM747 255q12 0 19.5 7.5t7.5 18.5t-7.5 18.5t-19.5 7.5t-19.5 -7.5t-7.5 -18.5t7.5 -18.5t19.5 -7.5zM747 99
q14 0 23 9t9 22t-9 22t-23 9t-23 -9t-9 -22t9 -22t23 -9z" />
    <glyph glyph-name="partialdiff" unicode="&#x2202;" horiz-adv-x="555" 
d="M247 -12q-102 0 -162 60.5t-60 152.5q0 95 57.5 155.5t156.5 60.5q58 0 98 -26h2q-1 68 -29 102t-77 34q-45 0 -89 -36q-8 -7 -14 3l-71 105q-5 8 1 16q31 34 84 55.5t108 21.5q130 0 204 -89t74 -248q0 -171 -74 -269t-209 -98zM258 148q54 0 72 93q-38 20 -66 20
q-26 0 -40.5 -16.5t-14.5 -44.5q0 -24 12.5 -38t36.5 -14z" />
    <glyph glyph-name="product" unicode="&#x220f;" horiz-adv-x="666" 
d="M612 -180h-190q-10 0 -10 10v718q0 6 -6 6h-146q-6 0 -6 -6v-718q0 -10 -10 -10h-190q-10 0 -10 10v900q0 10 10 10h558q10 0 10 -10v-900q0 -10 -10 -10z" />
    <glyph glyph-name="summation" unicode="&#x2211;" horiz-adv-x="558" 
d="M528 -180h-498q-10 0 -10 10v162q0 5 2 9l164 313l-159 239q-3 6 -3 11v166q0 10 10 10h484q10 0 10 -10v-166q0 -10 -10 -10h-259l147 -221q3 -7 0 -14l-160 -313h282q10 0 10 -10v-166q0 -10 -10 -10z" />
    <glyph glyph-name="minus" unicode="&#x2212;" 
d="M518 194h-466q-10 0 -10 10v144q0 10 10 10h466q10 0 10 -10v-144q0 -10 -10 -10z" />
    <glyph glyph-name="uni2215" unicode="&#x2215;" horiz-adv-x="181" 
d="M-52 -12h-122q-10 0 -4 10l395 684q6 10 16 10h122q10 0 4 -10l-395 -684q-6 -10 -16 -10z" />
    <glyph glyph-name="uni2219" unicode="&#x2219;" horiz-adv-x="268" 
d="M214 175h-160q-10 0 -10 10v160q0 10 10 10h160q10 0 10 -10v-160q0 -10 -10 -10z" />
    <glyph glyph-name="radical" unicode="&#x221a;" horiz-adv-x="667" 
d="M403 -180h-138q-10 0 -14 10l-105 218q-3 6 -9 3l-60 -30q-9 -5 -13 4l-50 101q-5 10 4 13l197 95q10 5 14 -4l78 -165h3l173 665q3 10 12 10h163q11 0 8 -10l-248 -900q-2 -10 -15 -10z" />
    <glyph glyph-name="infinity" unicode="&#x221e;" horiz-adv-x="729" 
d="M533 69q-82 0 -169 82q-83 -82 -169 -82q-76 0 -125.5 49t-49.5 128t50 128.5t127 49.5q80 0 167 -84q46 45 85 64.5t83 19.5q77 0 127 -49t50 -129q0 -78 -49.5 -127.5t-126.5 -49.5zM528 197q23 0 35 14t12 37q0 21 -12.5 34.5t-34.5 13.5q-16 0 -31.5 -9.5
t-44.5 -40.5q46 -49 76 -49zM201 197q16 0 31.5 9.5t44.5 39.5q-46 50 -76 50q-23 0 -35 -13.5t-12 -34.5q0 -22 12.5 -36.5t34.5 -14.5z" />
    <glyph glyph-name="integral" unicode="&#x222b;" horiz-adv-x="390" 
d="M90 -180q-38 0 -58 4q-10 2 -10 13v135q0 12 10 12q1 0 12 -1.5t17 -1.5q19 0 26.5 10.5t7.5 36.5v502q0 112 49 161t156 49q38 0 58 -4q10 -2 10 -13v-135q0 -12 -10 -12q-1 0 -12 1.5t-17 1.5q-19 0 -26.5 -10.5t-7.5 -36.5v-502q0 -112 -49 -161t-156 -49z" />
    <glyph glyph-name="approxequal" unicode="&#x2248;" 
d="M376 288q-52 0 -100 31q-39 25 -62 25q-32 0 -58 -44q-5 -9 -14 -4l-98 63q-8 5 -4 14q24 53 64.5 86.5t89.5 33.5q52 0 100 -31q39 -25 62 -25q32 0 58 44q5 9 14 4l98 -63q8 -5 4 -14q-24 -53 -64.5 -86.5t-89.5 -33.5zM376 56q-52 0 -100 31q-39 25 -62 25
q-32 0 -58 -44q-5 -9 -14 -4l-98 63q-8 5 -4 14q24 53 64.5 86.5t89.5 33.5q52 0 100 -31q39 -25 62 -25q32 0 58 44q5 9 14 4l98 -63q8 -5 4 -14q-24 -53 -64.5 -86.5t-89.5 -33.5z" />
    <glyph glyph-name="notequal" unicode="&#x2260;" 
d="M183 -24h-97q-4 0 -6 3t0 7l46 92h-74q-10 0 -10 10v144q0 10 10 10h157l35 68h-192q-10 0 -10 10v144q0 10 10 10h274l47 92q5 10 14 10h97q4 0 6 -3t0 -7l-47 -92h75q10 0 10 -10v-144q0 -10 -10 -10h-157l-35 -68h192q10 0 10 -10v-144q0 -10 -10 -10h-275l-46 -92
q-5 -10 -14 -10z" />
    <glyph glyph-name="lessequal" unicode="&#x2264;" 
d="M518 179l-466 164q-10 3 -10 14v124q0 11 10 14l466 164q10 3 10 -7v-153q0 -9 -10 -13l-220 -66v-2l220 -66q10 -4 10 -13v-153q0 -10 -10 -7zM518 0h-466q-10 0 -10 10v144q0 10 10 10h466q10 0 10 -10v-144q0 -10 -10 -10z" />
    <glyph glyph-name="greaterequal" unicode="&#x2265;" 
d="M518 343l-466 -164q-10 -3 -10 7v153q0 9 10 13l220 66v2l-220 66q-10 4 -10 13v153q0 10 10 7l466 -164q10 -3 10 -14v-124q0 -11 -10 -14zM518 0h-466q-10 0 -10 10v144q0 10 10 10h466q10 0 10 -10v-144q0 -10 -10 -10z" />
    <glyph glyph-name="lozenge" unicode="&#x25ca;" horiz-adv-x="556" 
d="M346 -52h-136q-10 0 -14 10l-174 364q-3 7 0 14l174 364q4 10 14 10h136q10 0 14 -10l174 -364q3 -7 0 -14l-174 -364q-4 -10 -14 -10zM281 137l78 192l-80 192h-2l-80 -192l82 -192h2z" />
    <glyph glyph-name="uniF8FF" unicode="&#xf8ff;" horiz-adv-x="558" 
d="M548 0h-538q-10 0 -10 10v660q0 10 10 10h538q10 0 10 -10v-660q0 -10 -10 -10zM462 86q6 0 6 6v496q0 6 -6 6h-366q-6 0 -6 -6v-496q0 -6 6 -6h366zM327 257h-97q-10 0 -10 10v23q0 31 22 54l31 32q32 33 32 51q0 29 -28 29q-26 0 -34 -28q-3 -10 -12 -9l-91 12
q-10 0 -8 11q7 55 47.5 88t103.5 33q67 0 106.5 -35.5t39.5 -88.5q0 -30 -11 -52.5t-38 -50.5l-31 -32q-12 -13 -12 -32v-5q0 -10 -10 -10zM327 113h-97q-10 0 -10 10v84q0 10 10 10h97q10 0 10 -10v-84q0 -10 -10 -10z" />
    <glyph glyph-name="CR" horiz-adv-x="0" 
 />
    <glyph glyph-name="grave.cap" horiz-adv-x="530" 
d="M397 738h-141q-11 0 -21 10l-134 132q-3 4 -1.5 7t6.5 3h167q10 0 18 -10l110 -132q3 -4 2 -7t-6 -3z" />
    <glyph glyph-name="acute.cap" horiz-adv-x="530" 
d="M264 738h-141q-5 0 -6 3t2 7l110 132q8 10 18 10h167q5 0 6.5 -3t-1.5 -7l-134 -132q-10 -10 -21 -10z" />
    <glyph glyph-name="circumflex.cap" horiz-adv-x="530" 
d="M446 734h-113q-14 0 -24 10l-44 44h-2l-44 -44q-10 -10 -24 -10h-113q-5 0 -6.5 3t1.5 7l114 144q7 10 19 10h108q12 0 19 -10l114 -144q3 -4 1.5 -7t-6.5 -3z" />
    <glyph glyph-name="caron.cap" horiz-adv-x="530" 
d="M318 726h-108q-12 0 -19 10l-114 144q-3 4 -1.5 7t6.5 3h113q14 0 24 -10l44 -44h2l44 44q10 10 24 10h113q5 0 6.5 -3t-1.5 -7l-114 -144q-7 -10 -19 -10z" />
    <glyph glyph-name="caron.alt" horiz-adv-x="530" 
d="M205 455q-12 0 -12 13v202q0 10 10 10h124q10 0 10 -10v-107q0 -13 -10 -22l-104 -78q-11 -8 -18 -8z" />
    <glyph glyph-name="tilde.cap" horiz-adv-x="530" 
d="M341 730q-40 0 -94 26q-36 17 -61 17q-38 0 -81 -33q-11 -7 -11 4v92q0 14 10 24q41 39 86 39q40 0 94 -26q36 -17 61 -17q38 0 81 33q11 7 11 -4v-92q0 -14 -10 -24q-41 -39 -86 -39z" />
    <glyph glyph-name="dieresis.cap" horiz-adv-x="530" 
d="M433 739h-126q-10 0 -10 10v124q0 10 10 10h126q10 0 10 -10v-124q0 -10 -10 -10zM223 739h-126q-10 0 -10 10v124q0 10 10 10h126q10 0 10 -10v-124q0 -10 -10 -10z" />
    <glyph glyph-name="macron.cap" horiz-adv-x="530" 
d="M427 748h-324q-10 0 -10 10v108q0 10 10 10h324q10 0 10 -10v-108q0 -10 -10 -10z" />
    <glyph glyph-name="breve.cap" horiz-adv-x="530" 
d="M265 721q-71 0 -120.5 44.5t-49.5 108.5q0 11 14 11h74q11 0 16 -11q19 -37 66 -37t66 37q5 11 16 11h74q14 0 14 -11q0 -64 -49.5 -108.5t-120.5 -44.5z" />
    <glyph glyph-name="ring.cap" horiz-adv-x="530" 
d="M265 694q-53 0 -88.5 34.5t-35.5 87.5t35.5 87.5t88.5 34.5t88.5 -34.5t35.5 -87.5t-35.5 -87.5t-88.5 -34.5zM265 775q17 0 28.5 11.5t11.5 29.5t-11.5 29.5t-28.5 11.5t-28.5 -11.5t-11.5 -29.5t11.5 -29.5t28.5 -11.5z" />
    <glyph glyph-name="hungarumlaut.cap" horiz-adv-x="530" 
d="M365 738h-117q-11 0 -5 10l80 126q6 10 17 10h135q4 0 5.5 -3.5t-0.5 -6.5l-96 -126q-8 -10 -19 -10zM166 738h-117q-11 0 -5 10l80 126q6 10 17 10h135q4 0 5.5 -3.5t-0.5 -6.5l-96 -126q-7 -10 -19 -10z" />
    <glyph glyph-name="dotaccent.cap" horiz-adv-x="530" 
d="M347 739h-164q-10 0 -10 10v124q0 10 10 10h164q10 0 10 -10v-124q0 -10 -10 -10z" />
    <glyph glyph-name="commaaccent" horiz-adv-x="530" 
d="M196 -259q-12 0 -12 13v195q0 10 10 10h142q10 0 10 -10v-100q0 -16 -10 -22l-122 -78q-13 -8 -18 -8z" />
    <glyph glyph-name="commaaccent.alt" horiz-adv-x="530" 
d="M336 536h-142q-10 0 -10 10v100q0 16 10 22l122 78q13 8 18 8q12 0 12 -13v-195q0 -10 -10 -10z" />
    <glyph glyph-name="uni0394" horiz-adv-x="708" 
d="M695 0h-682q-10 0 -7 10l236 660q3 10 13 10h204q10 0 13 -10l230 -660q3 -10 -7 -10zM425 182q7 0 5 6l-73 263h-3l-75 -263q-1 -6 5 -6h141z" />
    <glyph glyph-name="uni03A9" horiz-adv-x="638" 
d="M588 0h-234q-10 0 -10 10v136q0 10 9 16q26 19 32.5 48.5t6.5 129.5q0 101 -8 123q-16 43 -65 43t-65 -43q-8 -22 -8 -123q0 -100 6.5 -129.5t32.5 -48.5q9 -6 9 -16v-136q0 -10 -10 -10h-234q-10 0 -10 10v144q0 10 10 10h38v1q-24 18 -39 64t-15 111q0 123 22 183
q30 82 97.5 125.5t165.5 43.5t165.5 -43.5t97.5 -125.5q22 -60 22 -183q0 -65 -15 -111t-39 -64v-1h38q10 0 10 -10v-144q0 -10 -10 -10z" />
    <glyph glyph-name="uni03BC" horiz-adv-x="565" 
d="M513 0h-180q-10 0 -10 10v36h-1q-22 -34 -59 -45q-7 -2 -21 -4v-167q0 -10 -10 -10h-180q-10 0 -10 10v650q0 10 10 10h180q10 0 10 -10v-278q0 -50 41 -50q40 0 40 50v278q0 10 10 10h180q10 0 10 -10v-470q0 -10 -10 -10z" />
    <glyph glyph-name="zero.onum" 
d="M285 -12q-119 0 -193.5 72.5t-74.5 184.5t74.5 184.5t193.5 72.5t193.5 -72.5t74.5 -184.5t-74.5 -184.5t-193.5 -72.5zM285 164q33 0 52.5 23t19.5 58t-19.5 58t-52.5 23t-52.5 -23t-19.5 -58t19.5 -58t52.5 -23z" />
    <glyph glyph-name="one.onum" 
d="M422 0h-180q-10 0 -10 10v296h-2l-127 -43q-13 -4 -13 7v152q0 11 10 15l129 49q11 4 22 4h171q10 0 10 -10v-470q0 -10 -10 -10z" />
    <glyph glyph-name="two.onum" 
d="M512 0h-454q-10 0 -10 10v111q0 11 9 17l204 111q41 23 53.5 35.5t12.5 28.5t-12.5 26.5t-34.5 10.5q-48 0 -56 -46q-2 -10 -11 -9l-156 21q-9 2 -9 11q5 78 70 126.5t171 48.5q102 0 167.5 -48.5t65.5 -125.5q0 -52 -24.5 -85t-69.5 -56l-76 -39v-2h160q10 0 10 -10
v-126q0 -10 -10 -10z" />
    <glyph glyph-name="three.onum" 
d="M288 -192q-108 0 -171.5 50t-72.5 131q-2 10 8 12l159 22q10 1 12 -9q10 -46 56 -46q54 0 54 60q0 61 -76 61h-47q-10 0 -10 10v134q0 9 8 17l71 74v2h-205q-10 0 -10 10v144q0 10 10 10h426q10 0 10 -10v-139q0 -11 -7 -18l-108 -112v-2q132 -39 132 -189
q0 -100 -68 -156t-171 -56z" />
    <glyph glyph-name="four.onum" 
d="M486 -180h-172q-10 0 -10 10v164q0 6 -6 6h-262q-10 0 -10 10v157q0 8 3 14l145 301q4 8 15 8h191q12 0 7 -11l-150 -306v-3h61q6 0 6 6v90q0 10 10 10h172q10 0 10 -10v-90q0 -6 5 -6h33q10 0 10 -10v-150q0 -10 -10 -10h-32q-6 0 -6 -6v-164q0 -10 -10 -10z" />
    <glyph glyph-name="five.onum" 
d="M284 -192q-103 0 -164 48.5t-67 125.5q0 10 9 11l157 21q10 1 13 -9q13 -37 50 -37q32 0 42 28q6 16 6 42t-6 42q-10 28 -42 28q-28 0 -40 -23q-5 -10 -14 -10h-154q-10 0 -10 10v395q0 10 10 10h415q10 0 10 -10v-144q0 -10 -10 -10h-255q-6 0 -6 -6v-94h2q36 40 108 40
q135 0 172 -114q14 -42 14 -115q0 -46 -15 -93q-44 -136 -225 -136z" />
    <glyph glyph-name="six.onum" 
d="M285 -12q-112 0 -181.5 62.5t-69.5 161.5q0 48 13.5 91.5t46.5 107.5l134 261q4 8 13 8h193q12 0 7 -11l-127 -244l1 -1q9 3 24 3q87 0 142 -60.5t55 -154.5q0 -99 -69.5 -161.5t-181.5 -62.5zM285 148q28 0 45.5 18t17.5 46t-17.5 46t-45.5 18t-45.5 -18t-17.5 -46
t17.5 -46t45.5 -18z" />
    <glyph glyph-name="seven.onum" 
d="M321 -180h-190q-5 0 -7 3.5t0 7.5l199 484v3h-88q-6 0 -6 -6v-55q0 -10 -10 -10h-165q-10 0 -10 10v223q0 10 10 10h464q10 0 10 -10v-161q0 -4 -2 -10l-192 -479q-3 -10 -13 -10z" />
    <glyph glyph-name="eight.onum" 
d="M285 -12q-108 0 -180 58t-72 156q0 95 74 149v2q-59 49 -59 132q0 87 64.5 147t172.5 60t172.5 -60t64.5 -147q0 -83 -59 -132v-2q74 -54 74 -149q0 -98 -72 -156t-180 -58zM285 428q23 0 38 14.5t15 37.5t-15 37.5t-38 14.5t-38 -14.5t-15 -37.5t15 -37.5t38 -14.5z
M285 148q27 0 45.5 17.5t18.5 44.5t-18.5 44.5t-45.5 17.5t-45.5 -17.5t-18.5 -44.5t18.5 -44.5t45.5 -17.5z" />
    <glyph glyph-name="nine.onum" 
d="M334 -180h-193q-13 0 -7 11l122 234l-1 1q-9 -3 -24 -3q-87 0 -142 60.5t-55 154.5q0 99 69.5 161.5t181.5 62.5t181.5 -62.5t69.5 -161.5q0 -48 -13.5 -91.5t-46.5 -107.5l-129 -251q-4 -8 -13 -8zM285 214q28 0 45.5 18t17.5 46t-17.5 46t-45.5 18t-45.5 -18t-17.5 -46
t17.5 -46t45.5 -18z" />
    <glyph glyph-name="zero.prop" 
d="M54 141q-17 51 -17 199t17 199q24 73 83.5 113t147.5 40t147.5 -40t83.5 -113q17 -51 17 -199t-17 -199q-24 -73 -83.5 -113t-147.5 -40t-147.5 40t-83.5 113zM245 175q9 -27 40 -27t40 27q6 18 6 165t-6 165q-9 27 -40 27t-40 -27q-6 -18 -6 -165t6 -165z" />
    <glyph glyph-name="one.prop" horiz-adv-x="429" 
d="M154 10v460h-2l-121 -79q-5 -3 -9 -1.5t-4 7.5v173q0 8 7 14l130 90q9 6 19 6h170q10 0 10 -10v-660q0 -10 -10 -10h-180q-10 0 -10 10z" />
    <glyph glyph-name="two.prop" horiz-adv-x="536" 
d="M32 10v134q0 8 5 14l239 249q34 35 34 73q0 52 -46 52q-49 0 -54 -71q0 -11 -11 -9l-157 21q-9 1 -9 11q4 93 71.5 150.5t169.5 57.5q100 0 165 -57t65 -146q0 -97 -81 -180l-140 -143v-2h211q10 0 10 -10v-144q0 -10 -10 -10h-452q-10 0 -10 10z" />
    <glyph glyph-name="three.prop" horiz-adv-x="548" 
d="M31 169q-2 10 8 12l159 22q10 1 12 -9q12 -46 58 -46q25 0 39.5 15.5t14.5 44.5q0 30 -16.5 45.5t-46.5 15.5h-27q-10 0 -10 10v137q0 10 10 10h25q25 0 39.5 14t14.5 40q0 24 -13.5 38t-35.5 14q-40 0 -50 -46q-2 -10 -11 -8l-159 21q-10 2 -8 11q14 83 75.5 132.5
t164.5 49.5q107 0 169 -53.5t62 -134.5q0 -88 -77 -139v-2q88 -49 88 -163q0 -94 -66.5 -153t-174.5 -59q-103 0 -168 49t-76 132z" />
    <glyph glyph-name="four.prop" horiz-adv-x="566" 
d="M38 90q-10 0 -10 10v158q0 7 2 11l167 403q3 8 15 8h192q12 0 7 -11l-172 -406v-3h61q6 0 6 6v90q0 10 10 10h168q10 0 10 -10v-90q0 -6 5 -6h33q10 0 10 -10v-150q0 -10 -10 -10h-32q-6 0 -6 -6v-74q0 -10 -10 -10h-168q-10 0 -10 10v74q0 6 -6 6h-262z" />
    <glyph glyph-name="five.prop" horiz-adv-x="547" 
d="M44 162q0 10 9 11l157 21q10 1 13 -9q13 -37 50 -37q32 0 42 28q6 16 6 48t-6 48q-10 28 -42 28q-28 0 -40 -23q-5 -10 -14 -10h-154q-10 0 -10 10v393q0 10 10 10h415q10 0 10 -10v-144q0 -10 -10 -10h-255q-6 0 -6 -6v-92h2q36 40 108 40q135 0 172 -114
q14 -42 14 -121q0 -52 -15 -99q-44 -136 -225 -136q-103 0 -164 48.5t-67 125.5z" />
    <glyph glyph-name="six.prop" horiz-adv-x="566" 
d="M32 212q0 48 13.5 91.5t46.5 107.5l134 261q4 8 13 8h193q12 0 7 -11l-127 -244l1 -1q9 3 24 3q87 0 142 -60.5t55 -154.5q0 -99 -69.5 -161.5t-181.5 -62.5t-181.5 62.5t-69.5 161.5zM220 212q0 -28 17.5 -46t45.5 -18t45.5 18t17.5 46t-17.5 46t-45.5 18t-45.5 -18
t-17.5 -46z" />
    <glyph glyph-name="seven.prop" horiz-adv-x="544" 
d="M108 11l203 494v3h-88q-6 0 -6 -6v-55q0 -10 -10 -10h-165q-10 0 -10 10v223q0 10 10 10h464q10 0 10 -10v-161q0 -4 -2 -10l-196 -489q-4 -10 -14 -10h-188q-5 0 -7 3.5t-1 7.5z" />
    <glyph glyph-name="eight.prop" horiz-adv-x="568" 
d="M32 202q0 95 74 149v2q-59 49 -59 132q0 87 64.5 147t172.5 60t172.5 -60t64.5 -147q0 -83 -59 -132v-2q74 -54 74 -149q0 -98 -72 -156t-180 -58t-180 58t-72 156zM284 428q23 0 38 14.5t15 37.5t-15 37.5t-38 14.5t-38 -14.5t-15 -37.5t15 -37.5t38 -14.5zM220 210
q0 -27 18.5 -44.5t45.5 -17.5t45.5 17.5t18.5 44.5t-18.5 44.5t-45.5 17.5t-45.5 -17.5t-18.5 -44.5z" />
    <glyph glyph-name="nine.prop" horiz-adv-x="566" 
d="M127 11l127 244l-1 1q-9 -3 -24 -3q-87 0 -142 60.5t-55 154.5q0 99 69.5 161.5t181.5 62.5t181.5 -62.5t69.5 -161.5q0 -48 -13.5 -91.5t-46.5 -107.5l-134 -261q-4 -8 -13 -8h-193q-12 0 -7 11zM283 404q28 0 45.5 18t17.5 46t-17.5 46t-45.5 18t-45.5 -18t-17.5 -46
t17.5 -46t45.5 -18z" />
    <glyph glyph-name="Euro.prop" horiz-adv-x="581" 
d="M330 -12q-182 0 -228 144q-14 44 -14 103q0 6 -6 6h-39q-10 0 -10 10v63q0 10 10 10h39q6 0 6 6v23q0 6 -6 6h-39q-10 0 -10 10v63q0 10 10 10h39q6 0 6 6q0 56 14 100q46 144 228 144q160 0 217 -126q4 -10 -5 -14l-139 -61q-14 -7 -19 5q-15 36 -49 36q-31 0 -41 -31
q-4 -11 -4 -53q0 -6 6 -6h132q10 0 10 -10l-10 -63q-2 -10 -10 -10h-122q-6 0 -6 -6v-23q0 -6 6 -6h112q10 0 10 -10l-10 -63q-2 -10 -10 -10h-102q-6 0 -6 -6q0 -45 4 -56q10 -31 41 -31q34 0 49 36q5 12 19 5l139 -61q9 -4 5 -14q-57 -126 -217 -126z" />
    <glyph glyph-name="cent.prop" horiz-adv-x="520" 
d="M228 245q0 -49 6 -67q10 -30 45 -30q38 0 54 44q4 11 17 4l141 -60q8 -4 5 -13q-17 -48 -62 -83t-107 -46v-79q0 -10 -10 -10h-106q-10 0 -10 10v81q-124 26 -161 140q-14 42 -14 109t14 109q37 113 161 140v81q0 10 10 10h106q10 0 10 -10v-79q62 -12 107 -47t62 -82
q3 -9 -5 -13l-141 -60q-13 -7 -17 4q-16 44 -54 44q-35 0 -45 -30q-6 -18 -6 -67z" />
    <glyph glyph-name="dollar.prop" horiz-adv-x="564" 
d="M31 67q-9 8 -2 17l99 120q6 8 13 2q57 -46 116 -46q31 0 48.5 12.5t17.5 36.5q0 33 -49 39l-18 2q-100 11 -155.5 66t-55.5 144q0 83 46.5 144t128.5 80v81q0 10 10 10h106q10 0 10 -10v-77q82 -12 150 -56q10 -6 2 -17l-85 -120q-6 -8 -14 -3q-45 28 -91 28
q-27 0 -44 -11.5t-17 -30.5q0 -30 50 -37l24 -3q204 -25 204 -211q0 -87 -47.5 -148.5t-131.5 -81.5v-82q0 -10 -10 -10h-106q-10 0 -10 10v76q-114 13 -189 76z" />
    <glyph glyph-name="sterling.prop" horiz-adv-x="557" 
d="M505 0h-453q-10 0 -10 10v139q0 8 6 14q35 30 35 73v14q0 6 -6 6h-25q-10 0 -10 10v115q0 10 10 10h25q6 0 6 6v86q0 100 59.5 154.5t163.5 54.5q90 0 145.5 -45.5t63.5 -117.5q2 -10 -8 -12l-152 -30q-10 -2 -12 8q-7 37 -33 37q-29 0 -29 -42v-93q0 -6 6 -6h129
q10 0 10 -10v-115q0 -10 -10 -10h-129q-6 0 -6 -6v-9q0 -53 -33 -76v-2h257q10 0 10 -10v-143q0 -10 -10 -10z" />
    <glyph glyph-name="florin.prop" horiz-adv-x="497" 
d="M431 289h-79l-43 -278q-17 -107 -69 -149t-155 -42h-41q-10 0 -10 10v142q0 10 10 10h23q42 0 49 43l41 264h-54q-10 0 -10 10v126q0 10 10 10h76l9 54q17 107 69 149t155 42h41q10 0 10 -10v-142q0 -10 -10 -10h-23q-42 0 -49 -43l-6 -40h56q10 0 10 -10v-126
q0 -10 -10 -10z" />
    <glyph glyph-name="yen.prop" horiz-adv-x="568" 
d="M374 0h-180q-10 0 -10 10v108q0 6 -6 6h-106q-10 0 -10 10v63q0 10 10 10h106q6 0 6 6v23q0 6 -6 6h-106q-10 0 -10 10v63q0 10 10 10h81v2l-142 343q-4 10 7 10h189q12 0 16 -10l62 -213h3l60 213q4 10 16 10h186q11 0 7 -10l-142 -343v-2h81q10 0 10 -10v-63
q0 -10 -10 -10h-106q-6 0 -6 -6v-23q0 -6 6 -6h106q10 0 10 -10v-63q0 -10 -10 -10h-106q-6 0 -6 -6v-108q0 -10 -10 -10z" />
    <glyph glyph-name="zero.onumprop" horiz-adv-x="582" 
d="M291 -12q-119 0 -193.5 72.5t-74.5 184.5t74.5 184.5t193.5 72.5t193.5 -72.5t74.5 -184.5t-74.5 -184.5t-193.5 -72.5zM291 164q33 0 52.5 23t19.5 58t-19.5 58t-52.5 23t-52.5 -23t-19.5 -58t19.5 -58t52.5 -23z" />
    <glyph glyph-name="one.onumprop" horiz-adv-x="426" 
d="M356 0h-180q-10 0 -10 10v296h-2l-127 -43q-13 -4 -13 7v152q0 11 10 15l129 49q11 4 22 4h171q10 0 10 -10v-470q0 -10 -10 -10z" />
    <glyph glyph-name="two.onumprop" horiz-adv-x="532" 
d="M494 0h-454q-10 0 -10 10v111q0 11 9 17l204 111q41 23 53.5 35.5t12.5 28.5t-12.5 26.5t-34.5 10.5q-48 0 -56 -46q-2 -10 -11 -9l-156 21q-9 2 -9 11q5 78 70 126.5t171 48.5q102 0 167.5 -48.5t65.5 -125.5q0 -52 -24.5 -85t-69.5 -56l-76 -39v-2h160q10 0 10 -10
v-126q0 -10 -10 -10z" />
    <glyph glyph-name="three.onumprop" horiz-adv-x="530" 
d="M268 -192q-108 0 -171.5 50t-72.5 131q-2 10 8 12l159 22q10 1 12 -9q10 -46 56 -46q54 0 54 60q0 61 -76 61h-47q-10 0 -10 10v134q0 9 8 17l71 74v2h-205q-10 0 -10 10v144q0 10 10 10h426q10 0 10 -10v-139q0 -11 -7 -18l-108 -112v-2q132 -39 132 -189
q0 -100 -68 -156t-171 -56z" />
    <glyph glyph-name="four.onumprop" horiz-adv-x="558" 
d="M480 -180h-172q-10 0 -10 10v164q0 6 -6 6h-262q-10 0 -10 10v157q0 8 3 14l145 301q4 8 15 8h191q12 0 7 -11l-150 -306v-3h61q6 0 6 6v90q0 10 10 10h172q10 0 10 -10v-90q0 -6 5 -6h33q10 0 10 -10v-150q0 -10 -10 -10h-32q-6 0 -6 -6v-164q0 -10 -10 -10z" />
    <glyph glyph-name="five.onumprop" horiz-adv-x="538" 
d="M275 -192q-103 0 -164 48.5t-67 125.5q0 10 9 11l157 21q10 1 13 -9q13 -37 50 -37q32 0 42 28q6 16 6 42t-6 42q-10 28 -42 28q-28 0 -40 -23q-5 -10 -14 -10h-154q-10 0 -10 10v395q0 10 10 10h415q10 0 10 -10v-144q0 -10 -10 -10h-255q-6 0 -6 -6v-94h2q36 40 108 40
q135 0 172 -114q14 -42 14 -115q0 -46 -15 -93q-44 -136 -225 -136z" />
    <glyph glyph-name="six.onumprop" horiz-adv-x="548" 
d="M274 -12q-112 0 -181.5 62.5t-69.5 161.5q0 48 13.5 91.5t46.5 107.5l134 261q4 8 13 8h193q13 0 7 -11l-127 -244l1 -1q9 3 24 3q87 0 142 -60.5t55 -154.5q0 -99 -69.5 -161.5t-181.5 -62.5zM274 148q28 0 45.5 18t17.5 46t-17.5 46t-45.5 18t-45.5 -18t-17.5 -46
t17.5 -46t45.5 -18z" />
    <glyph glyph-name="seven.onumprop" horiz-adv-x="544" 
d="M307 -180h-190q-5 0 -7 3.5t0 7.5l199 484v3h-88q-6 0 -6 -6v-55q0 -10 -10 -10h-165q-10 0 -10 10v223q0 10 10 10h464q10 0 10 -10v-161q0 -4 -2 -10l-192 -479q-3 -10 -13 -10z" />
    <glyph glyph-name="eight.onumprop" horiz-adv-x="554" 
d="M277 -12q-108 0 -180 58t-72 156q0 95 74 149v2q-59 49 -59 132q0 87 64.5 147t172.5 60t172.5 -60t64.5 -147q0 -83 -59 -132v-2q74 -54 74 -149q0 -98 -72 -156t-180 -58zM277 428q23 0 38 14.5t15 37.5t-15 37.5t-38 14.5t-38 -14.5t-15 -37.5t15 -37.5t38 -14.5z
M277 148q27 0 45.5 17.5t18.5 44.5t-18.5 44.5t-45.5 17.5t-45.5 -17.5t-18.5 -44.5t18.5 -44.5t45.5 -17.5z" />
    <glyph glyph-name="nine.onumprop" horiz-adv-x="548" 
d="M323 -180h-193q-12 0 -7 11l122 234l-1 1q-9 -3 -24 -3q-87 0 -142 60.5t-55 154.5q0 99 69.5 161.5t181.5 62.5t181.5 -62.5t69.5 -161.5q0 -48 -13.5 -91.5t-46.5 -107.5l-129 -251q-4 -8 -13 -8zM274 214q28 0 45.5 18t17.5 46t-17.5 46t-45.5 18t-45.5 -18t-17.5 -46
t17.5 -46t45.5 -18z" />
    <glyph glyph-name="one.superior" horiz-adv-x="376" 
d="M272 430h-123q-10 0 -10 10v256h-2l-67 -37q-4 -2 -7 -0.5t-3 6.5v112q0 10 9 15l63 38q9 6 17 6h123q10 0 10 -10v-386q0 -10 -10 -10z" />
    <glyph glyph-name="two.superior" horiz-adv-x="376" 
d="M336 430h-296q-10 0 -10 10v87q0 13 10 21l147 125q21 18 21 38q0 24 -24 24q-27 0 -28 -32q0 -12 -11 -10l-106 12q-9 1 -9 11q2 57 46 92t118 35q65 0 108.5 -33.5t43.5 -96.5t-60 -111l-70 -56v-1h120q10 0 10 -10v-95q0 -10 -10 -10z" />
    <glyph glyph-name="three.superior" horiz-adv-x="376" 
d="M189 423q-68 0 -110.5 29.5t-50.5 80.5q-2 9 8 11l105 13q10 2 14 -7q8 -19 29 -19q27 0 27 26q0 27 -35 27h-10q-10 0 -10 10v84q0 10 10 10h12q27 0 27 23q0 24 -24 24q-21 0 -26 -19q-3 -10 -12 -9l-107 14q-10 2 -8 11q9 50 50.5 80.5t109.5 30.5q73 0 114 -32
t41 -82t-48 -80v-2q54 -26 54 -95q0 -58 -44 -93.5t-116 -35.5z" />
    <glyph glyph-name="a.alt01" horiz-adv-x="563" 
d="M511 0h-180q-10 0 -10 10v36h-1q-35 -58 -123 -58q-120 0 -157 117q-17 52 -17 140t17 140q37 117 157 117q88 0 123 -58h1v36q0 10 10 10h180q10 0 10 -10v-470q0 -10 -10 -10zM273 148q33 0 42 28q6 19 6 69q0 49 -6 69q-9 28 -42 28t-42 -28q-6 -20 -6 -69t6 -69
q9 -28 42 -28z" />
    <glyph glyph-name="agrave.alt01" horiz-adv-x="563" 
d="M511 0h-180q-10 0 -10 10v36h-1q-35 -58 -123 -58q-120 0 -157 117q-17 52 -17 140t17 140q37 117 157 117q88 0 123 -58h1v36q0 10 10 10h180q10 0 10 -10v-470q0 -10 -10 -10zM273 148q33 0 42 28q6 19 6 69q0 49 -6 69q-9 28 -42 28t-42 -28q-6 -20 -6 -69t6 -69
q9 -28 42 -28zM367 540h-143q-8 0 -16 10l-106 144q-1 2 -1 4.5t1.5 4t4.5 1.5h165q10 0 17 -10l83 -144q5 -10 -5 -10z" />
    <glyph glyph-name="aacute.alt01" horiz-adv-x="563" 
d="M511 0h-180q-10 0 -10 10v36h-1q-35 -58 -123 -58q-120 0 -157 117q-17 52 -17 140t17 140q37 117 157 117q88 0 123 -58h1v36q0 10 10 10h180q10 0 10 -10v-470q0 -10 -10 -10zM273 148q33 0 42 28q6 19 6 69q0 49 -6 69q-9 28 -42 28t-42 -28q-6 -20 -6 -69t6 -69
q9 -28 42 -28zM340 540h-143q-10 0 -5 10l83 144q7 10 17 10h165q4 0 5.5 -3.5t-0.5 -6.5l-106 -144q-8 -10 -16 -10z" />
    <glyph glyph-name="acircumflex.alt01" horiz-adv-x="563" 
d="M511 0h-180q-10 0 -10 10v36h-1q-35 -58 -123 -58q-120 0 -157 117q-17 52 -17 140t17 140q37 117 157 117q88 0 123 -58h1v36q0 10 10 10h180q10 0 10 -10v-470q0 -10 -10 -10zM273 148q33 0 42 28q6 19 6 69q0 49 -6 69q-9 28 -42 28t-42 -28q-6 -20 -6 -69t6 -69
q9 -28 42 -28zM462 538h-113q-14 0 -24 10l-44 44h-2l-44 -44q-10 -10 -24 -10h-113q-5 0 -6.5 3t1.5 7l114 144q7 10 19 10h108q12 0 19 -10l114 -144q3 -4 1.5 -7t-6.5 -3z" />
    <glyph glyph-name="atilde.alt01" horiz-adv-x="563" 
d="M511 0h-180q-10 0 -10 10v36h-1q-35 -58 -123 -58q-120 0 -157 117q-17 52 -17 140t17 140q37 117 157 117q88 0 123 -58h1v36q0 10 10 10h180q10 0 10 -10v-470q0 -10 -10 -10zM273 148q33 0 42 28q6 19 6 69q0 49 -6 69q-9 28 -42 28t-42 -28q-6 -20 -6 -69t6 -69
q9 -28 42 -28zM350 536q-40 0 -94 26q-36 17 -61 17q-37 0 -81 -33q-11 -7 -11 4v92q0 14 10 24q41 39 86 39q40 0 94 -26q36 -17 61 -17q38 0 81 33q11 7 11 -4v-92q0 -14 -10 -24q-41 -39 -86 -39z" />
    <glyph glyph-name="adieresis.alt01" horiz-adv-x="563" 
d="M511 0h-180q-10 0 -10 10v36h-1q-35 -58 -123 -58q-120 0 -157 117q-17 52 -17 140t17 140q37 117 157 117q88 0 123 -58h1v36q0 10 10 10h180q10 0 10 -10v-470q0 -10 -10 -10zM273 148q33 0 42 28q6 19 6 69q0 49 -6 69q-9 28 -42 28t-42 -28q-6 -20 -6 -69t6 -69
q9 -28 42 -28zM448 536h-126q-10 0 -10 10v124q0 10 10 10h126q10 0 10 -10v-124q0 -10 -10 -10zM238 536h-126q-10 0 -10 10v124q0 10 10 10h126q10 0 10 -10v-124q0 -10 -10 -10z" />
    <glyph glyph-name="amacron.alt01" horiz-adv-x="563" 
d="M511 0h-180q-10 0 -10 10v36h-1q-35 -58 -123 -58q-120 0 -157 117q-17 52 -17 140t17 140q37 117 157 117q88 0 123 -58h1v36q0 10 10 10h180q10 0 10 -10v-470q0 -10 -10 -10zM273 148q33 0 42 28q6 19 6 69q0 49 -6 69q-9 28 -42 28t-42 -28q-6 -20 -6 -69t6 -69
q9 -28 42 -28zM449 548h-324q-10 0 -10 10v108q0 10 10 10h324q10 0 10 -10v-108q0 -10 -10 -10z" />
    <glyph glyph-name="abreve.alt01" horiz-adv-x="563" 
d="M511 0h-180q-10 0 -10 10v36h-1q-35 -58 -123 -58q-120 0 -157 117q-17 52 -17 140t17 140q37 117 157 117q88 0 123 -58h1v36q0 10 10 10h180q10 0 10 -10v-470q0 -10 -10 -10zM273 148q33 0 42 28q6 19 6 69q0 49 -6 69q-9 28 -42 28t-42 -28q-6 -20 -6 -69t6 -69
q9 -28 42 -28zM271 529q-71 0 -120.5 44.5t-49.5 108.5q0 11 14 11h74q11 0 16 -11q19 -37 66 -37t66 37q5 11 16 11h74q14 0 14 -11q0 -64 -49.5 -108.5t-120.5 -44.5z" />
    <glyph glyph-name="aring.alt01" horiz-adv-x="563" 
d="M511 0h-180q-10 0 -10 10v36h-1q-35 -58 -123 -58q-120 0 -157 117q-17 52 -17 140t17 140q37 117 157 117q88 0 123 -58h1v36q0 10 10 10h180q10 0 10 -10v-470q0 -10 -10 -10zM273 148q33 0 42 28q6 19 6 69q0 49 -6 69q-9 28 -42 28t-42 -28q-6 -20 -6 -69t6 -69
q9 -28 42 -28zM275 512q-53 0 -88.5 34.5t-35.5 87.5t35.5 87.5t88.5 34.5t88.5 -34.5t35.5 -87.5t-35.5 -87.5t-88.5 -34.5zM275 593q17 0 28.5 11.5t11.5 29.5t-11.5 29.5t-28.5 11.5t-28.5 -11.5t-11.5 -29.5t11.5 -29.5t28.5 -11.5z" />
    <glyph glyph-name="aringacute.alt01" horiz-adv-x="563" 
d="M342 772h-137q-4 0 -5.5 3.5t1.5 6.5l105 98q10 10 21 10h170q5 0 6 -3.5t-3 -6.5l-132 -98q-13 -10 -26 -10zM511 0h-180q-10 0 -10 10v36h-1q-35 -58 -123 -58q-120 0 -157 117q-17 52 -17 140t17 140q37 117 157 117q88 0 123 -58h1v36q0 10 10 10h180q10 0 10 -10
v-470q0 -10 -10 -10zM273 148q33 0 42 28q6 19 6 69q0 49 -6 69q-9 28 -42 28t-42 -28q-6 -20 -6 -69t6 -69q9 -28 42 -28zM275 512q-53 0 -88.5 34.5t-35.5 87.5t35.5 87.5t88.5 34.5t88.5 -34.5t35.5 -87.5t-35.5 -87.5t-88.5 -34.5zM275 593q17 0 28.5 11.5t11.5 29.5
t-11.5 29.5t-28.5 11.5t-28.5 -11.5t-11.5 -29.5t11.5 -29.5t28.5 -11.5z" />
    <glyph glyph-name="aogonek.alt01" horiz-adv-x="563" 
d="M400 -192q-55 0 -86.5 28.5t-31.5 72.5q0 57 60 91q-21 -2 -21 10v36q-38 -58 -124 -58q-174 0 -174 257t174 257q86 0 124 -58v36q0 10 10 10h180q10 0 10 -10v-470q0 -7 -8 -10q-93 -32 -93 -56q0 -10 13 -10q11 0 24 9q8 5 13 -3l46 -83q10 -16 -39 -33
q-49 -16 -77 -16zM273 148q28 0 38 17.5t10 79.5q0 58 -10 77.5t-38 19.5q-18 0 -26 -3t-15 -25t-7 -69q0 -62 10 -79.5t38 -17.5z" />
    <glyph glyph-name="ae.alt01" horiz-adv-x="822" 
d="M564 -12q-49 0 -93.5 17.5t-70.5 46.5h-1q-58 -64 -186 -64q-189 0 -189 151q0 81 59.5 122.5t155.5 41.5h65q6 0 6 6v8q0 19 -17.5 26.5t-68.5 7.5q-61 0 -102 -25q-9 -5 -13 3l-60 108q-6 11 3 17q73 48 200 48q93 0 166 -39h1q57 39 132 39q186 0 233 -145
q15 -47 15 -156q0 -10 -10 -10h-285q-6 0 -6 -6q0 -4 2 -10q14 -42 87 -42q55 0 107 36q8 5 14 -2l78 -86q7 -7 -2 -15q-89 -78 -220 -78zM604 303q6 0 6 6q0 15 -3 24q-11 34 -53 34t-53 -34q-3 -9 -3 -24q0 -6 6 -6h100zM253 124q57 0 57 35v26q0 6 -6 6h-47
q-47 0 -47 -35q0 -32 43 -32z" />
    <glyph glyph-name="aeacute.alt01" horiz-adv-x="822" 
d="M564 -12q-49 0 -93.5 17.5t-70.5 46.5h-1q-58 -64 -186 -64q-189 0 -189 151q0 81 59.5 122.5t155.5 41.5h65q6 0 6 6v8q0 19 -17.5 26.5t-68.5 7.5q-61 0 -102 -25q-9 -5 -13 3l-60 108q-6 11 3 17q73 48 200 48q93 0 166 -39h1q57 39 132 39q186 0 233 -145
q15 -47 15 -156q0 -10 -10 -10h-285q-6 0 -6 -6q0 -4 2 -10q14 -42 87 -42q55 0 107 36q8 5 14 -2l78 -86q7 -7 -2 -15q-89 -78 -220 -78zM604 303q6 0 6 6q0 15 -3 24q-11 34 -53 34t-53 -34q-3 -9 -3 -24q0 -6 6 -6h100zM253 124q57 0 57 35v26q0 6 -6 6h-47
q-47 0 -47 -35q0 -32 43 -32zM470 540h-143q-10 0 -5 10l83 144q7 10 17 10h165q4 0 5.5 -3.5t-0.5 -6.5l-106 -144q-8 -10 -16 -10z" />
    <glyph glyph-name="germandbls.alt01" horiz-adv-x="622" 
d="M296 -180q-10 0 -10 10v132q0 10 10 10q108 0 108 83q0 75 -88 84q-10 2 -10 10v119q0 8 5 14l55 64v4h-120q-6 0 -6 -6v-334q0 -10 -10 -10h-178q-10 0 -10 10v490q0 99 43.5 139.5t148.5 40.5h78q10 0 10 -10v-124q0 -10 -10 -10h-28q-25 0 -34.5 -8.5t-9.5 -27.5v-4
q0 -6 6 -6h330q10 0 10 -10v-120q0 -5 -6 -15l-76 -94v-4q96 -60 96 -182q0 -111 -78.5 -178t-225.5 -67z" />
    <glyph glyph-name="q.alt01" horiz-adv-x="563" 
d="M505 -180h-174q-10 0 -10 10v216h-1q-35 -58 -123 -58q-120 0 -157 117q-17 52 -17 140t17 140q37 117 157 117q88 0 123 -58h1v36q0 10 10 10h180q10 0 10 -10v-501h1l40 34q9 7 15 -1l63 -75q7 -7 -1 -14l-118 -98q-6 -5 -16 -5zM273 148q33 0 42 28q6 19 6 69
q0 49 -6 69q-9 28 -42 28t-42 -28q-6 -20 -6 -69t6 -69q9 -28 42 -28z" />
    <glyph glyph-name="C.alt01" horiz-adv-x="593" 
d="M303 -12q-95 0 -160 42.5t-92 125.5q-21 63 -21 184t21 184q27 83 92 125.5t160 42.5q112 0 186.5 -64t77.5 -172q0 -10 -10 -10h-178q-9 0 -12 10q-13 50 -59 50q-45 0 -58 -41q-8 -26 -8 -125t8 -125q13 -41 58 -41q46 0 59 50q3 10 12 10h178q10 0 10 -10
q-3 -108 -77.5 -172t-186.5 -64z" />
    <glyph glyph-name="Cacute.alt01" horiz-adv-x="593" 
d="M303 -12q-95 0 -160 42.5t-92 125.5q-21 63 -21 184t21 184q27 83 92 125.5t160 42.5q112 0 186.5 -64t77.5 -172q0 -10 -10 -10h-178q-9 0 -12 10q-13 50 -59 50q-45 0 -58 -41q-8 -26 -8 -125t8 -125q13 -41 58 -41q46 0 59 50q3 10 12 10h178q10 0 10 -10
q-3 -108 -77.5 -172t-186.5 -64zM351 738h-141q-4 0 -5.5 3t1.5 7l110 132q8 10 18 10h167q5 0 6.5 -3t-1.5 -7l-134 -132q-10 -10 -21 -10z" />
    <glyph glyph-name="Ccircumflex.alt01" horiz-adv-x="593" 
d="M303 -12q-95 0 -160 42.5t-92 125.5q-21 63 -21 184t21 184q27 83 92 125.5t160 42.5q112 0 186.5 -64t77.5 -172q0 -10 -10 -10h-178q-9 0 -12 10q-13 50 -59 50q-45 0 -58 -41q-8 -26 -8 -125t8 -125q13 -41 58 -41q46 0 59 50q3 10 12 10h178q10 0 10 -10
q-3 -108 -77.5 -172t-186.5 -64zM490 734h-113q-14 0 -24 10l-44 44h-2l-44 -44q-10 -10 -24 -10h-113q-5 0 -6.5 3t1.5 7l114 144q7 10 19 10h108q12 0 19 -10l114 -144q3 -4 1.5 -7t-6.5 -3z" />
    <glyph glyph-name="Ccaron.alt01" horiz-adv-x="593" 
d="M303 -12q-95 0 -160 42.5t-92 125.5q-21 63 -21 184t21 184q27 83 92 125.5t160 42.5q112 0 186.5 -64t77.5 -172q0 -10 -10 -10h-178q-9 0 -12 10q-13 50 -59 50q-45 0 -58 -41q-8 -26 -8 -125t8 -125q13 -41 58 -41q46 0 59 50q3 10 12 10h178q10 0 10 -10
q-3 -108 -77.5 -172t-186.5 -64zM350 726h-108q-12 0 -19 10l-114 144q-3 4 -1.5 7t6.5 3h113q14 0 24 -10l44 -44h2l44 44q10 10 24 10h113q5 0 6.5 -3t-1.5 -7l-114 -144q-7 -10 -19 -10z" />
    <glyph glyph-name="Cdotaccent.alt01" horiz-adv-x="593" 
d="M303 -12q-95 0 -160 42.5t-92 125.5q-21 63 -21 184t21 184q27 83 92 125.5t160 42.5q112 0 186.5 -64t77.5 -172q0 -10 -10 -10h-178q-9 0 -12 10q-13 50 -59 50q-45 0 -58 -41q-8 -26 -8 -125t8 -125q13 -41 58 -41q46 0 59 50q3 10 12 10h178q10 0 10 -10
q-3 -108 -77.5 -172t-186.5 -64zM380 739h-164q-10 0 -10 10v124q0 10 10 10h164q10 0 10 -10v-124q0 -10 -10 -10z" />
    <glyph glyph-name="Ccedilla.alt01" horiz-adv-x="593" 
d="M313 -172h-138q-10 0 -7 10l62 157q-137 28 -179 161q-21 63 -21 184t21 184q27 83 92 125.5t160 42.5q112 0 186.5 -64t77.5 -172q0 -10 -10 -10h-178q-9 0 -12 10q-13 50 -59 50q-45 0 -58 -41q-8 -26 -8 -125t8 -125q13 -41 58 -41q46 0 59 50q3 10 12 10h178
q10 0 10 -10q-3 -90 -56 -150t-138 -78l-45 -158q-2 -10 -15 -10z" />
    <glyph glyph-name="G.alt01" horiz-adv-x="628" 
d="M314 -12q-95 0 -165.5 43t-97.5 126q-21 67 -21 183t21 183q27 83 97.5 126t165.5 43q112 0 188 -61.5t86 -168.5q2 -10 -10 -10h-176q-12 0 -16 10q-15 44 -68 44q-54 0 -68 -44q-8 -25 -8 -122q0 -95 9 -123q14 -43 71 -43t68 36q3 9 3 18q0 7 -6 7h-52q-10 0 -10 10
v131q0 10 10 10h253q10 0 10 -10v-47q0 -105 -19 -163q-28 -86 -97.5 -132t-167.5 -46z" />
    <glyph glyph-name="Gcircumflex.alt01" horiz-adv-x="628" 
d="M314 -12q-95 0 -165.5 43t-97.5 126q-21 67 -21 183t21 183q27 83 97.5 126t165.5 43q112 0 188 -61.5t86 -168.5q2 -10 -10 -10h-176q-12 0 -16 10q-15 44 -68 44q-54 0 -68 -44q-8 -25 -8 -122q0 -95 9 -123q14 -43 71 -43t68 36q3 9 3 18q0 7 -6 7h-52q-10 0 -10 10
v131q0 10 10 10h253q10 0 10 -10v-47q0 -105 -19 -163q-28 -86 -97.5 -132t-167.5 -46zM496 734h-113q-14 0 -24 10l-44 44h-2l-44 -44q-10 -10 -24 -10h-113q-5 0 -6.5 3t1.5 7l114 144q7 10 19 10h108q12 0 19 -10l114 -144q3 -4 1.5 -7t-6.5 -3z" />
    <glyph glyph-name="Gbreve.alt01" horiz-adv-x="628" 
d="M314 -12q-95 0 -165.5 43t-97.5 126q-21 67 -21 183t21 183q27 83 97.5 126t165.5 43q112 0 188 -61.5t86 -168.5q2 -10 -10 -10h-176q-12 0 -16 10q-15 44 -68 44q-54 0 -68 -44q-8 -25 -8 -122q0 -95 9 -123q14 -43 71 -43t68 36q3 9 3 18q0 7 -6 7h-52q-10 0 -10 10
v131q0 10 10 10h253q10 0 10 -10v-47q0 -105 -19 -163q-28 -86 -97.5 -132t-167.5 -46zM314 721q-71 0 -120.5 44.5t-49.5 108.5q0 11 14 11h74q10 0 16 -11q19 -37 66 -37t66 37q6 11 16 11h74q14 0 14 -11q0 -64 -49.5 -108.5t-120.5 -44.5z" />
    <glyph glyph-name="Gdotaccent.alt01" horiz-adv-x="628" 
d="M314 -12q-95 0 -165.5 43t-97.5 126q-21 67 -21 183t21 183q27 83 97.5 126t165.5 43q112 0 188 -61.5t86 -168.5q2 -10 -10 -10h-176q-12 0 -16 10q-15 44 -68 44q-54 0 -68 -44q-8 -25 -8 -122q0 -95 9 -123q14 -43 71 -43t68 36q3 9 3 18q0 7 -6 7h-52q-10 0 -10 10
v131q0 10 10 10h253q10 0 10 -10v-47q0 -105 -19 -163q-28 -86 -97.5 -132t-167.5 -46zM396 739h-164q-10 0 -10 10v124q0 10 10 10h164q10 0 10 -10v-124q0 -10 -10 -10z" />
    <glyph glyph-name="Gcommaaccent.alt01" horiz-adv-x="628" 
d="M314 -12q-95 0 -165.5 43t-97.5 126q-21 67 -21 183t21 183q27 83 97.5 126t165.5 43q112 0 188 -61.5t86 -168.5q2 -10 -10 -10h-176q-12 0 -16 10q-15 44 -68 44q-54 0 -68 -44q-8 -25 -8 -122q0 -95 9 -123q14 -43 71 -43t68 36q3 9 3 18q0 7 -6 7h-52q-10 0 -10 10
v131q0 10 10 10h253q10 0 10 -10v-47q0 -105 -19 -163q-28 -86 -97.5 -132t-167.5 -46zM245 -259q-12 0 -12 13v195q0 10 10 10h142q10 0 10 -10v-100q0 -16 -10 -22l-122 -78q-13 -8 -18 -8z" />
    <glyph glyph-name="I.alt01" horiz-adv-x="436" 
d="M398 0h-360q-10 0 -10 10v154q0 10 10 10h69q6 0 6 6v320q0 6 -6 6h-69q-10 0 -10 10v154q0 10 10 10h360q10 0 10 -10v-154q0 -10 -10 -10h-69q-6 0 -6 -6v-320q0 -6 6 -6h69q10 0 10 -10v-154q0 -10 -10 -10z" />
    <glyph glyph-name="Igrave.alt01" horiz-adv-x="436" 
d="M398 0h-360q-10 0 -10 10v154q0 10 10 10h69q6 0 6 6v320q0 6 -6 6h-69q-10 0 -10 10v154q0 10 10 10h360q10 0 10 -10v-154q0 -10 -10 -10h-69q-6 0 -6 -6v-320q0 -6 6 -6h69q10 0 10 -10v-154q0 -10 -10 -10zM299 738h-141q-11 0 -21 10l-134 132q-3 4 -1.5 7t6.5 3
h167q10 0 18 -10l110 -132q3 -4 2 -7t-6 -3z" />
    <glyph glyph-name="Iacute.alt01" horiz-adv-x="436" 
d="M398 0h-360q-10 0 -10 10v154q0 10 10 10h69q6 0 6 6v320q0 6 -6 6h-69q-10 0 -10 10v154q0 10 10 10h360q10 0 10 -10v-154q0 -10 -10 -10h-69q-6 0 -6 -6v-320q0 -6 6 -6h69q10 0 10 -10v-154q0 -10 -10 -10zM277 738h-141q-4 0 -5.5 3t1.5 7l110 132q8 10 18 10h167
q5 0 6.5 -3t-1.5 -7l-134 -132q-10 -10 -21 -10z" />
    <glyph glyph-name="Ibreve.alt01" horiz-adv-x="436" 
d="M398 0h-360q-10 0 -10 10v154q0 10 10 10h69q6 0 6 6v320q0 6 -6 6h-69q-10 0 -10 10v154q0 10 10 10h360q10 0 10 -10v-154q0 -10 -10 -10h-69q-6 0 -6 -6v-320q0 -6 6 -6h69q10 0 10 -10v-154q0 -10 -10 -10zM218 721q-71 0 -120.5 44.5t-49.5 108.5q0 11 14 11h74
q10 0 16 -11q19 -37 66 -37t66 37q6 11 16 11h74q14 0 14 -11q0 -64 -49.5 -108.5t-120.5 -44.5z" />
    <glyph glyph-name="Icircumflex.alt01" horiz-adv-x="436" 
d="M398 0h-360q-10 0 -10 10v154q0 10 10 10h69q6 0 6 6v320q0 6 -6 6h-69q-10 0 -10 10v154q0 10 10 10h360q10 0 10 -10v-154q0 -10 -10 -10h-69q-6 0 -6 -6v-320q0 -6 6 -6h69q10 0 10 -10v-154q0 -10 -10 -10zM400 734h-113q-14 0 -24 10l-44 44h-2l-44 -44
q-10 -10 -24 -10h-113q-5 0 -6.5 3t1.5 7l114 144q7 10 19 10h108q12 0 19 -10l114 -144q3 -4 1.5 -7t-6.5 -3z" />
    <glyph glyph-name="Itilde.alt01" horiz-adv-x="436" 
d="M398 0h-360q-10 0 -10 10v154q0 10 10 10h69q6 0 6 6v320q0 6 -6 6h-69q-10 0 -10 10v154q0 10 10 10h360q10 0 10 -10v-154q0 -10 -10 -10h-69q-6 0 -6 -6v-320q0 -6 6 -6h69q10 0 10 -10v-154q0 -10 -10 -10zM294 730q-40 0 -94 26q-36 17 -61 17q-37 0 -81 -33
q-11 -7 -11 4v92q0 14 10 24q41 39 86 39q40 0 94 -26q36 -17 61 -17q38 0 81 33q11 7 11 -4v-92q0 -14 -10 -24q-41 -39 -86 -39z" />
    <glyph glyph-name="Idieresis.alt01" horiz-adv-x="436" 
d="M398 0h-360q-10 0 -10 10v154q0 10 10 10h69q6 0 6 6v320q0 6 -6 6h-69q-10 0 -10 10v154q0 10 10 10h360q10 0 10 -10v-154q0 -10 -10 -10h-69q-6 0 -6 -6v-320q0 -6 6 -6h69q10 0 10 -10v-154q0 -10 -10 -10zM386 739h-126q-10 0 -10 10v124q0 10 10 10h126
q10 0 10 -10v-124q0 -10 -10 -10zM176 739h-126q-10 0 -10 10v124q0 10 10 10h126q10 0 10 -10v-124q0 -10 -10 -10z" />
    <glyph glyph-name="Imacron.alt01" horiz-adv-x="436" 
d="M398 0h-360q-10 0 -10 10v154q0 10 10 10h69q6 0 6 6v320q0 6 -6 6h-69q-10 0 -10 10v154q0 10 10 10h360q10 0 10 -10v-154q0 -10 -10 -10h-69q-6 0 -6 -6v-320q0 -6 6 -6h69q10 0 10 -10v-154q0 -10 -10 -10zM380 748h-324q-10 0 -10 10v108q0 10 10 10h324
q10 0 10 -10v-108q0 -10 -10 -10z" />
    <glyph glyph-name="Idotaccent.alt01" horiz-adv-x="436" 
d="M398 0h-360q-10 0 -10 10v154q0 10 10 10h69q6 0 6 6v320q0 6 -6 6h-69q-10 0 -10 10v154q0 10 10 10h360q10 0 10 -10v-154q0 -10 -10 -10h-69q-6 0 -6 -6v-320q0 -6 6 -6h69q10 0 10 -10v-154q0 -10 -10 -10zM300 739h-164q-10 0 -10 10v124q0 10 10 10h164
q10 0 10 -10v-124q0 -10 -10 -10z" />
    <glyph glyph-name="Iogonek.alt01" horiz-adv-x="436" 
d="M219 -192q-55 0 -86.5 28.5t-31.5 72.5q0 58 42 91h-105q-10 0 -10 10v154q0 10 10 10h69q6 0 6 6v320q0 6 -6 6h-69q-10 0 -10 10v154q0 10 10 10h360q10 0 10 -10v-154q0 -10 -10 -10h-69q-6 0 -6 -6v-320q0 -6 6 -6h69q10 0 10 -10v-154q0 -10 -10 -10h-95
q-28 -16 -42.5 -27.5t-18 -17t-3.5 -11.5q0 -10 13 -10q10 0 24 9q8 5 13 -3l46 -83q5 -8 -4 -14q-54 -35 -112 -35z" />
    <glyph glyph-name="Z.alt01" horiz-adv-x="580" 
d="M540 0h-500q-10 0 -10 10v162q0 6 3 10l82 95h-51q-10 0 -10 10v118q0 10 10 10h172l66 76v3h-251q-10 0 -10 10v166q0 10 10 10h489q10 0 10 -10v-162q0 -6 -3 -10l-73 -83h42q10 0 10 -10v-118q0 -10 -10 -10h-162l-77 -88v-3h263q10 0 10 -10v-166q0 -10 -10 -10z" />
    <glyph glyph-name="Zacute.alt01" horiz-adv-x="580" 
d="M540 0h-500q-10 0 -10 10v162q0 6 3 10l82 95h-51q-10 0 -10 10v118q0 10 10 10h172l66 76v3h-251q-10 0 -10 10v166q0 10 10 10h489q10 0 10 -10v-162q0 -6 -3 -10l-73 -83h42q10 0 10 -10v-118q0 -10 -10 -10h-162l-77 -88v-3h263q10 0 10 -10v-166q0 -10 -10 -10z
M337 738h-141q-4 0 -5.5 3t1.5 7l110 132q8 10 18 10h167q5 0 6.5 -3t-1.5 -7l-134 -132q-10 -10 -21 -10z" />
    <glyph glyph-name="Zcaron.alt01" horiz-adv-x="580" 
d="M540 0h-500q-10 0 -10 10v162q0 6 3 10l82 95h-51q-10 0 -10 10v118q0 10 10 10h172l66 76v3h-251q-10 0 -10 10v166q0 10 10 10h489q10 0 10 -10v-162q0 -6 -3 -10l-73 -83h42q10 0 10 -10v-118q0 -10 -10 -10h-162l-77 -88v-3h263q10 0 10 -10v-166q0 -10 -10 -10z
M346 726h-108q-12 0 -19 10l-114 144q-3 4 -1.5 7t6.5 3h113q14 0 24 -10l44 -44h2l44 44q10 10 24 10h113q5 0 6.5 -3t-1.5 -7l-114 -144q-7 -10 -19 -10z" />
    <glyph glyph-name="Zdotaccent.alt01" horiz-adv-x="580" 
d="M540 0h-500q-10 0 -10 10v162q0 6 3 10l82 95h-51q-10 0 -10 10v118q0 10 10 10h172l66 76v3h-251q-10 0 -10 10v166q0 10 10 10h489q10 0 10 -10v-162q0 -6 -3 -10l-73 -83h42q10 0 10 -10v-118q0 -10 -10 -10h-162l-77 -88v-3h263q10 0 10 -10v-166q0 -10 -10 -10z
M374 739h-164q-10 0 -10 10v124q0 10 10 10h164q10 0 10 -10v-124q0 -10 -10 -10z" />
    <glyph glyph-name="zero.alt01" 
d="M285 -12q-88 0 -147.5 40t-83.5 113q-17 51 -17 199t17 199q24 73 83.5 113t147.5 40t147.5 -40t83.5 -113q17 -51 17 -199t-17 -199q-24 -73 -83.5 -113t-147.5 -40zM237 340v-34l93 184l-3 15q-9 28 -42 28t-42 -28q-6 -18 -6 -165zM285 147q33 0 42 28q6 18 6 165v31
l-93 -184l3 -12q9 -28 42 -28z" />
    <glyph glyph-name="one.alt01" 
d="M520 0h-458q-10 0 -10 10v154q0 10 10 10h123q6 0 6 6v290h-2l-124 -70q-3 -2 -6 -2.5t-5 2t-2 6.5v173q0 8 7 14l133 81q8 6 18 6h171q10 0 10 -10v-490q0 -6 6 -6h123q10 0 10 -10v-154q0 -10 -10 -10z" />
    <glyph glyph-name="six.alt01" 
d="M286 -12q-90 0 -149 36.5t-81 104.5q-12 38 -12 89v211q0 126 67.5 194.5t188.5 68.5q63 0 120.5 -19.5t92.5 -44.5q8 -6 3 -14l-67 -113q-5 -10 -15 -4q-72 35 -125 35q-36 0 -53.5 -18.5t-17.5 -64.5v-23h1q27 21 81 21q156 0 196 -124q12 -34 12 -105q0 -54 -11 -89
q-22 -68 -81.5 -104.5t-149.5 -36.5zM286 148q35 0 44 30q4 14 4 40t-4 40q-9 30 -44 30t-44 -30q-4 -14 -4 -40t4 -40q9 -30 44 -30z" />
    <glyph glyph-name="seven.alt01" 
d="M510 217h-101l-83 -207q-3 -10 -13 -10h-189q-5 0 -7 3.5t-1 7.5l84 206h-90q-10 0 -10 10v130q0 10 10 10h152l57 138v3h-259q-10 0 -10 10v152q0 10 10 10h454q10 0 10 -10v-161q0 -4 -2 -10l-53 -132h41q10 0 10 -10v-130q0 -10 -10 -10z" />
    <glyph glyph-name="nine.alt01" 
d="M284 692q90 0 149 -36.5t81 -104.5q12 -38 12 -89v-211q0 -126 -67.5 -194.5t-188.5 -68.5q-63 0 -120.5 19.5t-92.5 44.5q-8 6 -3 14l67 113q5 10 15 4q72 -35 125 -35q36 0 53.5 18.5t17.5 64.5v23h-1q-27 -21 -81 -21q-156 0 -196 124q-12 35 -12 105q0 54 11 89
q22 68 81.5 104.5t149.5 36.5zM284 532q-35 0 -44 -30q-4 -14 -4 -40t4 -40q9 -30 44 -30t44 30q4 14 4 40t-4 40q-9 30 -44 30z" />
    <glyph glyph-name="zero.alt02" 
d="M285 -12q-88 0 -147.5 40t-83.5 113q-17 51 -17 199t17 199q24 73 83.5 113t147.5 40t147.5 -40t83.5 -113q17 -51 17 -199t-17 -199q-24 -73 -83.5 -113t-147.5 -40zM237 340v-34l93 184l-3 15q-9 28 -42 28t-42 -28q-6 -18 -6 -165zM285 147q33 0 42 28q6 18 6 165v31
l-93 -184l3 -12q9 -28 42 -28z" />
    <glyph glyph-name="one.alt02" horiz-adv-x="511" 
d="M496 0h-458q-10 0 -10 10v154q0 10 10 10h123q6 0 6 6v290h-2l-124 -70q-3 -2 -6 -2.5t-5 2t-2 6.5v173q0 8 7 14l133 81q8 6 18 6h171q10 0 10 -10v-490q0 -6 6 -6h123q10 0 10 -10v-154q0 -10 -10 -10z" />
    <glyph glyph-name="six.alt02" horiz-adv-x="556" 
d="M279 -12q-90 0 -149 36.5t-81 104.5q-12 38 -12 89v211q0 126 67.5 194.5t188.5 68.5q63 0 120.5 -19.5t92.5 -44.5q8 -6 3 -14l-67 -113q-5 -10 -15 -4q-72 35 -125 35q-36 0 -53.5 -18.5t-17.5 -64.5v-23h1q27 21 81 21q156 0 196 -124q12 -34 12 -105q0 -54 -11 -89
q-22 -68 -81.5 -104.5t-149.5 -36.5zM279 148q35 0 44 30q4 14 4 40t-4 40q-9 30 -44 30t-44 -30q-4 -14 -4 -40t4 -40q9 -30 44 -30z" />
    <glyph glyph-name="seven.alt02" horiz-adv-x="554" 
d="M500 217h-101l-83 -207q-3 -10 -13 -10h-189q-5 0 -7 3.5t-1 7.5l84 206h-90q-10 0 -10 10v130q0 10 10 10h152l57 138v3h-259q-10 0 -10 10v152q0 10 10 10h454q10 0 10 -10v-161q0 -4 -2 -10l-53 -132h41q10 0 10 -10v-130q0 -10 -10 -10z" />
    <glyph glyph-name="nine.alt02" horiz-adv-x="556" 
d="M277 692q90 0 149 -36.5t81 -104.5q12 -38 12 -89v-211q0 -126 -67.5 -194.5t-188.5 -68.5q-63 0 -120.5 19.5t-92.5 44.5q-8 6 -3 14l67 113q5 10 15 4q72 -35 125 -35q36 0 53.5 18.5t17.5 64.5v23h-1q-27 -21 -81 -21q-156 0 -196 124q-12 35 -12 105q0 54 11 89
q22 68 81.5 104.5t149.5 36.5zM277 532q-35 0 -44 -30q-4 -14 -4 -40t4 -40q9 -30 44 -30t44 30q4 14 4 40t-4 40q-9 30 -44 30z" />
    <glyph glyph-name="zero.nominator" horiz-adv-x="376" 
d="M188 267q-61 0 -101.5 25.5t-55.5 73.5q-11 33 -11 111t11 111q15 48 55.5 73.5t101.5 25.5t101.5 -25.5t55.5 -73.5q11 -33 11 -111t-11 -111q-15 -48 -55.5 -73.5t-101.5 -25.5zM188 375q16 0 21 14q3 9 3 88t-3 88q-5 14 -21 14t-21 -14q-3 -9 -3 -88t3 -88
q5 -14 21 -14z" />
    <glyph glyph-name="one.nominator" horiz-adv-x="376" 
d="M272 274h-123q-10 0 -10 10v256h-2l-67 -37q-4 -2 -7 -0.5t-3 6.5v112q0 10 9 15l63 38q9 6 17 6h123q10 0 10 -10v-386q0 -10 -10 -10z" />
    <glyph glyph-name="two.nominator" horiz-adv-x="376" 
d="M336 274h-296q-10 0 -10 10v87q0 13 10 21l147 125q21 18 21 38q0 24 -24 24q-27 0 -28 -32q0 -12 -11 -10l-106 12q-9 1 -9 11q2 57 46 92t118 35q65 0 108.5 -33.5t43.5 -96.5t-60 -111l-70 -56v-1h120q10 0 10 -10v-95q0 -10 -10 -10z" />
    <glyph glyph-name="three.nominator" horiz-adv-x="376" 
d="M189 267q-68 0 -110.5 29.5t-50.5 80.5q-2 9 8 11l105 13q10 2 14 -7q8 -19 29 -19q27 0 27 26q0 27 -35 27h-10q-10 0 -10 10v84q0 10 10 10h12q27 0 27 23q0 24 -24 24q-21 0 -26 -19q-3 -10 -12 -9l-107 14q-10 2 -8 11q9 50 50.5 80.5t109.5 30.5q73 0 114 -32
t41 -82t-48 -80v-2q54 -26 54 -95q0 -58 -44 -93.5t-116 -35.5z" />
    <glyph glyph-name="four.nominator" horiz-adv-x="376" 
d="M324 274h-109q-10 0 -10 10v32q0 6 -6 6h-169q-10 0 -10 10v102q0 8 5 20l97 216q4 10 15 10h127q11 0 7 -10l-104 -230v-3h32q6 0 6 6v42q0 10 10 10h109q10 0 10 -10v-42q0 -6 5 -6h13q10 0 10 -10v-95q0 -10 -10 -10h-12q-6 0 -6 -6v-32q0 -10 -10 -10z" />
    <glyph glyph-name="five.nominator" horiz-adv-x="376" 
d="M187 267q-65 0 -104 27.5t-48 75.5q-2 9 9 11l104 13q9 2 14 -6q8 -13 24 -13q17 0 22 14q3 7 3 18t-3 18q-5 14 -22 14q-12 0 -20 -8q-6 -6 -13 -6h-105q-10 0 -10 10v235q0 10 10 10h270q10 0 10 -10v-91q0 -11 -10 -11h-154q-6 0 -6 -7v-33h1q21 18 65 18
q93 0 117 -74q8 -24 8 -57q0 -36 -7 -57q-30 -91 -155 -91z" />
    <glyph glyph-name="six.nominator" horiz-adv-x="376" 
d="M188 267q-75 0 -121.5 38.5t-46.5 101.5q0 55 41 124l81 139q5 10 15 10h134q11 0 5 -10l-75 -131l1 -1h4q58 0 94 -35t36 -96q0 -63 -46.5 -101.5t-121.5 -38.5zM188 373q15 0 23.5 9t8.5 22t-8.5 22t-23.5 9t-23.5 -9t-8.5 -22t8.5 -22t23.5 -9z" />
    <glyph glyph-name="seven.nominator" horiz-adv-x="376" 
d="M220 274h-129q-11 0 -7 12l122 280v2h-44q-6 0 -6 -6v-32q0 -10 -10 -10h-106q-10 0 -10 10v140q0 10 10 10h300q10 0 10 -10v-105q0 -10 -4 -18l-113 -263q-3 -10 -13 -10z" />
    <glyph glyph-name="eight.nominator" horiz-adv-x="376" 
d="M188 267q-72 0 -120 35t-48 96q0 50 43 85v1q-35 33 -35 75q0 53 43 90.5t117 37.5t117 -37.5t43 -90.5q0 -42 -35 -75v-1q43 -35 43 -85q0 -61 -48 -96t-120 -35zM188 529q12 0 19.5 7.5t7.5 18.5t-7.5 18.5t-19.5 7.5t-19.5 -7.5t-7.5 -18.5t7.5 -18.5t19.5 -7.5z
M188 373q14 0 23 9t9 22t-9 22t-23 9t-23 -9t-9 -22t9 -22t23 -9z" />
    <glyph glyph-name="nine.nominator" horiz-adv-x="376" 
d="M219 274h-134q-11 0 -5 10l75 131l-1 1h-4q-58 0 -94 35t-36 96q0 63 46.5 101.5t121.5 38.5t121.5 -38.5t46.5 -101.5q0 -55 -41 -124l-81 -139q-5 -10 -15 -10zM188 519q15 0 23.5 9t8.5 22t-8.5 22t-23.5 9t-23.5 -9t-8.5 -22t8.5 -22t23.5 -9z" />
    <glyph glyph-name="zero.denominator" horiz-adv-x="376" 
d="M188 -7q-61 0 -101.5 25.5t-55.5 73.5q-11 33 -11 111t11 111q15 48 55.5 73.5t101.5 25.5t101.5 -25.5t55.5 -73.5q11 -33 11 -111t-11 -111q-15 -48 -55.5 -73.5t-101.5 -25.5zM188 101q16 0 21 14q3 9 3 88t-3 88q-5 14 -21 14t-21 -14q-3 -9 -3 -88t3 -88
q5 -14 21 -14z" />
    <glyph glyph-name="one.denominator" horiz-adv-x="376" 
d="M272 0h-123q-10 0 -10 10v256h-2l-67 -37q-4 -2 -7 -0.5t-3 6.5v112q0 10 9 15l63 38q9 6 17 6h123q10 0 10 -10v-386q0 -10 -10 -10z" />
    <glyph glyph-name="two.denominator" horiz-adv-x="376" 
d="M336 0h-296q-10 0 -10 10v87q0 14 10 21l147 125q21 18 21 38q0 24 -24 24q-27 0 -28 -32q0 -12 -11 -10l-106 12q-9 1 -9 11q2 57 46 92t118 35q65 0 108.5 -33.5t43.5 -96.5t-60 -111l-70 -56v-1h120q10 0 10 -10v-95q0 -10 -10 -10z" />
    <glyph glyph-name="three.denominator" horiz-adv-x="376" 
d="M189 -7q-68 0 -110.5 29.5t-50.5 80.5q-2 9 8 11l105 13q10 2 14 -7q8 -19 29 -19q27 0 27 26q0 27 -35 27h-10q-10 0 -10 10v84q0 10 10 10h12q27 0 27 23q0 24 -24 24q-21 0 -26 -19q-3 -10 -12 -9l-107 14q-10 2 -8 11q9 50 50.5 80.5t109.5 30.5q73 0 114 -32t41 -82
t-48 -80v-2q54 -26 54 -95q0 -58 -44 -93.5t-116 -35.5z" />
    <glyph glyph-name="four.denominator" horiz-adv-x="376" 
d="M324 0h-109q-10 0 -10 10v32q0 6 -6 6h-169q-10 0 -10 10v102q0 8 5 20l97 216q4 10 15 10h127q11 0 7 -10l-104 -230v-3h32q6 0 6 6v42q0 10 10 10h109q10 0 10 -10v-42q0 -6 5 -6h13q10 0 10 -10v-95q0 -10 -10 -10h-12q-6 0 -6 -6v-32q0 -10 -10 -10z" />
    <glyph glyph-name="five.denominator" horiz-adv-x="376" 
d="M187 -7q-65 0 -104 27.5t-48 75.5q-2 9 9 11l104 13q9 2 14 -6q8 -13 24 -13q17 0 22 14q3 7 3 18t-3 18q-5 14 -22 14q-12 0 -20 -8q-6 -6 -13 -6h-105q-10 0 -10 10v235q0 10 10 10h270q10 0 10 -10v-91q0 -11 -10 -11h-154q-6 0 -6 -7v-33h1q21 18 65 18q93 0 117 -74
q8 -24 8 -57q0 -36 -7 -57q-30 -91 -155 -91z" />
    <glyph glyph-name="six.denominator" horiz-adv-x="376" 
d="M188 -7q-75 0 -121.5 38.5t-46.5 101.5q0 55 41 124l81 139q5 10 15 10h134q11 0 5 -10l-75 -131l1 -1h4q58 0 94 -35t36 -96q0 -63 -46.5 -101.5t-121.5 -38.5zM188 99q15 0 23.5 9t8.5 22t-8.5 22t-23.5 9t-23.5 -9t-8.5 -22t8.5 -22t23.5 -9z" />
    <glyph glyph-name="seven.denominator" horiz-adv-x="376" 
d="M220 0h-129q-11 0 -7 12l122 280v2h-44q-6 0 -6 -6v-32q0 -10 -10 -10h-106q-10 0 -10 10v140q0 10 10 10h300q10 0 10 -10v-105q0 -10 -4 -18l-113 -263q-3 -10 -13 -10z" />
    <glyph glyph-name="eight.denominator" horiz-adv-x="376" 
d="M188 -7q-72 0 -120 35t-48 96q0 50 43 85v1q-35 33 -35 75q0 53 43 90.5t117 37.5t117 -37.5t43 -90.5q0 -42 -35 -75v-1q43 -35 43 -85q0 -61 -48 -96t-120 -35zM188 255q12 0 19.5 7.5t7.5 18.5t-7.5 18.5t-19.5 7.5t-19.5 -7.5t-7.5 -18.5t7.5 -18.5t19.5 -7.5z
M188 99q14 0 23 9t9 22t-9 22t-23 9t-23 -9t-9 -22t9 -22t23 -9z" />
    <glyph glyph-name="nine.denominator" horiz-adv-x="376" 
d="M219 0h-134q-11 0 -5 10l75 131l-1 1h-4q-58 0 -94 35t-36 96q0 63 46.5 101.5t121.5 38.5t121.5 -38.5t46.5 -101.5q0 -55 -41 -124l-81 -139q-5 -10 -15 -10zM188 245q15 0 23.5 9t8.5 22t-8.5 22t-23.5 9t-23.5 -9t-8.5 -22t8.5 -22t23.5 -9z" />
    </font>
</defs>
</svg>
